SplineFontDB: 3.0
FontName: YesevaOne-Regular
FullName: Yeseva One
FamilyName: Yeseva One
Weight: Regular
Copyright: Copyright (c) May 20, 2011, Jovanny Lemonad (lemonad@jovanny.ru), with Reserved Font Name "Yeseva" and "Yeseva One". 
Version: 001.002
ItalicAngle: 0
UnderlinePosition: -50
UnderlineWidth: 50
Ascent: 800
Descent: 200
LayerCount: 2
Layer: 0 1 "Back"  1
Layer: 1 1 "Fore"  0
NeedsXUIDChange: 1
XUID: [1021 288 713564382 13089209]
FSType: 0
OS2Version: 2
OS2_WeightWidthSlopeOnly: 0
OS2_UseTypoMetrics: 1
CreationTime: 1314999801
ModificationTime: 1314992698
PfmFamily: 81
TTFWeight: 400
TTFWidth: 5
LineGap: 0
VLineGap: 0
Panose: 2 0 5 5 9 0 0 2 0 4
OS2TypoAscent: 930
OS2TypoAOffset: 0
OS2TypoDescent: -300
OS2TypoDOffset: 0
OS2TypoLinegap: 0
OS2WinAscent: 930
OS2WinAOffset: 0
OS2WinDescent: 300
OS2WinDOffset: 0
HheadAscent: 930
HheadAOffset: 0
HheadDescent: -300
HheadDOffset: 0
OS2SubXSize: 700
OS2SubYSize: 650
OS2SubXOff: 0
OS2SubYOff: 140
OS2SupXSize: 700
OS2SupYSize: 650
OS2SupXOff: 0
OS2SupYOff: 477
OS2StrikeYSize: 50
OS2StrikeYPos: 250
OS2Vendor: 'PYRS'
OS2CodePages: 00000001.00000000
OS2UnicodeRanges: 800000af.0000000a.00000000.00000000
Lookup: 4 0 0 "'frac' Diagonal Fractions in Latin lookup 0"  {"'frac' Diagonal Fractions in Latin lookup 0 subtable"  } ['frac' ('latn' <'dflt' > ) ]
Lookup: 258 0 0 "'kern' Horizontal Kerning in Latin lookup 0"  {"'kern' Horizontal Kerning in Latin lookup 0 subtable"  } ['kern' ('latn' <'dflt' > ) ]
MarkAttachClasses: 1
DEI: 91125
TtTable: prep
PUSHW_1
 511
SCANCTRL
PUSHB_1
 4
SCANTYPE
EndTTInstrs
LangName: 1033 "" "" "" "" "YesevaOne-Regular" "Version 1.002" "" "Yeseva One is a trademark of Jovanny Lemonad." "Jovanny Lemonad" "Jovanny Lemonad" "" "http://jovanny.ru" "http://jovanny.ru" "This Font Software is licensed under the SIL Open Font License, Version 1.1. This license is available with a FAQ at: http://scripts.sil.org/OFL" "http://scripts.sil.org/OFL" 
GaspTable: 1 65535 15
Encoding: UnicodeBmp

StartChar: l
Encoding: 108 108 1
Width: 380
Flags: HMW
HStem: 0 21G<30 360 30 30> 680 20G<30 160 160 200>
VStem: 110 170<25 580 25 675 25 675>
LayerCount: 2
Fore
SplineSet
110 25 m 1,0,-1
 110 675 l 1,1,-1
 30 685 l 1,2,-1
 30 700 l 1,3,-1
 160 700 l 2,4,5
 280 700 280 700 280 580 c 2,6,-1
 280 25 l 1,7,-1
 360 15 l 1,8,-1
 360 0 l 1,9,-1
 30 0 l 1,10,-1
 30 15 l 1,11,-1
 110 25 l 1,0,-1
EndSplineSet
EndChar

StartChar: a
Encoding: 97 97 2
Width: 640
Flags: HMW
HStem: -15 35<267.5 302.5> 0 20 245 25<345 380> 330 185<147.5 380> 490 25<257.5 305>
VStem: 50 170<102.5 165 102.5 172.5> 90 130<385 442.5> 380 170<115 245 245 245 270 290 25 370>
LayerCount: 2
Fore
SplineSet
230 230 m 1,0,1
 220 180 220 180 220 150 c 0,2,3
 220 83 220 83 238 51.5 c 128,-1,4
 256 20 256 20 284 20 c 128,-1,5
 312 20 312 20 335.5 44 c 128,-1,6
 359 68 359 68 369.5 91.5 c 2,7,-1
 380 115 l 1,8,-1
 380 245 l 1,9,10
 312.5 245 312.5 245 252 234 c 2,11,-1
 230 230 l 1,0,1
90 405 m 0,12,13
 90 515 90 515 309 515 c 0,14,15
 418 515 418 515 484 454 c 128,-1,16
 550 393 550 393 550 290 c 2,17,-1
 550 25 l 1,18,-1
 630 15 l 1,19,-1
 630 0 l 1,20,-1
 535 0 l 2,21,22
 503 0 503 0 477 10.5 c 128,-1,23
 451 21 451 21 437.5 35.5 c 0,24,25
 409.984732824 65.0534351145 409.984732824 65.0534351145 403 89.5 c 2,26,-1
 400 100 l 1,27,28
 395 87.5 l 2,29,30
 392 80 392 80 378.5 60 c 128,-1,31
 365 40 365 40 349 25 c 128,-1,32
 333 10 333 10 305 -2.5 c 128,-1,33
 277 -15 277 -15 245 -15 c 0,34,35
 151 -15 151 -15 100.5 28 c 128,-1,36
 50 71 50 71 50 150 c 0,37,38
 50 193.125 50 193.125 65 225 c 1,39,40
 220 265 220 265 380 270 c 1,41,-1
 380 290 l 2,42,43
 380 404 380 404 353 447 c 128,-1,44
 326 490 326 490 270 490 c 1,45,-1
 220 485 l 1,46,-1
 220 335 l 1,47,48
 200 330 200 330 167.5 330 c 128,-1,49
 135 330 135 330 112.5 351.5 c 128,-1,50
 90 373 90 373 90 405 c 0,12,13
EndSplineSet
EndChar

StartChar: n
Encoding: 110 110 3
Width: 720
Flags: HMW
HStem: 0 21G<40 370 40 40 540 580 580 710> 480 20 480 35<375 412.5>
VStem: 120 170<25 385> 460 170<120 350 25 397.5>
LayerCount: 2
Fore
SplineSet
290 25 m 1,0,-1
 370 15 l 1,1,-1
 370 0 l 1,2,-1
 40 0 l 1,3,-1
 40 15 l 1,4,-1
 120 25 l 1,5,-1
 120 475 l 1,6,-1
 40 485 l 1,7,-1
 40 500 l 1,8,-1
 135 500 l 2,9,10
 167 500 167 500 193 489.5 c 128,-1,11
 219 479 219 479 232.5 464.5 c 0,12,13
 260.015267176 434.946564885 260.015267176 434.946564885 267 410.5 c 2,14,-1
 270 400 l 1,15,16
 286.363636364 440.909090909 286.363636364 440.909090909 325 475 c 0,17,18
 342 490 342 490 371.5 502.5 c 128,-1,19
 401 515 401 515 435 515 c 0,20,21
 529 515 529 515 579.5 472 c 128,-1,22
 630 429 630 429 630 350 c 2,23,-1
 630 25 l 1,24,-1
 710 15 l 1,25,-1
 710 0 l 1,26,-1
 580 0 l 2,27,28
 460 0 460 0 460 120 c 2,29,-1
 460 350 l 2,30,31
 460 417 460 417 442 448.5 c 128,-1,32
 424 480 424 480 395 480 c 128,-1,33
 366 480 366 480 340 456 c 128,-1,34
 314 432 314 432 302 408.5 c 2,35,-1
 290 385 l 1,36,-1
 290 25 l 1,0,-1
EndSplineSet
EndChar

StartChar: m
Encoding: 109 109 4
Width: 1030
Flags: HMW
HStem: 0 21G<40 350 40 40 385 385 385 695 850 890 890 1020> 480 20 480 35<372.5 402.5 710 727.5>
VStem: 120 170<25 385 25 475 25 475> 445 170<25 350 350 385 25 397.5> 770 170<120 350 25 397.5>
CounterMasks: 1 1c
LayerCount: 2
Fore
SplineSet
445 25 m 1,0,-1
 445 350 l 2,1,2
 445 480 445 480 385 480 c 0,3,4
 363 480 363 480 339 456 c 128,-1,5
 315 432 315 432 302.5 408.5 c 2,6,-1
 290 385 l 1,7,-1
 290 25 l 1,8,-1
 350 15 l 1,9,-1
 350 0 l 1,10,-1
 40 0 l 1,11,-1
 40 15 l 1,12,-1
 120 25 l 1,13,-1
 120 475 l 1,14,-1
 40 485 l 1,15,-1
 40 500 l 1,16,-1
 135 500 l 2,17,18
 167 500 167 500 193 489.5 c 128,-1,19
 219 479 219 479 232.5 464.5 c 0,20,21
 260.015267176 434.946564885 260.015267176 434.946564885 267 410.5 c 2,22,-1
 270 400 l 1,23,24
 298.553191489 471.382978723 298.553191489 471.382978723 369.5 502.5 c 0,25,26
 398 515 398 515 430 515 c 0,27,28
 562 515 562 515 602 414 c 1,29,30
 661 515 661 515 754 515 c 128,-1,31
 847 515 847 515 893.5 472.5 c 128,-1,32
 940 430 940 430 940 350 c 2,33,-1
 940 25 l 1,34,-1
 1020 15 l 1,35,-1
 1020 0 l 1,36,-1
 890 0 l 2,37,38
 770 0 770 0 770 120 c 2,39,-1
 770 350 l 2,40,41
 770 480 770 480 710 480 c 0,42,43
 688 480 688 480 664 456 c 128,-1,44
 640 432 640 432 627.5 408.5 c 2,45,-1
 615 385 l 1,46,-1
 615 25 l 1,47,-1
 695 15 l 1,48,-1
 695 0 l 1,49,-1
 385 0 l 1,50,-1
 385 15 l 1,51,-1
 445 25 l 1,0,-1
EndSplineSet
EndChar

StartChar: o
Encoding: 111 111 5
Width: 640
Flags: HMW
HStem: -15 20<292.5 347.5 292.5 392.5> 495 20<292.5 347.5>
VStem: 50 170<157.5 342.5> 420 170<157.5 342.5 157.5 345>
LayerCount: 2
Fore
SplineSet
590 250 m 128,-1,1
 590 119 590 119 513.5 52 c 128,-1,2
 437 -15 437 -15 320 -15 c 128,-1,3
 203 -15 203 -15 126.5 52 c 128,-1,4
 50 119 50 119 50 250 c 128,-1,5
 50 381 50 381 126.5 448 c 128,-1,6
 203 515 203 515 320 515 c 128,-1,7
 437 515 437 515 513.5 448 c 128,-1,0
 590 381 590 381 590 250 c 128,-1,1
220 250 m 128,-1,9
 220 5 220 5 320 5 c 128,-1,10
 420 5 420 5 420 250 c 128,-1,11
 420 495 420 495 320 495 c 128,-1,8
 220 495 220 495 220 250 c 128,-1,9
EndSplineSet
EndChar

StartChar: b
Encoding: 98 98 6
Width: 650
Flags: HMW
HStem: -15 35<337.5 377.5 325 437.5> 0 20 485 30<352.5 375> 680 20G<10 140 140 180>
VStem: 90 170<115 440 115 470 470 580 115 675> 430 170<162.5 337.5>
LayerCount: 2
Fore
SplineSet
260 440 m 1,0,-1
 260 115 l 1,1,2
 262.05 106.8 262.05 106.8 273.525 86.4 c 128,-1,3
 285 66 285 66 295.5 53.5 c 0,4,5
 323.64 20 323.64 20 355 20 c 0,6,7
 430 20 430 20 430 252.5 c 128,-1,8
 430 485 430 485 350 485 c 0,9,10
 332 485 332 485 309.5 473.5 c 128,-1,11
 287 462 287 462 273.5 451 c 2,12,-1
 260 440 l 1,0,-1
10 700 m 1,13,-1
 140 700 l 2,14,15
 260 700 260 700 260 580 c 2,16,-1
 260 470 l 1,17,18
 280.052631579 486.710526316 280.052631579 486.710526316 318.526315789 500.855263158 c 128,-1,19
 357 515 357 515 390 515 c 0,20,21
 485 515 485 515 542.5 449 c 128,-1,22
 600 383 600 383 600 250 c 0,23,24
 600 184 600 184 580 131 c 128,-1,25
 560 78 560 78 529 47.5 c 0,26,27
 465.475409836 -15 465.475409836 -15 395 -15 c 0,28,29
 363 -15 363 -15 335 -3 c 128,-1,30
 307 9 307 9 290.5 25.5 c 0,31,32
 257.142857143 58.8571428571 257.142857143 58.8571428571 245 88 c 2,33,-1
 240 100 l 1,34,35
 224.225806452 36.9032258065 224.225806452 36.9032258065 163 11 c 0,36,37
 137 0 137 0 105 0 c 2,38,-1
 90 0 l 1,39,-1
 90 675 l 1,40,-1
 10 685 l 1,41,-1
 10 700 l 1,13,-1
EndSplineSet
EndChar

StartChar: c
Encoding: 99 99 7
Width: 560
Flags: HMW
HStem: -15 25<302.5 372.5> 330 185<247.5 472.5> 490 25<307.5 362.5>
VStem: 50 170<157.5 342.5> 400 130<385 442.5>
LayerCount: 2
Fore
SplineSet
350 490 m 0,0,1
 283 490 283 490 251.5 437 c 128,-1,2
 220 384 220 384 220 251 c 128,-1,3
 220 118 220 118 250 64 c 128,-1,4
 280 10 280 10 337.5 10 c 128,-1,5
 395 10 395 10 439 43 c 128,-1,6
 483 76 483 76 507 120 c 1,7,-1
 530 105 l 1,8,9
 453 -15 453 -15 320 -15 c 0,10,11
 203 -15 203 -15 126.5 52 c 128,-1,12
 50 119 50 119 50 250 c 128,-1,13
 50 381 50 381 126.5 448 c 128,-1,14
 203 515 203 515 311.5 515 c 0,15,16
 530 515 530 515 530 405 c 0,17,18
 530 373 530 373 507.5 351.5 c 128,-1,19
 485 330 485 330 445 330 c 1,20,-1
 400 335 l 1,21,-1
 400 485 l 1,22,23
 375 490 375 490 350 490 c 0,0,1
EndSplineSet
EndChar

StartChar: d
Encoding: 100 100 8
Width: 650
Flags: HMW
HStem: -15 35<262.5 302.5> 0 20 485 30<265 287.5 190 310> 485 215<300 310>
VStem: 40 170<162.5 337.5 162.5 342.5> 380 170<115 440 439.5 440 470 580 25 675 25 675>
LayerCount: 2
Fore
SplineSet
380 470 m 1,0,-1
 380 675 l 1,1,-1
 300 685 l 1,2,-1
 300 700 l 1,3,-1
 430 700 l 2,4,5
 550 700 550 700 550 580 c 2,6,-1
 550 25 l 1,7,-1
 630 15 l 1,8,-1
 630 0 l 1,9,-1
 535 0 l 2,10,11
 503 0 503 0 477 10.5 c 128,-1,12
 451 21 451 21 437.5 35.5 c 0,13,14
 409.984732824 65.0534351145 409.984732824 65.0534351145 403 89.5 c 2,15,-1
 400 100 l 1,16,17
 395 87.5 l 2,18,19
 392 80 392 80 378.5 60 c 128,-1,20
 365 40 365 40 349 25 c 128,-1,21
 333 10 333 10 305 -2.5 c 128,-1,22
 277 -15 277 -15 244 -15 c 128,-1,23
 211 -15 211 -15 176.5 1 c 128,-1,24
 142 17 142 17 111 47.5 c 128,-1,25
 80 78 80 78 60 131 c 128,-1,26
 40 184 40 184 40 250 c 0,27,28
 40 383 40 383 97.5 449 c 128,-1,29
 155 515 155 515 250 515 c 0,30,31
 283 515 283 515 315.5 503.5 c 128,-1,32
 348 492 348 492 364 481 c 2,33,-1
 380 470 l 1,0,-1
380 115 m 1,34,-1
 380 440 l 1,35,-1
 366.5 451 l 2,36,37
 353 462 353 462 330.5 473.5 c 128,-1,38
 308 485 308 485 290 485 c 0,39,40
 210 485 210 485 210 252.5 c 128,-1,41
 210 20 210 20 285 20 c 0,42,43
 312 20 312 20 335.5 44 c 128,-1,44
 359 68 359 68 369.5 91.5 c 2,45,-1
 380 115 l 1,34,-1
EndSplineSet
EndChar

StartChar: f
Encoding: 102 102 9
Width: 510
Flags: HMW
HStem: 0 21G<40 370 40 40> 440 25 535 180<280 482.5> 690 25<355 387.5>
VStem: 120 170<25 435 25 435 465 500 25 567.5> 415 125<590 647.5 590 685 590 685>
LayerCount: 2
Fore
SplineSet
370 0 m 1,0,-1
 40 0 l 1,1,-1
 40 15 l 1,2,-1
 120 25 l 1,3,-1
 120 435 l 1,4,-1
 40 445 l 1,5,-1
 40 465 l 1,6,-1
 120 465 l 1,7,-1
 120 500 l 2,8,9
 120 601 120 601 182 658 c 128,-1,10
 244 715 244 715 341 715 c 0,11,12
 540 715 540 715 540 610 c 0,13,14
 540 578 540 578 517.5 556.5 c 128,-1,15
 495 535 495 535 455 535 c 1,16,-1
 415 540 l 1,17,-1
 415 685 l 1,18,19
 395 690 395 690 380 690 c 0,20,21
 337 690 337 690 313.5 650.5 c 128,-1,22
 290 611 290 611 290 500 c 2,23,-1
 290 465 l 1,24,-1
 470 465 l 1,25,-1
 470 445 l 1,26,-1
 290 435 l 1,27,-1
 290 25 l 1,28,-1
 370 15 l 1,29,-1
 370 0 l 1,0,-1
EndSplineSet
EndChar

StartChar: e
Encoding: 101 101 10
Width: 600
Flags: HMW
HStem: -15 25<307.5 372.5> 220 25<220 220> 495 20<282.5 327.5>
VStem: 50 170<245 300 245 332.5> 390 170<330 387.5 320 402.5>
LayerCount: 2
Fore
SplineSet
545 265 m 1,0,1
 380 225 380 225 220 220 c 1,2,3
 227 10 227 10 340 10 c 0,4,5
 395 10 395 10 439 43 c 128,-1,6
 483 76 483 76 507 120 c 1,7,-1
 530 105 l 1,8,9
 453 -15 453 -15 323 -15 c 128,-1,10
 193 -15 193 -15 121.5 55.5 c 128,-1,11
 50 126 50 126 50 249.5 c 128,-1,12
 50 373 50 373 119 444 c 128,-1,13
 188 515 188 515 309 515 c 128,-1,14
 430 515 430 515 495 465.5 c 128,-1,15
 560 416 560 416 560 340 c 0,16,17
 560 307.857142857 560 307.857142857 548.5 275 c 2,18,-1
 545 265 l 1,0,1
220 300 m 2,19,-1
 220 245 l 1,20,21
 288.125 245 288.125 245 355.5 256 c 2,22,-1
 380 260 l 1,23,24
 390 310 390 310 390 350 c 0,25,26
 390 424 390 424 366 459.5 c 128,-1,27
 342 495 342 495 305 495 c 0,28,29
 220 495 220 495 220 300 c 2,19,-1
EndSplineSet
EndChar

StartChar: g
Encoding: 103 103 11
Width: 650
Flags: HMW
HStem: -215 25<270 375 270 385> -215 185<122.5 385> -10 140<155 345 205 345> 180 20<272.5 317.5 272.5 382.5> 380 165<607.5 615 552.5 632.5> 495 20<272.5 312.5>
VStem: 50 90 65 75<62.5 167.5> 65 125<-132.5 -85 -175 117.5> 65 145 380 165 510 35<-100 -55> 570 105<430 482.5 430 520 430 520>
LayerCount: 2
Fore
SplineSet
540 345 m 0,0,1
 540 180 540 180 295 180 c 0,2,3
 209 180 209 180 165 196 c 1,4,5
 156 192 156 192 148 181 c 128,-1,6
 140 170 140 170 140 160 c 0,7,8
 140 130 140 130 205 130 c 2,9,-1
 345 130 l 2,10,11
 443 130 443 130 494 85.5 c 128,-1,12
 545 41 545 41 545 -45 c 0,13,14
 545 -215 545 -215 305 -215 c 0,15,16
 180 -215 180 -215 122.5 -183.5 c 128,-1,17
 65 -152 65 -152 65 -105 c 0,18,19
 65 -73 65 -73 87.5 -51.5 c 128,-1,20
 110 -30 110 -30 150 -30 c 1,21,-1
 190 -35 l 1,22,-1
 190 -175 l 1,23,24
 245 -190 245 -190 295 -190 c 0,25,26
 407 -190 407 -190 458.5 -157.5 c 128,-1,27
 510 -125 510 -125 510 -75 c 0,28,29
 510 -43 510 -43 473.5 -26.5 c 128,-1,30
 437 -10 437 -10 345 -10 c 2,31,-1
 205 -10 l 2,32,33
 65 -10 65 -10 65 95 c 0,34,35
 65 127 65 127 88 157.5 c 128,-1,36
 111 188 111 188 140 205 c 1,37,38
 103 219 103 219 76.5 253 c 128,-1,39
 50 287 50 287 50 345 c 0,40,41
 50 430 50 430 108.5 472.5 c 128,-1,42
 167 515 167 515 295 515 c 0,43,44
 343 515 343 515 403.5 502.5 c 128,-1,45
 464 490 464 490 495 475 c 1,46,47
 509.888888889 519.666666667 509.888888889 519.666666667 551.5 537.5 c 0,48,49
 569 545 569 545 590 545 c 0,50,51
 628 545 628 545 651.5 520.5 c 128,-1,52
 675 496 675 496 675 457.5 c 128,-1,53
 675 419 675 419 658.5 399.5 c 128,-1,54
 642 380 642 380 615 380 c 1,55,-1
 570 385 l 1,56,-1
 570 520 l 1,57,58
 554 520 554 520 540.5 505 c 128,-1,59
 527 490 527 490 521 475 c 2,60,-1
 515 460 l 1,61,62
 540 420 540 420 540 345 c 0,0,1
365 465.5 m 2,63,-1
 360 485 l 1,64,65
 330 495 330 495 294 495 c 128,-1,66
 258 495 258 495 234 458.5 c 128,-1,67
 210 422 210 422 210 346.5 c 128,-1,68
 210 271 210 271 234 235.5 c 128,-1,69
 258 200 258 200 295 200 c 128,-1,70
 332 200 332 200 356 235.5 c 128,-1,71
 380 271 380 271 380 339 c 128,-1,72
 380 407 380 407 365 465.5 c 2,63,-1
EndSplineSet
EndChar

StartChar: h
Encoding: 104 104 12
Width: 710
Flags: HMW
HStem: 0 21G<30 350 30 30 530 570 570 700> 480 35<387.5 402.5> 480 220<30 402.5>
VStem: 110 170<25 385 434 580> 450 170<120 350 25 397.5>
LayerCount: 2
Fore
SplineSet
110 25 m 1,0,-1
 110 675 l 1,1,-1
 30 685 l 1,2,-1
 30 700 l 1,3,-1
 160 700 l 2,4,5
 280 700 280 700 280 580 c 2,6,-1
 280 434 l 1,7,8
 336 515 336 515 427.5 515 c 0,9,10
 519 515 519 515 569.5 472 c 128,-1,11
 620 429 620 429 620 350 c 2,12,-1
 620 25 l 1,13,-1
 700 15 l 1,14,-1
 700 0 l 1,15,-1
 570 0 l 2,16,17
 450 0 450 0 450 120 c 2,18,-1
 450 350 l 2,19,20
 450 417 450 417 432 448.5 c 128,-1,21
 414 480 414 480 384 480 c 0,22,23
 354 480 354 480 327.5 456 c 128,-1,24
 301 432 301 432 290.5 408.5 c 2,25,-1
 280 385 l 1,26,-1
 280 25 l 1,27,-1
 350 15 l 1,28,-1
 350 0 l 1,29,-1
 30 0 l 1,30,-1
 30 15 l 1,31,-1
 110 25 l 1,0,-1
EndSplineSet
EndChar

StartChar: j
Encoding: 106 106 13
Width: 390
Flags: HMW
HStem: -215 25<32.5 65 32.5 140> -215 180<-62.5 140> 480 20G<50 180 180 220> 540 170<192.5 237.5>
VStem: -120 125<-147.5 -90> 130 170<0 380 602.5 647.5>
LayerCount: 2
Fore
SplineSet
130 625 m 128,-1,1
 130 659 130 659 155.5 684.5 c 128,-1,2
 181 710 181 710 215 710 c 128,-1,3
 249 710 249 710 274.5 684.5 c 128,-1,4
 300 659 300 659 300 625 c 128,-1,5
 300 591 300 591 274.5 565.5 c 128,-1,6
 249 540 249 540 215 540 c 128,-1,7
 181 540 181 540 155.5 565.5 c 128,-1,0
 130 591 130 591 130 625 c 128,-1,1
130 0 m 2,8,-1
 130 475 l 1,9,-1
 50 485 l 1,10,-1
 50 500 l 1,11,-1
 180 500 l 2,12,13
 300 500 300 500 300 380 c 2,14,-1
 300 0 l 2,15,16
 300 -101 300 -101 238 -158 c 128,-1,17
 176 -215 176 -215 79 -215 c 0,18,19
 -120 -215 -120 -215 -120 -110 c 0,20,21
 -120 -78 -120 -78 -97.5 -56.5 c 128,-1,22
 -75 -35 -75 -35 -35 -35 c 1,23,-1
 5 -40 l 1,24,-1
 5 -185 l 1,25,26
 25 -190 25 -190 40 -190 c 0,27,28
 83 -190 83 -190 106.5 -150.5 c 128,-1,29
 130 -111 130 -111 130 0 c 2,8,-1
EndSplineSet
EndChar

StartChar: r
Encoding: 114 114 14
Width: 580
Flags: HMW
HStem: 0 21G<40 370 40 40> 335 170<462.5 480 387.5 502.5> 480 20G 480 25<392.5 430>
VStem: 120 170<25 385> 430 130<390 440 390 480 390 480>
LayerCount: 2
Fore
SplineSet
290 25 m 1,0,-1
 370 15 l 1,1,-1
 370 0 l 1,2,-1
 40 0 l 1,3,-1
 40 15 l 1,4,-1
 120 25 l 1,5,-1
 120 475 l 1,6,-1
 40 485 l 1,7,-1
 40 500 l 1,8,-1
 135 500 l 2,9,10
 167 500 167 500 193 489.5 c 128,-1,11
 219 479 219 479 232.5 464.5 c 0,12,13
 260.015267176 434.946564885 260.015267176 434.946564885 267 410.5 c 2,14,-1
 270 400 l 1,15,16
 273 404 273 404 278 411 c 128,-1,17
 283 418 283 418 299.5 436.5 c 128,-1,18
 316 455 316 455 334.5 468.5 c 128,-1,19
 353 482 353 482 382 493.5 c 128,-1,20
 411 505 411 505 440 505 c 0,21,22
 560 505 560 505 560 410 c 0,23,24
 560 378 560 378 537.5 356.5 c 128,-1,25
 515 335 515 335 475 335 c 1,26,-1
 430 340 l 1,27,-1
 430 480 l 1,28,29
 397 480 397 480 362 456 c 128,-1,30
 327 432 327 432 308.5 408.5 c 2,31,-1
 290 385 l 1,32,-1
 290 25 l 1,0,-1
EndSplineSet
EndChar

StartChar: t
Encoding: 116 116 15
Width: 470
Flags: HMW
HStem: -16 26<320 352.5> 475 25 475 175
VStem: 90 170<175 470 500 530>
LayerCount: 2
Fore
SplineSet
300 -16 m 0,0,1
 197 -16 197 -16 143.5 35 c 128,-1,2
 90 86 90 86 90 175 c 2,3,-1
 90 470 l 1,4,-1
 10 480 l 1,5,-1
 10 500 l 1,6,-1
 90 500 l 1,7,-1
 90 645 l 1,8,9
 115 650 115 650 140 650 c 0,10,11
 260 650 260 650 260 530 c 2,12,-1
 260 500 l 1,13,-1
 430 500 l 1,14,-1
 430 480 l 1,15,-1
 260 470 l 1,16,-1
 260 175 l 2,17,18
 260 88 260 88 283 49 c 128,-1,19
 306 10 306 10 340.5 10 c 0,20,21
 375 10 375 10 401.5 40 c 128,-1,22
 428 70 428 70 435 125 c 1,23,-1
 460 120 l 1,24,25
 444 48 444 48 409.5 16 c 128,-1,26
 375 -16 375 -16 300 -16 c 0,0,1
EndSplineSet
EndChar

StartChar: x
Encoding: 120 120 16
Width: 585
Flags: HMW
HStem: 0 21G<10 235 10 10 400 435 435 585> 480 20G<0 150 150 185 340 575 575 575>
LayerCount: 2
Fore
SplineSet
55 475 m 1,0,-1
 0 485 l 1,1,-1
 0 500 l 1,2,-1
 150 500 l 2,3,4
 198 500 198 500 227 476.5 c 128,-1,5
 256 453 256 453 290 400 c 2,6,-1
 333 333 l 1,7,-1
 436 470 l 1,8,-1
 340 485 l 1,9,-1
 340 500 l 1,10,-1
 575 500 l 1,11,-1
 575 485 l 1,12,-1
 471 470 l 1,13,-1
 349 308 l 1,14,-1
 530 25 l 1,15,-1
 585 15 l 1,16,-1
 585 0 l 1,17,-1
 435 0 l 2,18,19
 387 0 387 0 358 23.5 c 128,-1,20
 329 47 329 47 295 100 c 2,21,-1
 247 174 l 1,22,-1
 139 30 l 1,23,-1
 235 15 l 1,24,-1
 235 0 l 1,25,-1
 10 0 l 1,26,-1
 10 15 l 1,27,-1
 104 30 l 1,28,-1
 231 199 l 1,29,-1
 55 475 l 1,0,-1
EndSplineSet
EndChar

StartChar: k
Encoding: 107 107 17
Width: 645
Flags: HMW
HStem: 0 21G<30 360 30 30 480 510 510 655> 480 20G<390 615 615 615> 680 20G<30 160 160 200>
VStem: 110 170<25 230 260 580>
LayerCount: 2
Fore
SplineSet
280 25 m 1,0,-1
 360 15 l 1,1,-1
 360 0 l 1,2,-1
 30 0 l 1,3,-1
 30 15 l 1,4,-1
 110 25 l 1,5,-1
 110 675 l 1,6,-1
 30 685 l 1,7,-1
 30 700 l 1,8,-1
 160 700 l 2,9,10
 280 700 280 700 280 580 c 2,11,-1
 280 260 l 1,12,-1
 485 470 l 1,13,-1
 390 485 l 1,14,-1
 390 500 l 1,15,-1
 615 500 l 1,16,-1
 615 485 l 1,17,-1
 520 470 l 1,18,-1
 390 337 l 1,19,-1
 600 25 l 1,20,-1
 655 15 l 1,21,-1
 655 0 l 1,22,-1
 510 0 l 2,23,24
 466 0 466 0 436 21 c 128,-1,25
 406 42 406 42 370 95 c 2,26,-1
 280 230 l 1,27,-1
 280 25 l 1,0,-1
EndSplineSet
EndChar

StartChar: p
Encoding: 112 112 18
Width: 660
Flags: HMW
HStem: -200 215<340 350> -15 30<362.5 385 340 460> 480 20 480 35<347.5 387.5>
VStem: 100 170<-175 30 60 385> 440 170<162.5 337.5>
LayerCount: 2
Fore
SplineSet
270 385 m 1,0,-1
 270 60 l 1,1,-1
 283.5 49 l 2,2,3
 297 38 297 38 319.5 26.5 c 128,-1,4
 342 15 342 15 360 15 c 0,5,6
 440 15 440 15 440 247.5 c 128,-1,7
 440 480 440 480 365 480 c 0,8,9
 338 480 338 480 314.5 456 c 128,-1,10
 291 432 291 432 280.5 408.5 c 2,11,-1
 270 385 l 1,0,-1
20 -185 m 1,12,-1
 100 -175 l 1,13,-1
 100 475 l 1,14,-1
 20 485 l 1,15,-1
 20 500 l 1,16,-1
 115 500 l 2,17,18
 147 500 147 500 173 489.5 c 128,-1,19
 199 479 199 479 212.5 464.5 c 0,20,21
 240.015267176 434.946564885 240.015267176 434.946564885 247 410.5 c 2,22,-1
 250 400 l 1,23,-1
 255 412.5 l 2,24,25
 258 420 258 420 271.5 440 c 128,-1,26
 285 460 285 460 301 475 c 128,-1,27
 317 490 317 490 345 502.5 c 128,-1,28
 373 515 373 515 406 515 c 128,-1,29
 439 515 439 515 473.5 499 c 128,-1,30
 508 483 508 483 539 452.5 c 128,-1,31
 570 422 570 422 590 369 c 128,-1,32
 610 316 610 316 610 250 c 0,33,34
 610 117 610 117 552.5 51 c 128,-1,35
 495 -15 495 -15 400 -15 c 0,36,37
 367 -15 367 -15 334.5 -4 c 128,-1,38
 302 7 302 7 286 18.5 c 2,39,-1
 270 30 l 1,40,-1
 270 -175 l 1,41,-1
 350 -185 l 1,42,-1
 350 -200 l 1,43,-1
 20 -200 l 1,44,-1
 20 -185 l 1,12,-1
EndSplineSet
EndChar

StartChar: q
Encoding: 113 113 19
Width: 650
Flags: HMW
HStem: -200 215<310 320 275 640 310 310> -15 30<275 297.5> 480 20 480 35<272.5 312.5 212.5 325>
VStem: 50 170<162.5 337.5 162.5 342.5> 390 170<-175 30 30 30 60 385 385 385>
LayerCount: 2
Fore
SplineSet
390 60 m 1,0,-1
 390 385 l 1,1,2
 387.95 393.2 387.95 393.2 376.475 413.6 c 128,-1,3
 365 434 365 434 354.5 446.5 c 0,4,5
 326.36 480 326.36 480 295 480 c 0,6,7
 220 480 220 480 220 247.5 c 128,-1,8
 220 15 220 15 300 15 c 0,9,10
 318 15 318 15 340.5 26.5 c 128,-1,11
 363 38 363 38 376.5 49 c 2,12,-1
 390 60 l 1,0,-1
560 -175 m 1,13,-1
 640 -185 l 1,14,-1
 640 -200 l 1,15,-1
 310 -200 l 1,16,-1
 310 -185 l 1,17,-1
 390 -175 l 1,18,-1
 390 30 l 1,19,20
 369.947368421 13.2894736842 369.947368421 13.2894736842 331.473684211 -0.855263157895 c 128,-1,21
 293 -15 293 -15 260 -15 c 0,22,23
 165 -15 165 -15 107.5 51 c 128,-1,24
 50 117 50 117 50 250 c 0,25,26
 50 316 50 316 70 369 c 128,-1,27
 90 422 90 422 121 452.5 c 0,28,29
 184.524590164 515 184.524590164 515 255 515 c 0,30,31
 287 515 287 515 315 503 c 128,-1,32
 343 491 343 491 359.5 474.5 c 0,33,34
 392.857142857 441.142857143 392.857142857 441.142857143 405 412 c 2,35,-1
 410 400 l 1,36,37
 425.774193548 463.096774194 425.774193548 463.096774194 487 489 c 0,38,39
 513 500 513 500 545 500 c 2,40,-1
 560 500 l 1,41,-1
 560 -175 l 1,13,-1
EndSplineSet
EndChar

StartChar: s
Encoding: 115 115 20
Width: 580
Flags: HMW
HStem: -15 25<260 315 255 390> 0 21G<55 75 55 55> 480 20G<495 515 515 515> 490 25<262.5 315 190 318.5>
VStem: 50 160<407.5 417.5> 370 160<82.5 95>
LayerCount: 2
Fore
SplineSet
210 425 m 0,0,1
 210 379 210 379 280 340 c 2,2,-1
 440 250 l 2,3,4
 478 229 478 229 504 195.5 c 128,-1,5
 530 162 530 162 530 120 c 0,6,7
 530 60 530 60 476 22.5 c 128,-1,8
 422 -15 422 -15 315 -15 c 0,9,10
 266 -15 266 -15 222.5 2.5 c 128,-1,11
 179 20 179 20 159.5 37.5 c 2,12,-1
 140 55 l 1,13,14
 140 48.8 140 48.8 134 37.4 c 128,-1,15
 128 26 128 26 121.5 19 c 0,16,17
 103.857142857 5.3290705182e-15 103.857142857 5.3290705182e-15 75 0 c 2,18,-1
 55 0 l 1,19,-1
 55 175 l 1,20,-1
 105 175 l 1,21,22
 123 103 123 103 178.5 56.5 c 128,-1,23
 234 10 234 10 290 10 c 0,24,25
 327 10 327 10 348.5 29.5 c 128,-1,26
 370 49 370 49 370 80 c 0,27,28
 370 121 370 121 300 160 c 2,29,-1
 140 250 l 2,30,31
 102 271 102 271 76 304.5 c 128,-1,32
 50 338 50 338 50 380 c 0,33,34
 50 440 50 440 104 477.5 c 128,-1,35
 158 515 158 515 265 515 c 0,36,37
 309 515 309 515 350.5 497.5 c 128,-1,38
 392 480 392 480 411 462.5 c 2,39,-1
 430 445 l 1,40,41
 430 451.2 430 451.2 436 462.6 c 128,-1,42
 442 474 442 474 448.5 481 c 0,43,44
 466.142857143 500 466.142857143 500 495 500 c 2,45,-1
 515 500 l 1,46,-1
 515 325 l 1,47,-1
 465 325 l 1,48,49
 447 397 447 397 392.5 443.5 c 128,-1,50
 338 490 338 490 285 490 c 0,51,52
 252 490 252 490 231 471 c 128,-1,53
 210 452 210 452 210 425 c 0,0,1
EndSplineSet
EndChar

StartChar: u
Encoding: 117 117 21
Width: 720
Flags: HMW
HStem: -15 35<307.5 345> 0 20 480 20G<10 140 140 180 350 680 680 680>
VStem: 90 170<150 380> 430 170<115 475 25 475>
LayerCount: 2
Fore
SplineSet
430 475 m 1,0,-1
 350 485 l 1,1,-1
 350 500 l 1,2,-1
 680 500 l 1,3,-1
 680 485 l 1,4,-1
 600 475 l 1,5,-1
 600 25 l 1,6,-1
 680 15 l 1,7,-1
 680 0 l 1,8,-1
 585 0 l 2,9,10
 553 0 553 0 527 10.5 c 128,-1,11
 501 21 501 21 487.5 35.5 c 0,12,13
 459.984732824 65.0534351145 459.984732824 65.0534351145 453 89.5 c 2,14,-1
 450 100 l 1,15,16
 433.636363636 59.0909090909 433.636363636 59.0909090909 395 25 c 0,17,18
 378 10 378 10 348.5 -2.5 c 128,-1,19
 319 -15 319 -15 285 -15 c 0,20,21
 191 -15 191 -15 140.5 28 c 128,-1,22
 90 71 90 71 90 150 c 2,23,-1
 90 475 l 1,24,-1
 10 485 l 1,25,-1
 10 500 l 1,26,-1
 140 500 l 2,27,28
 260 500 260 500 260 380 c 2,29,-1
 260 150 l 2,30,31
 260 83 260 83 278 51.5 c 128,-1,32
 296 20 296 20 325 20 c 128,-1,33
 354 20 354 20 380 44 c 128,-1,34
 406 68 406 68 418 91.5 c 2,35,-1
 430 115 l 1,36,-1
 430 475 l 1,0,-1
EndSplineSet
EndChar

StartChar: v
Encoding: 118 118 22
Width: 610
Flags: HMW
HStem: -10 21G<290 320 290 290> 480 20G<-20 116 116 151 405 630 630 630>
LayerCount: 2
Fore
SplineSet
538 470 m 1,0,-1
 320 -10 l 1,1,-1
 290 -10 l 1,2,-1
 35 475 l 1,3,-1
 -20 485 l 1,4,-1
 -20 500 l 1,5,-1
 116 500 l 2,6,7
 166 500 166 500 197 476 c 128,-1,8
 228 452 228 452 255 400 c 2,9,-1
 371 179 l 1,10,-1
 503 470 l 1,11,-1
 405 485 l 1,12,-1
 405 500 l 1,13,-1
 630 500 l 1,14,-1
 630 485 l 1,15,-1
 538 470 l 1,0,-1
EndSplineSet
EndChar

StartChar: y
Encoding: 121 121 23
Width: 584
Flags: HMW
HStem: -216 25<135 162.5 135 170> -216 175<92.5 107.5 67.5 170> 480 20G<-20 115 115 150 400 624 624 624>
VStem: 10 125<-151 -101>
LayerCount: 2
Fore
SplineSet
533 470 m 1,0,-1
 315 -60 l 2,1,2
 251 -216 251 -216 130 -216 c 0,3,4
 74 -216 74 -216 42 -191 c 128,-1,5
 10 -166 10 -166 10 -127.5 c 0,6,7
 10 -89 10 -89 33 -65 c 128,-1,8
 56 -41 56 -41 95 -41 c 1,9,-1
 135 -46 l 1,10,-1
 135 -191 l 1,11,12
 177 -191 177 -191 216 -156.5 c 128,-1,13
 255 -122 255 -122 280 -60 c 2,14,-1
 296 -20 l 1,15,-1
 35 475 l 1,16,-1
 -20 485 l 1,17,-1
 -20 500 l 1,18,-1
 115 500 l 2,19,20
 165 500 165 500 196.5 476 c 128,-1,21
 228 452 228 452 255 400 c 2,22,-1
 375 172 l 1,23,-1
 498 470 l 1,24,-1
 400 485 l 1,25,-1
 400 500 l 1,26,-1
 624 500 l 1,27,-1
 624 485 l 1,28,-1
 533 470 l 1,0,-1
EndSplineSet
EndChar

StartChar: w
Encoding: 119 119 24
Width: 902
Flags: HMW
HStem: -10 21G<281 311 281 281 598 628 598 598> 480 20G<-20 110 110 145 297 427 427 462 697 922 922 922>
LayerCount: 2
Fore
SplineSet
830 470 m 1,0,-1
 628 -10 l 1,1,-1
 598 -10 l 1,2,-1
 441 300 l 1,3,-1
 311 -10 l 1,4,-1
 281 -10 l 1,5,-1
 36 475 l 1,6,-1
 -20 485 l 1,7,-1
 -20 500 l 1,8,-1
 110 500 l 2,9,10
 200 500 200 500 250 400 c 2,11,-1
 358 186 l 1,12,-1
 422 338 l 1,13,-1
 353 475 l 1,14,-1
 297 485 l 1,15,-1
 297 500 l 1,16,-1
 427 500 l 2,17,18
 517 500 517 500 567 400 c 2,19,-1
 675 186 l 1,20,-1
 795 470 l 1,21,-1
 697 485 l 1,22,-1
 697 500 l 1,23,-1
 922 500 l 1,24,-1
 922 485 l 1,25,-1
 830 470 l 1,0,-1
EndSplineSet
EndChar

StartChar: z
Encoding: 122 122 25
Width: 590
Flags: HMW
HStem: 0 25<235 430 50 50> 475 25<160 355 160 160 65 540>
VStem: 65 95<475 475 475 500 475 500> 430 95<25 25>
LayerCount: 2
Fore
SplineSet
355 475 m 1,0,-1
 160 475 l 1,1,2
 158 433 158 433 141.5 394 c 128,-1,3
 125 355 125 355 110 337.5 c 2,4,-1
 95 320 l 1,5,-1
 65 320 l 1,6,-1
 65 500 l 1,7,-1
 540 500 l 1,8,-1
 540 475 l 1,9,-1
 235 25 l 1,10,-1
 430 25 l 1,11,12
 432 67 432 67 448.5 106 c 128,-1,13
 465 145 465 145 480 162.5 c 2,14,-1
 495 180 l 1,15,-1
 525 180 l 1,16,-1
 525 0 l 1,17,-1
 50 0 l 1,18,-1
 50 25 l 1,19,-1
 355 475 l 1,0,-1
EndSplineSet
EndChar

StartChar: A
Encoding: 65 65 26
Width: 760
Flags: HMW
HStem: 0 230<196 205 -20 436 196 635 196 780> 200 30<196 436 196 449 183 436> 690 20G<375 405 405 405>
LayerCount: 2
Fore
SplineSet
-20 15 m 1,0,-1
 72 30 l 1,1,-1
 375 710 l 1,2,-1
 405 710 l 1,3,-1
 715 25 l 1,4,-1
 780 15 l 1,5,-1
 780 0 l 1,6,-1
 635 0 l 2,7,8
 540 0 540 0 490 110 c 2,9,-1
 449 200 l 1,10,-1
 183 200 l 1,11,-1
 107 30 l 1,12,-1
 205 15 l 1,13,-1
 205 0 l 1,14,-1
 -20 0 l 1,15,-1
 -20 15 l 1,0,-1
315 497 m 1,16,-1
 196 230 l 1,17,-1
 436 230 l 1,18,-1
 315 497 l 1,16,-1
EndSplineSet
EndChar

StartChar: B
Encoding: 66 66 27
Width: 750
Flags: HMW
HStem: 0 25<130 130 300 360 360 380> 675 25<130 130 300 300 300 340>
VStem: 130 170<25 345 25 370 370 675> 500 170<477.5 570> 520 170<132.5 232.5 127.5 237.5>
LayerCount: 2
Fore
SplineSet
300 345 m 1,0,-1
 300 25 l 1,1,-1
 360 25 l 2,2,3
 520 25 520 25 520 185 c 128,-1,4
 520 345 520 345 360 345 c 2,5,-1
 300 345 l 1,0,-1
300 675 m 1,6,-1
 300 370 l 1,7,-1
 340 370 l 2,8,9
 500 370 500 370 500 520 c 0,10,11
 500 595 500 595 459 635 c 128,-1,12
 418 675 418 675 340 675 c 2,13,-1
 300 675 l 1,6,-1
130 25 m 1,14,-1
 130 675 l 1,15,-1
 50 685 l 1,16,-1
 50 700 l 1,17,-1
 360 700 l 2,18,19
 514 700 514 700 592 652.5 c 128,-1,20
 670 605 670 605 670 520 c 0,21,22
 670 452 670 452 618 409.5 c 128,-1,23
 566 367 566 367 455 360 c 1,24,25
 574 353 574 353 632 306.5 c 128,-1,26
 690 260 690 260 690 185 c 0,27,28
 690 97 690 97 612 48.5 c 128,-1,29
 534 0 534 0 380 0 c 2,30,-1
 50 0 l 1,31,-1
 50 15 l 1,32,-1
 130 25 l 1,14,-1
EndSplineSet
EndChar

StartChar: C
Encoding: 67 67 28
Width: 705
Flags: HMW
HStem: -15 25<372.5 465 372.5 467.5> 490 20G<600 645 600 600> 680 20G<625 645 645 645> 690 25<357.5 430 307.5 440>
VStem: 60 175<222.5 477.5 222.5 482.5>
LayerCount: 2
Fore
SplineSet
268 694.5 m 128,-1,1
 321 715 321 715 363.5 715 c 128,-1,2
 406 715 406 715 434.5 707.5 c 128,-1,3
 463 700 463 700 482.5 689 c 0,4,5
 517.909747292 669.025270758 517.909747292 669.025270758 538 647.5 c 2,6,-1
 545 640 l 1,7,8
 558.333333333 663.333333333 558.333333333 663.333333333 581.666666667 681.666666667 c 128,-1,9
 605 700 605 700 625 700 c 2,10,-1
 645 700 l 1,11,-1
 645 510 l 1,12,-1
 600 510 l 1,13,14
 569 582 569 582 513.5 636 c 128,-1,15
 458 690 458 690 394.5 690 c 128,-1,16
 331 690 331 690 283 606.5 c 128,-1,17
 235 523 235 523 235 347.5 c 128,-1,18
 235 172 235 172 287.5 91 c 128,-1,19
 340 10 340 10 420 10 c 0,20,21
 486 10 486 10 545 49.5 c 128,-1,22
 604 89 604 89 632 150 c 1,23,-1
 655 135 l 1,24,25
 576 -15 576 -15 405 -15 c 0,26,27
 272.385542169 -15 272.385542169 -15 171 67.5 c 0,28,29
 120 109 120 109 90 182 c 128,-1,30
 60 255 60 255 60 350 c 128,-1,31
 60 445 60 445 89.5 518 c 128,-1,32
 119 591 119 591 167 632.5 c 128,-1,0
 215 674 215 674 268 694.5 c 128,-1,1
EndSplineSet
EndChar

StartChar: D
Encoding: 68 68 29
Width: 765
Flags: HMW
HStem: 0 25<130 130 300 325 325 330> 675 25<130 130 300 325 300 300>
VStem: 130 170<25 675 25 675> 540 175<230 470>
LayerCount: 2
Fore
SplineSet
325 675 m 2,0,-1
 300 675 l 1,1,-1
 300 25 l 1,2,-1
 325 25 l 2,3,4
 420 25 420 25 480 103 c 128,-1,5
 540 181 540 181 540 350 c 128,-1,6
 540 519 540 519 480 597 c 128,-1,7
 420 675 420 675 325 675 c 2,0,-1
130 25 m 1,8,-1
 130 675 l 1,9,-1
 50 685 l 1,10,-1
 50 700 l 1,11,-1
 330 700 l 2,12,13
 485.679012346 700 485.679012346 700 595 619.5 c 0,14,15
 650 579 650 579 682.5 509.5 c 128,-1,16
 715 440 715 440 715 350 c 128,-1,17
 715 260 715 260 682.5 190.5 c 128,-1,18
 650 121 650 121 595 80.5 c 0,19,20
 485.679012346 2.13162820728e-14 485.679012346 2.13162820728e-14 330 0 c 2,21,-1
 50 0 l 1,22,-1
 50 15 l 1,23,-1
 130 25 l 1,8,-1
EndSplineSet
EndChar

StartChar: E
Encoding: 69 69 30
Width: 705
Flags: HMW
HStem: 0 25<130 130 300 550> 345 25<300 435 300 435> 490 20G<615 645 615 615> 675 25<130 130 300 300 300 550>
VStem: 130 170<25 345 370 675> 550 95<25 25 675 675>
LayerCount: 2
Fore
SplineSet
300 25 m 1,0,-1
 550 25 l 1,1,2
 552 67 552 67 568.5 108.5 c 128,-1,3
 585 150 585 150 600 170 c 2,4,-1
 615 190 l 1,5,-1
 645 190 l 1,6,-1
 645 0 l 1,7,-1
 50 0 l 1,8,-1
 50 15 l 1,9,-1
 130 25 l 1,10,-1
 130 675 l 1,11,-1
 50 685 l 1,12,-1
 50 700 l 1,13,-1
 645 700 l 1,14,-1
 645 510 l 1,15,-1
 615 510 l 1,16,17
 608 518 608 518 598 532 c 128,-1,18
 588 546 588 546 570 589.5 c 128,-1,19
 552 633 552 633 550 675 c 1,20,-1
 300 675 l 1,21,-1
 300 370 l 1,22,-1
 435 370 l 1,23,24
 439 398 439 398 452.5 435.5 c 128,-1,25
 466 473 466 473 480 495 c 1,26,-1
 505 495 l 1,27,-1
 505 220 l 1,28,-1
 480 220 l 1,29,30
 466 242 466 242 452.5 279.5 c 128,-1,31
 439 317 439 317 435 345 c 1,32,-1
 300 345 l 1,33,-1
 300 25 l 1,0,-1
EndSplineSet
EndChar

StartChar: F
Encoding: 70 70 31
Width: 685
Flags: HMW
HStem: 0 21G<50 370 50 50> 325 25<300 435 300 435> 490 20G<615 645 615 615> 675 25<130 130 300 300 300 550>
VStem: 130 170<25 325 350 675> 550 95<675 675>
LayerCount: 2
Fore
SplineSet
300 350 m 1,0,-1
 435 350 l 1,1,2
 439 378 439 378 452.5 415.5 c 128,-1,3
 466 453 466 453 480 475 c 1,4,-1
 505 475 l 1,5,-1
 505 200 l 1,6,-1
 480 200 l 1,7,8
 466 222 466 222 452.5 259.5 c 128,-1,9
 439 297 439 297 435 325 c 1,10,-1
 300 325 l 1,11,-1
 300 25 l 1,12,-1
 370 15 l 1,13,-1
 370 0 l 1,14,-1
 50 0 l 1,15,-1
 50 15 l 1,16,-1
 130 25 l 1,17,-1
 130 675 l 1,18,-1
 50 685 l 1,19,-1
 50 700 l 1,20,-1
 645 700 l 1,21,-1
 645 510 l 1,22,-1
 615 510 l 1,23,24
 608 518 608 518 598 532 c 128,-1,25
 588 546 588 546 570 589.5 c 128,-1,26
 552 633 552 633 550 675 c 1,27,-1
 300 675 l 1,28,-1
 300 350 l 1,0,-1
EndSplineSet
EndChar

StartChar: G
Encoding: 71 71 32
Width: 745
Flags: HMW
HStem: -15 35<347.5 407.5> 0 20 490 20G<600 645 600 600> 680 20G<625 645 645 645> 690 25<357.5 430 307.5 440>
VStem: 60 175<227.5 477.5 227.5 482.5> 485 170<115 325 0 325>
LayerCount: 2
Fore
SplineSet
268 694.5 m 128,-1,1
 321 715 321 715 363.5 715 c 128,-1,2
 406 715 406 715 434.5 707.5 c 128,-1,3
 463 700 463 700 482.5 689 c 0,4,5
 517.909747292 669.025270758 517.909747292 669.025270758 538 647.5 c 2,6,-1
 545 640 l 1,7,8
 558.333333333 663.333333333 558.333333333 663.333333333 581.666666667 681.666666667 c 128,-1,9
 605 700 605 700 625 700 c 2,10,-1
 645 700 l 1,11,-1
 645 510 l 1,12,-1
 600 510 l 1,13,14
 569 582 569 582 513.5 636 c 128,-1,15
 458 690 458 690 394.5 690 c 128,-1,16
 331 690 331 690 283 606.5 c 128,-1,17
 235 523 235 523 235 352.5 c 128,-1,18
 235 182 235 182 279 101 c 128,-1,19
 323 20 323 20 380 20 c 0,20,21
 411 20 411 20 437.5 44 c 128,-1,22
 464 68 464 68 474.5 91.5 c 2,23,-1
 485 115 l 1,24,-1
 485 325 l 1,25,-1
 415 335 l 1,26,-1
 415 350 l 1,27,-1
 725 350 l 1,28,-1
 725 335 l 1,29,-1
 655 325 l 1,30,-1
 655 0 l 1,31,-1
 640 0 l 2,32,33
 608 0 608 0 582 10.5 c 128,-1,34
 556 21 556 21 542.5 35.5 c 0,35,36
 512.748815166 67.4549763033 512.748815166 67.4549763033 507.5 89.5 c 2,37,-1
 505 100 l 1,38,39
 502.882352941 89.4117647059 502.882352941 89.4117647059 487.441176471 64.7058823529 c 128,-1,40
 472 40 472 40 455.5 25 c 128,-1,41
 439 10 439 10 409.5 -2.5 c 128,-1,42
 380 -15 380 -15 339.5 -15 c 128,-1,43
 299 -15 299 -15 251.5 5.5 c 128,-1,44
 204 26 204 26 160 67 c 128,-1,45
 116 108 116 108 88 182 c 128,-1,46
 60 256 60 256 60 350.5 c 128,-1,47
 60 445 60 445 89.5 518 c 128,-1,48
 119 591 119 591 167 632.5 c 128,-1,0
 215 674 215 674 268 694.5 c 128,-1,1
EndSplineSet
EndChar

StartChar: H
Encoding: 72 72 33
Width: 835
Flags: HMW
HStem: 0 21G<50 380 50 50 455 785 455 455> 345 25<300 535 300 535> 680 20G<50 380 380 380 455 785 785 785>
VStem: 130 170<25 345 370 675> 535 170<25 345 345 345 370 675 25 675>
LayerCount: 2
Fore
SplineSet
300 675 m 1,0,-1
 300 370 l 1,1,-1
 535 370 l 1,2,-1
 535 675 l 1,3,-1
 455 685 l 1,4,-1
 455 700 l 1,5,-1
 785 700 l 1,6,-1
 785 685 l 1,7,-1
 705 675 l 1,8,-1
 705 25 l 1,9,-1
 785 15 l 1,10,-1
 785 0 l 1,11,-1
 455 0 l 1,12,-1
 455 15 l 1,13,-1
 535 25 l 1,14,-1
 535 345 l 1,15,-1
 300 345 l 1,16,-1
 300 25 l 1,17,-1
 380 15 l 1,18,-1
 380 0 l 1,19,-1
 50 0 l 1,20,-1
 50 15 l 1,21,-1
 130 25 l 1,22,-1
 130 675 l 1,23,-1
 50 685 l 1,24,-1
 50 700 l 1,25,-1
 380 700 l 1,26,-1
 380 685 l 1,27,-1
 300 675 l 1,0,-1
EndSplineSet
EndChar

StartChar: I
Encoding: 73 73 34
Width: 430
Flags: HMW
HStem: 0 21G<50 380 50 50> 680 20G<50 380 380 380>
VStem: 130 170<25 675 25 675>
LayerCount: 2
Fore
SplineSet
300 675 m 1,0,-1
 300 25 l 1,1,-1
 380 15 l 1,2,-1
 380 0 l 1,3,-1
 50 0 l 1,4,-1
 50 15 l 1,5,-1
 130 25 l 1,6,-1
 130 675 l 1,7,-1
 50 685 l 1,8,-1
 50 700 l 1,9,-1
 380 700 l 1,10,-1
 380 685 l 1,11,-1
 300 675 l 1,0,-1
EndSplineSet
EndChar

StartChar: J
Encoding: 74 74 35
Width: 630
Flags: HMW
HStem: -15 25<197.5 262.5 197.5 335> 680 20G<260 590 590 590>
VStem: 10 130<82.5 135> 340 170<210 675>
LayerCount: 2
Fore
SplineSet
442.5 45.5 m 128,-1,1
 375 -15 375 -15 257.5 -15 c 128,-1,2
 140 -15 140 -15 75 24 c 128,-1,3
 10 63 10 63 10 115 c 0,4,5
 10 147 10 147 32.5 168.5 c 128,-1,6
 55 190 55 190 95 190 c 1,7,-1
 140 185 l 1,8,-1
 140 25 l 1,9,10
 170 10 170 10 227.5 10 c 128,-1,11
 285 10 285 10 312.5 52.5 c 128,-1,12
 340 95 340 95 340 210 c 2,13,-1
 340 675 l 1,14,-1
 260 685 l 1,15,-1
 260 700 l 1,16,-1
 590 700 l 1,17,-1
 590 685 l 1,18,-1
 510 675 l 1,19,-1
 510 210 l 2,20,0
 510 106 510 106 442.5 45.5 c 128,-1,1
EndSplineSet
EndChar

StartChar: K
Encoding: 75 75 36
Width: 750
Flags: HMW
HStem: 0 21G<50 380 50 50 575.5 605 605 760> 680 20G<50 380 380 380 480 705 705 705>
VStem: 130 170<25 320 360 675>
LayerCount: 2
Fore
SplineSet
300 675 m 1,0,-1
 300 360 l 1,1,-1
 575 670 l 1,2,-1
 480 685 l 1,3,-1
 480 700 l 1,4,-1
 705 700 l 1,5,-1
 705 685 l 1,6,-1
 610 670 l 1,7,-1
 408 442 l 1,8,-1
 705 25 l 1,9,-1
 760 15 l 1,10,-1
 760 0 l 1,11,-1
 605 0 l 2,12,13
 562 0 562 0 528 23 c 128,-1,14
 494 46 494 46 456 100 c 2,15,-1
 300 320 l 1,16,-1
 300 25 l 1,17,-1
 380 15 l 1,18,-1
 380 0 l 1,19,-1
 50 0 l 1,20,-1
 50 15 l 1,21,-1
 130 25 l 1,22,-1
 130 675 l 1,23,-1
 50 685 l 1,24,-1
 50 700 l 1,25,-1
 380 700 l 1,26,-1
 380 685 l 1,27,-1
 300 675 l 1,0,-1
EndSplineSet
EndChar

StartChar: L
Encoding: 76 76 37
Width: 685
Flags: HMW
HStem: 0 25<130 130 300 550> 680 20G<50 370 370 370>
VStem: 130 170<25 675 25 675> 550 95<25 25>
LayerCount: 2
Fore
SplineSet
645 0 m 1,0,-1
 50 0 l 1,1,-1
 50 15 l 1,2,-1
 130 25 l 1,3,-1
 130 675 l 1,4,-1
 50 685 l 1,5,-1
 50 700 l 1,6,-1
 370 700 l 1,7,-1
 370 685 l 1,8,-1
 300 675 l 1,9,-1
 300 25 l 1,10,-1
 550 25 l 1,11,12
 552 67 552 67 568.5 108.5 c 128,-1,13
 585 150 585 150 600 170 c 2,14,-1
 615 190 l 1,15,-1
 645 190 l 1,16,-1
 645 0 l 1,0,-1
EndSplineSet
EndChar

StartChar: M
Encoding: 77 77 38
Width: 1065
Flags: HMW
HStem: -10 21G<486 516 486 486> 0 21G<50 275 50 50 685 1015 685 685> 680 20G<60 210 210 245 880 1015 1015 1015>
VStem: 140 35<30 565 30 675> 765 170<25 580 580 580>
LayerCount: 2
Fore
SplineSet
880 700 m 2,0,-1
 1015 700 l 1,1,-1
 1015 685 l 1,2,-1
 935 675 l 1,3,-1
 935 25 l 1,4,-1
 1015 15 l 1,5,-1
 1015 0 l 1,6,-1
 685 0 l 1,7,-1
 685 15 l 1,8,-1
 765 25 l 1,9,-1
 765 580 l 1,10,-1
 516 -10 l 1,11,-1
 486 -10 l 1,12,-1
 175 565 l 1,13,-1
 175 30 l 1,14,-1
 275 15 l 1,15,-1
 275 0 l 1,16,-1
 50 0 l 1,17,-1
 50 15 l 1,18,-1
 140 30 l 1,19,-1
 140 675 l 1,20,-1
 60 685 l 1,21,-1
 60 700 l 1,22,-1
 210 700 l 2,23,24
 260 700 260 700 291 676 c 128,-1,25
 322 652 322 652 350 600 c 2,26,-1
 570 195 l 1,27,-1
 740 600 l 2,28,29
 762 653 762 653 795 676.5 c 128,-1,30
 828 700 828 700 880 700 c 2,0,-1
EndSplineSet
EndChar

StartChar: O
Encoding: 79 79 39
Width: 780
Flags: HMW
HStem: -15 20<355 425 355 467.5> 695 20<355 425>
VStem: 60 175<220 480 220 482.5> 545 175<220 480>
LayerCount: 2
Fore
SplineSet
235 350 m 128,-1,1
 235 172 235 172 281.5 88.5 c 128,-1,2
 328 5 328 5 390 5 c 128,-1,3
 452 5 452 5 498.5 88.5 c 128,-1,4
 545 172 545 172 545 350 c 128,-1,5
 545 528 545 528 498.5 611.5 c 128,-1,6
 452 695 452 695 390 695 c 128,-1,7
 328 695 328 695 281.5 611.5 c 128,-1,0
 235 528 235 528 235 350 c 128,-1,1
720 350 m 128,-1,9
 720 255 720 255 690.5 182 c 128,-1,10
 661 109 661 109 612.5 67.5 c 128,-1,11
 564 26 564 26 507.5 5.5 c 128,-1,12
 451 -15 451 -15 390 -15 c 128,-1,13
 329 -15 329 -15 272.5 5.5 c 128,-1,14
 216 26 216 26 167.5 67.5 c 128,-1,15
 119 109 119 109 89.5 182 c 128,-1,16
 60 255 60 255 60 350 c 128,-1,17
 60 445 60 445 89.5 518 c 128,-1,18
 119 591 119 591 167.5 632.5 c 128,-1,19
 216 674 216 674 272.5 694.5 c 128,-1,20
 329 715 329 715 390 715 c 128,-1,21
 451 715 451 715 507.5 694.5 c 128,-1,22
 564 674 564 674 612.5 632.5 c 128,-1,23
 661 591 661 591 690.5 518 c 128,-1,8
 720 445 720 445 720 350 c 128,-1,9
EndSplineSet
EndChar

StartChar: N
Encoding: 78 78 40
Width: 815
Flags: HMW
HStem: -10 21G<660 695 660 660> 0 21G<50 275 50 50> 680 20G<60 165 165 197.5 560 785 785 785>
VStem: 140 35<30 505 30 675> 660 35<-10 -10 245 670>
LayerCount: 2
Fore
SplineSet
695 -10 m 1,0,-1
 660 -10 l 1,1,-1
 175 505 l 1,2,-1
 175 30 l 1,3,-1
 275 15 l 1,4,-1
 275 0 l 1,5,-1
 50 0 l 1,6,-1
 50 15 l 1,7,-1
 140 30 l 1,8,-1
 140 675 l 1,9,-1
 60 685 l 1,10,-1
 60 700 l 1,11,-1
 165 700 l 2,12,13
 210 700 210 700 241.5 678.5 c 128,-1,14
 273 657 273 657 327 600 c 2,15,-1
 660 245 l 1,16,-1
 660 670 l 1,17,-1
 560 685 l 1,18,-1
 560 700 l 1,19,-1
 785 700 l 1,20,-1
 785 685 l 1,21,-1
 695 670 l 1,22,-1
 695 -10 l 1,0,-1
EndSplineSet
EndChar

StartChar: P
Encoding: 80 80 41
Width: 710
Flags: HMW
HStem: 0 21G<50 380 50 50> 270 25<300 350 350 370 300 350> 675 25<130 130 300 350 300 300>
VStem: 130 170<25 270 25 295 295 675> 510 170<422.5 547.5>
LayerCount: 2
Fore
SplineSet
300 295 m 1,0,-1
 350 295 l 2,1,2
 510 295 510 295 510 485 c 128,-1,3
 510 675 510 675 350 675 c 2,4,-1
 300 675 l 1,5,-1
 300 295 l 1,0,-1
370 270 m 2,6,-1
 300 270 l 1,7,-1
 300 25 l 1,8,-1
 380 15 l 1,9,-1
 380 0 l 1,10,-1
 50 0 l 1,11,-1
 50 15 l 1,12,-1
 130 25 l 1,13,-1
 130 675 l 1,14,-1
 50 685 l 1,15,-1
 50 700 l 1,16,-1
 370 700 l 2,17,18
 525 700 525 700 602.5 644 c 128,-1,19
 680 588 680 588 680 485 c 128,-1,20
 680 382 680 382 602.5 326 c 128,-1,21
 525 270 525 270 370 270 c 2,6,-1
EndSplineSet
EndChar

StartChar: Q
Encoding: 81 81 42
Width: 780
Flags: HMW
HStem: -170 20<552.5 585 552.5 585> -170 175<355 585> 695 20<355 425>
VStem: 60 175<241 480 220 482.5> 545 175<241.5 480>
LayerCount: 2
Fore
SplineSet
720 350 m 0,0,1
 720 198 720 198 650.5 110 c 128,-1,2
 581 22 581 22 475 -4 c 1,3,4
 482 -150 482 -150 585 -150 c 1,5,-1
 585 -170 l 1,6,7
 452 -170 452 -170 384 -126 c 128,-1,8
 316 -82 316 -82 306 -5 c 1,9,10
 199 21 199 21 129.5 109 c 128,-1,11
 60 197 60 197 60 350 c 0,12,13
 60 445 60 445 89.5 518 c 128,-1,14
 119 591 119 591 167.5 632.5 c 128,-1,15
 216 674 216 674 272.5 694.5 c 128,-1,16
 329 715 329 715 390 715 c 128,-1,17
 451 715 451 715 507.5 694.5 c 128,-1,18
 564 674 564 674 612.5 632.5 c 128,-1,19
 661 591 661 591 690.5 518 c 128,-1,20
 720 445 720 445 720 350 c 0,0,1
235 350 m 128,-1,22
 235 172 235 172 281.5 88.5 c 128,-1,23
 328 5 328 5 390 5 c 128,-1,24
 452 5 452 5 498.5 88.5 c 128,-1,25
 545 172 545 172 545 350 c 128,-1,26
 545 528 545 528 498.5 611.5 c 128,-1,27
 452 695 452 695 390 695 c 128,-1,28
 328 695 328 695 281.5 611.5 c 128,-1,21
 235 528 235 528 235 350 c 128,-1,22
EndSplineSet
EndChar

StartChar: R
Encoding: 82 82 43
Width: 745
Flags: HMW
HStem: 0 21G<50 380 50 50 575 610 610 745> 675 25<130 130 300 360 300 300>
VStem: 130 170<25 310 25 335 335 675> 500 170<452.5 557.5>
LayerCount: 2
Fore
SplineSet
300 335 m 1,0,-1
 360 335 l 2,1,2
 424 335 424 335 462 381 c 128,-1,3
 500 427 500 427 500 505 c 128,-1,4
 500 583 500 583 462 629 c 128,-1,5
 424 675 424 675 360 675 c 2,6,-1
 300 675 l 1,7,-1
 300 335 l 1,0,-1
335 310 m 1,8,-1
 300 310 l 1,9,-1
 300 25 l 1,10,-1
 380 15 l 1,11,-1
 380 0 l 1,12,-1
 50 0 l 1,13,-1
 50 15 l 1,14,-1
 130 25 l 1,15,-1
 130 675 l 1,16,-1
 50 685 l 1,17,-1
 50 700 l 1,18,-1
 380 700 l 2,19,20
 519 700 519 700 594.5 647 c 128,-1,21
 670 594 670 594 670 508 c 128,-1,22
 670 422 670 422 611 374.5 c 128,-1,23
 552 327 552 327 440 320 c 1,24,25
 447.25 320 447.25 320 469.125 312.5 c 128,-1,26
 491 305 491 305 507 295.5 c 0,27,28
 548.115537849 271.087649402 548.115537849 271.087649402 575 225 c 2,29,-1
 690 25 l 1,30,-1
 745 15 l 1,31,-1
 745 0 l 1,32,-1
 610 0 l 2,33,34
 558 0 558 0 521.5 23.5 c 128,-1,35
 485 47 485 47 455 100 c 2,36,-1
 335 310 l 1,8,-1
EndSplineSet
EndChar

StartChar: T
Encoding: 84 84 44
Width: 700
Flags: HMW
HStem: 0 21G<185 515 185 185> 510 190<40 70 40 660 630 660 630 630> 675 25<135 265 135 135 435 565 435 435>
VStem: 40 95<675 675 675 700 675 700> 265 170<25 675 25 675> 565 95<675 675>
CounterMasks: 1 1c
LayerCount: 2
Fore
SplineSet
660 700 m 1,0,-1
 660 510 l 1,1,-1
 630 510 l 1,2,3
 623 518 623 518 613 532 c 128,-1,4
 603 546 603 546 585 589.5 c 128,-1,5
 567 633 567 633 565 675 c 1,6,-1
 435 675 l 1,7,-1
 435 25 l 1,8,-1
 515 15 l 1,9,-1
 515 0 l 1,10,-1
 185 0 l 1,11,-1
 185 15 l 1,12,-1
 265 25 l 1,13,-1
 265 675 l 1,14,-1
 135 675 l 1,15,16
 133 633 133 633 116.5 591.5 c 128,-1,17
 100 550 100 550 85 530 c 2,18,-1
 70 510 l 1,19,-1
 40 510 l 1,20,-1
 40 700 l 1,21,-1
 660 700 l 1,0,-1
EndSplineSet
EndChar

StartChar: S
Encoding: 83 83 45
Width: 675
Flags: HMW
HStem: -15 25<292.5 365 280 447.5> 0 21G<65 85 65 65> 490 20G<550 595 550 550> 680 20G<575 595 595 595> 690 25<305 370 222.5 382.5>
VStem: 60 175<562.5 595> 440 175<107.5 142.5>
LayerCount: 2
Fore
SplineSet
262.5 662.5 m 128,-1,1
 235 635 235 635 235 593.5 c 128,-1,2
 235 552 235 552 257 522.5 c 128,-1,3
 279 493 279 493 325 460 c 2,4,-1
 485 345 l 1,5,6
 615 253 615 253 615 160 c 0,7,8
 615 -15 615 -15 350 -15 c 0,9,10
 267.086956522 -15 267.086956522 -15 197.5 33.5 c 0,11,12
 181 45 181 45 173 52.5 c 2,13,-1
 165 60 l 1,14,15
 151.666666667 36.6666666667 151.666666667 36.6666666667 128.333333333 18.3333333333 c 128,-1,16
 105 0 105 0 85 0 c 2,17,-1
 65 0 l 1,18,-1
 65 190 l 1,19,-1
 110 190 l 1,20,21
 140 121 140 121 200.5 65.5 c 128,-1,22
 261 10 261 10 330 10 c 0,23,24
 382 10 382 10 411 38 c 128,-1,25
 440 66 440 66 440 109.5 c 128,-1,26
 440 153 440 153 419 179 c 128,-1,27
 398 205 398 205 350 240 c 2,28,-1
 190 355 l 1,29,30
 60 447 60 447 60 545 c 0,31,32
 60 715 60 715 315 715 c 0,33,34
 395.52173913 715 395.52173913 715 463 666.5 c 0,35,36
 479 655 479 655 487 647.5 c 2,37,-1
 495 640 l 1,38,39
 508.333333333 663.333333333 508.333333333 663.333333333 531.666666667 681.666666667 c 128,-1,40
 555 700 555 700 575 700 c 2,41,-1
 595 700 l 1,42,-1
 595 510 l 1,43,-1
 550 510 l 1,44,45
 520 579 520 579 460.5 634.5 c 128,-1,46
 401 690 401 690 335 690 c 0,47,0
 290 690 290 690 262.5 662.5 c 128,-1,1
EndSplineSet
EndChar

StartChar: U
Encoding: 85 85 46
Width: 790
Flags: HMW
HStem: -15 25<407.5 510 407.5 512.5> 680 20G<40 370 370 370 545 770 770 770>
VStem: 120 170<265 675> 645 35<265 670>
LayerCount: 2
Fore
SplineSet
645 265 m 2,0,-1
 645 670 l 1,1,-1
 545 685 l 1,2,-1
 545 700 l 1,3,-1
 770 700 l 1,4,-1
 770 685 l 1,5,-1
 680 670 l 1,6,-1
 680 265 l 2,7,8
 680 133 680 133 614.5 59 c 128,-1,9
 549 -15 549 -15 445 -15 c 0,10,11
 287 -15 287 -15 203.5 60 c 128,-1,12
 120 135 120 135 120 265 c 2,13,-1
 120 675 l 1,14,-1
 40 685 l 1,15,-1
 40 700 l 1,16,-1
 370 700 l 1,17,-1
 370 685 l 1,18,-1
 290 675 l 1,19,-1
 290 265 l 2,20,21
 290 133 290 133 334.5 71.5 c 128,-1,22
 379 10 379 10 459.5 10 c 0,23,24
 540 10 540 10 592.5 77 c 128,-1,25
 645 144 645 144 645 265 c 2,0,-1
EndSplineSet
EndChar

StartChar: V
Encoding: 86 86 47
Width: 715
Flags: HMW
HStem: -10 21G<347 377 347 347> 680 20G<-20 114 114 149 511 735 735 735>
LayerCount: 2
Fore
SplineSet
644 670 m 1,0,-1
 377 -10 l 1,1,-1
 347 -10 l 1,2,-1
 35 675 l 1,3,-1
 -20 685 l 1,4,-1
 -20 700 l 1,5,-1
 114 700 l 2,6,7
 165 700 165 700 198 675.5 c 128,-1,8
 231 651 231 651 254 600 c 2,9,-1
 430 214 l 1,10,-1
 609 670 l 1,11,-1
 511 685 l 1,12,-1
 511 700 l 1,13,-1
 735 700 l 1,14,-1
 735 685 l 1,15,-1
 644 670 l 1,0,-1
EndSplineSet
EndChar

StartChar: X
Encoding: 88 88 48
Width: 710
Flags: HMW
HStem: 0 21G<10 235 10 10 515 550 550 710> 680 20G<0 160 160 195 475 700 700 700>
LayerCount: 2
Fore
SplineSet
55 675 m 1,0,-1
 0 685 l 1,1,-1
 0 700 l 1,2,-1
 160 700 l 2,3,4
 208 700 208 700 238 676 c 128,-1,5
 268 652 268 652 300 600 c 2,6,-1
 399 439 l 1,7,-1
 571 670 l 1,8,-1
 475 685 l 1,9,-1
 475 700 l 1,10,-1
 700 700 l 1,11,-1
 700 685 l 1,12,-1
 606 670 l 1,13,-1
 415 413 l 1,14,-1
 655 25 l 1,15,-1
 710 15 l 1,16,-1
 710 0 l 1,17,-1
 550 0 l 2,18,19
 502 0 502 0 472 24 c 128,-1,20
 442 48 442 48 410 100 c 2,21,-1
 311 260 l 1,22,-1
 139 30 l 1,23,-1
 235 15 l 1,24,-1
 235 0 l 1,25,-1
 10 0 l 1,26,-1
 10 15 l 1,27,-1
 104 30 l 1,28,-1
 295 286 l 1,29,-1
 55 675 l 1,0,-1
EndSplineSet
EndChar

StartChar: Z
Encoding: 90 90 49
Width: 670
Flags: HMW
HStem: 0 25<235 515 40 40> 490 20G<60 90 60 60> 675 25<155 435 155 155 60 630>
VStem: 60 95<675 675 675 700 675 700> 515 95<25 25>
LayerCount: 2
Fore
SplineSet
435 675 m 1,0,-1
 155 675 l 1,1,2
 153 633 153 633 136.5 591.5 c 128,-1,3
 120 550 120 550 105 530 c 2,4,-1
 90 510 l 1,5,-1
 60 510 l 1,6,-1
 60 700 l 1,7,-1
 630 700 l 1,8,-1
 630 675 l 1,9,-1
 235 25 l 1,10,-1
 515 25 l 1,11,12
 517 67 517 67 533.5 108.5 c 128,-1,13
 550 150 550 150 565 170 c 2,14,-1
 580 190 l 1,15,-1
 610 190 l 1,16,-1
 610 0 l 1,17,-1
 40 0 l 1,18,-1
 40 25 l 1,19,-1
 435 675 l 1,0,-1
EndSplineSet
EndChar

StartChar: W
Encoding: 87 87 50
Width: 1070
Flags: HMW
HStem: -10 21G<330 360 330 330 720 750 720 720> 680 20G<-20 110 110 145 370 500 500 535 865 1090 1090 1090>
LayerCount: 2
Fore
SplineSet
998 670 m 1,0,-1
 750 -10 l 1,1,-1
 720 -10 l 1,2,-1
 525 443 l 1,3,-1
 360 -10 l 1,4,-1
 330 -10 l 1,5,-1
 36 675 l 1,6,-1
 -20 685 l 1,7,-1
 -20 700 l 1,8,-1
 110 700 l 2,9,10
 207 700 207 700 250 600 c 2,11,-1
 411 226 l 1,12,-1
 506 487 l 1,13,-1
 426 675 l 1,14,-1
 370 685 l 1,15,-1
 370 700 l 1,16,-1
 500 700 l 2,17,18
 597 700 597 700 640 600 c 2,19,-1
 801 226 l 1,20,-1
 963 670 l 1,21,-1
 865 685 l 1,22,-1
 865 700 l 1,23,-1
 1090 700 l 1,24,-1
 1090 685 l 1,25,-1
 998 670 l 1,0,-1
EndSplineSet
EndChar

StartChar: Y
Encoding: 89 89 51
Width: 675
Flags: HMW
HStem: 0 21G<180 510 180 180> 680 20G<-20 120 120 155 480 705 705 705>
VStem: 260 170<25 265 265 265>
LayerCount: 2
Fore
SplineSet
35 675 m 1,0,-1
 -20 685 l 1,1,-1
 -20 700 l 1,2,-1
 120 700 l 2,3,4
 170 700 170 700 200 676.5 c 128,-1,5
 230 653 230 653 260 600 c 2,6,-1
 410 330 l 1,7,-1
 577 670 l 1,8,-1
 480 685 l 1,9,-1
 480 700 l 1,10,-1
 705 700 l 1,11,-1
 705 685 l 1,12,-1
 612 670 l 1,13,-1
 430 295 l 1,14,-1
 430 25 l 1,15,-1
 510 15 l 1,16,-1
 510 0 l 1,17,-1
 180 0 l 1,18,-1
 180 15 l 1,19,-1
 260 25 l 1,20,-1
 260 265 l 1,21,-1
 35 675 l 1,0,-1
EndSplineSet
EndChar

StartChar: zero
Encoding: 48 48 52
Width: 710
Flags: HMW
HStem: -15 20<325 385 325 437.5> 695 20<325 385>
VStem: 60 175<232.5 467.5> 475 175<232.5 467.5 232.5 485>
LayerCount: 2
Fore
SplineSet
235 350 m 128,-1,1
 235 253 235 253 245 183 c 128,-1,2
 255 113 255 113 272.5 75.5 c 128,-1,3
 290 38 290 38 310.5 21.5 c 128,-1,4
 331 5 331 5 355 5 c 128,-1,5
 379 5 379 5 399.5 21.5 c 128,-1,6
 420 38 420 38 437.5 75.5 c 128,-1,7
 455 113 455 113 465 183 c 128,-1,8
 475 253 475 253 475 350 c 128,-1,9
 475 447 475 447 465 517 c 128,-1,10
 455 587 455 587 437.5 624.5 c 128,-1,11
 420 662 420 662 399.5 678.5 c 128,-1,12
 379 695 379 695 355 695 c 128,-1,13
 331 695 331 695 310.5 678.5 c 128,-1,14
 290 662 290 662 272.5 624.5 c 128,-1,15
 255 587 255 587 245 517 c 128,-1,0
 235 447 235 447 235 350 c 128,-1,1
650 350 m 128,-1,17
 650 179 650 179 566.5 82 c 128,-1,18
 483 -15 483 -15 355 -15 c 128,-1,19
 227 -15 227 -15 143.5 82 c 128,-1,20
 60 179 60 179 60 350 c 128,-1,21
 60 521 60 521 143.5 618 c 128,-1,22
 227 715 227 715 355 715 c 128,-1,23
 483 715 483 715 566.5 618 c 128,-1,16
 650 521 650 521 650 350 c 128,-1,17
EndSplineSet
EndChar

StartChar: one
Encoding: 49 49 53
Width: 455
Flags: HMW
HStem: 0 21G<75 405 75 75> 680 20G<235 325 325 325>
VStem: 155 170<25 590 590 590>
LayerCount: 2
Fore
SplineSet
325 700 m 1,0,-1
 325 25 l 1,1,-1
 405 15 l 1,2,-1
 405 0 l 1,3,-1
 75 0 l 1,4,-1
 75 15 l 1,5,-1
 155 25 l 1,6,-1
 155 590 l 1,7,-1
 45 525 l 1,8,-1
 30 550 l 1,9,-1
 235 700 l 1,10,-1
 325 700 l 1,0,-1
EndSplineSet
EndChar

StartChar: two
Encoding: 50 50 54
Width: 620
Flags: HMW
HStem: 0 75<75 459 75 550 40 459> 510 205<97.5 387.5> 690 25<232.5 305>
VStem: 40 130<565 617.5> 400 150 400 170<452.5 570 390 600>
LayerCount: 2
Fore
SplineSet
550 0 m 1,0,-1
 40 0 l 1,1,-1
 40 25 l 2,2,3
 40 124.285714286 40 124.285714286 111.5 206 c 0,4,5
 152.625 253 152.625 253 224.8125 313 c 128,-1,6
 297 373 297 373 328.5 404.5 c 0,7,8
 400 476 400 476 400 555 c 0,9,10
 400 690 400 690 255 690 c 0,11,12
 217.142857143 690 217.142857143 690 181 678.5 c 2,13,-1
 170 675 l 1,14,-1
 170 515 l 1,15,16
 150 510 150 510 117.5 510 c 128,-1,17
 85 510 85 510 62.5 531.5 c 128,-1,18
 40 553 40 553 40 585 c 0,19,20
 40 638 40 638 106.5 676.5 c 128,-1,21
 173 715 173 715 302 715 c 128,-1,22
 431 715 431 715 500.5 659.5 c 128,-1,23
 570 604 570 604 570 510 c 0,24,25
 570 443 570 443 528.5 393.5 c 128,-1,26
 487 344 487 344 422.5 311.5 c 128,-1,27
 358 279 358 279 291 249 c 128,-1,28
 224 219 224 219 162.5 175 c 128,-1,29
 101 131 101 131 75 75 c 1,30,-1
 459 75 l 1,31,32
 462 106 462 106 477 140 c 128,-1,33
 492 174 492 174 506 192 c 2,34,-1
 520 210 l 1,35,-1
 550 210 l 1,36,-1
 550 0 l 1,0,-1
EndSplineSet
EndChar

StartChar: three
Encoding: 51 51 55
Width: 645
Flags: HMW
HStem: -15 25<237.5 315 237.5 385> 510 205<112.5 385> 690 25<247.5 310>
VStem: 40 130<82.5 135> 55 130<565 617.5> 400 170<480 582.5> 415 155 415 170<120 230 117.5 235>
LayerCount: 2
Fore
SplineSet
508.5 35.5 m 128,-1,1
 432 -15 432 -15 302.5 -15 c 128,-1,2
 173 -15 173 -15 106.5 23.5 c 128,-1,3
 40 62 40 62 40 115 c 0,4,5
 40 147 40 147 62.5 168.5 c 128,-1,6
 85 190 85 190 125 190 c 1,7,-1
 170 185 l 1,8,-1
 170 25 l 1,9,10
 210 10 210 10 265 10 c 0,11,12
 341 10 341 10 378 50.5 c 128,-1,13
 415 91 415 91 415 176 c 128,-1,14
 415 261 415 261 376 303 c 128,-1,15
 337 345 337 345 265 345 c 2,16,-1
 190 345 l 1,17,-1
 190 370 l 1,18,-1
 250 370 l 2,19,20
 322 370 322 370 361 410 c 128,-1,21
 400 450 400 450 400 525 c 0,22,23
 400 690 400 690 270 690 c 0,24,25
 232.142857143 690 232.142857143 690 196 678.5 c 2,26,-1
 185 675 l 1,27,-1
 185 515 l 1,28,29
 165 510 165 510 132.5 510 c 128,-1,30
 100 510 100 510 77.5 531.5 c 128,-1,31
 55 553 55 553 55 585 c 0,32,33
 55 638 55 638 121.5 676.5 c 128,-1,34
 188 715 188 715 307 715 c 128,-1,35
 426 715 426 715 498 664.5 c 128,-1,36
 570 614 570 614 570 525 c 0,37,38
 570 455 570 455 514.5 411 c 128,-1,39
 459 367 459 367 350 360 c 1,40,41
 464 353 464 353 524.5 305 c 128,-1,42
 585 257 585 257 585 180 c 0,43,0
 585 86 585 86 508.5 35.5 c 128,-1,1
EndSplineSet
EndChar

StartChar: four
Encoding: 52 52 56
Width: 630
Flags: HMW
HStem: 0 200<250 330 500 580 250 250> 160 40<50 330 50 330 500 620> 690 20G<465 500 500 500>
VStem: 330 170<25 160 25 160 200 515 515 515>
LayerCount: 2
Fore
SplineSet
250 15 m 1,0,-1
 330 25 l 1,1,-1
 330 160 l 1,2,-1
 0 160 l 1,3,-1
 0 185 l 1,4,-1
 465 710 l 1,5,-1
 500 710 l 1,6,-1
 500 200 l 1,7,-1
 620 200 l 1,8,-1
 620 160 l 1,9,-1
 500 160 l 1,10,-1
 500 25 l 1,11,-1
 580 15 l 1,12,-1
 580 0 l 1,13,-1
 250 0 l 1,14,-1
 250 15 l 1,0,-1
50 200 m 1,15,-1
 330 200 l 1,16,-1
 330 515 l 1,17,-1
 50 200 l 1,15,-1
EndSplineSet
EndChar

StartChar: five
Encoding: 53 53 57
Width: 615
Flags: HMW
HStem: -15 25<232.5 297.5 232.5 370> -15 205<97.5 370> 425 25<225 297.5> 625 75<110 439 85 530 110 110> 805 20G<500 530 530 530>
VStem: 40 130<82.5 135> 75 27 395 170<142.5 292.5>
LayerCount: 2
Fore
SplineSet
530 625 m 1,0,-1
 110 625 l 1,1,-1
 95 410 l 1,2,3
 170 450 170 450 280 450 c 0,4,5
 416 450 416 450 490.5 391 c 128,-1,6
 565 332 565 332 565 218.5 c 0,7,8
 565 105 565 105 490.5 45 c 128,-1,9
 416 -15 416 -15 280 -15 c 0,10,11
 170 -15 170 -15 105 24 c 128,-1,12
 40 63 40 63 40 115 c 0,13,14
 40 147 40 147 62.5 168.5 c 128,-1,15
 85 190 85 190 125 190 c 1,16,-1
 170 185 l 1,17,-1
 170 25 l 1,18,19
 210 10 210 10 255 10 c 0,20,21
 395 10 395 10 395 217.5 c 0,22,23
 395 425 395 425 255 425 c 0,24,25
 215 425 215 425 174 412.5 c 128,-1,26
 133 400 133 400 111.5 387.5 c 2,27,-1
 90 375 l 1,28,-1
 65 400 l 1,29,-1
 85 700 l 1,30,-1
 439 700 l 1,31,32
 442 731 442 731 457 762.5 c 128,-1,33
 472 794 472 794 486 809.5 c 2,34,-1
 500 825 l 1,35,-1
 530 825 l 1,36,-1
 530 625 l 1,0,-1
EndSplineSet
EndChar

StartChar: six
Encoding: 54 54 59
Width: 670
Flags: HMW
HStem: -15 20<317.5 375 317.5 435> 395 25<325 375> 510 205<267.5 532.5> 690 25<347.5 407.5>
VStem: 60 170<222.5 270 270 375 400 472.5> 450 140 450 170<142.5 270 142.5 272.5>
LayerCount: 2
Fore
SplineSet
137.5 75.5 m 128,-1,1
 60 166 60 166 60 348 c 128,-1,2
 60 530 60 530 139 622.5 c 128,-1,3
 218 715 218 715 360 715 c 0,4,5
 464 715 464 715 527 676 c 128,-1,6
 590 637 590 637 590 585 c 0,7,8
 590 553 590 553 567.5 531.5 c 128,-1,9
 545 510 545 510 505 510 c 1,10,-1
 460 515 l 1,11,-1
 460 675 l 1,12,13
 425 690 425 690 390 690 c 0,14,15
 320 690 320 690 275 620.5 c 128,-1,16
 230 551 230 551 230 400 c 1,17,18
 285 420 285 420 365 420 c 0,19,20
 491 420 491 420 555.5 362.5 c 128,-1,21
 620 305 620 305 620 205.5 c 128,-1,22
 620 106 620 106 548.5 45.5 c 128,-1,23
 477 -15 477 -15 346 -15 c 128,-1,0
 215 -15 215 -15 137.5 75.5 c 128,-1,1
350 5 m 0,24,25
 393 5 393 5 421.5 52.5 c 128,-1,26
 450 100 450 100 450 202 c 128,-1,27
 450 304 450 304 422.5 349.5 c 128,-1,28
 395 395 395 395 335 395 c 0,29,30
 282 395 282 395 243 380 c 2,31,-1
 230 375 l 1,32,-1
 230 270 l 2,33,34
 230 5 230 5 350 5 c 0,24,25
EndSplineSet
EndChar

StartChar: seven
Encoding: 55 55 60
Width: 590
Flags: HMW
HStem: 0 21G<160 340 160 160> 625 75<131 515 131 131>
LayerCount: 2
Fore
SplineSet
515 625 m 1,0,-1
 131 625 l 1,1,2
 128 594 128 594 113 560 c 128,-1,3
 98 526 98 526 84 508 c 2,4,-1
 70 490 l 1,5,-1
 40 490 l 1,6,-1
 40 700 l 1,7,-1
 550 700 l 1,8,-1
 550 675 l 2,9,10
 550 574.064516129 550 574.064516129 476 438 c 0,11,12
 445 381 445 381 414 319.5 c 128,-1,13
 383 258 383 258 361.5 174.5 c 128,-1,14
 340 91 340 91 340 0 c 1,15,-1
 160 0 l 1,16,17
 171 95 171 95 205.5 177 c 128,-1,18
 240 259 240 259 284.5 318 c 128,-1,19
 329 377 329 377 373 426 c 128,-1,20
 417 475 417 475 457.5 527 c 128,-1,21
 498 579 498 579 515 625 c 1,0,-1
EndSplineSet
EndChar

StartChar: nine
Encoding: 57 57 61
Width: 670
Flags: HMW
HStem: -15 25<262.5 322.5 262.5 402.5> -15 205<137.5 402.5> 280 25<295 345> 695 20<295 352.5>
VStem: 50 170<430 557.5> 80 140 440 170<227.5 300 325 430 430 477.5 227.5 535>
LayerCount: 2
Fore
SplineSet
532.5 624.5 m 128,-1,1
 610 534 610 534 610 352 c 128,-1,2
 610 170 610 170 531 77.5 c 128,-1,3
 452 -15 452 -15 310 -15 c 0,4,5
 206 -15 206 -15 143 24 c 128,-1,6
 80 63 80 63 80 115 c 0,7,8
 80 147 80 147 102.5 168.5 c 128,-1,9
 125 190 125 190 165 190 c 1,10,-1
 210 185 l 1,11,-1
 210 25 l 1,12,13
 245 10 245 10 280 10 c 0,14,15
 350 10 350 10 395 79.5 c 128,-1,16
 440 149 440 149 440 300 c 1,17,18
 385 280 385 280 305 280 c 0,19,20
 179 280 179 280 114.5 337.5 c 128,-1,21
 50 395 50 395 50 494.5 c 128,-1,22
 50 594 50 594 121.5 654.5 c 128,-1,23
 193 715 193 715 324 715 c 128,-1,0
 455 715 455 715 532.5 624.5 c 128,-1,1
320 695 m 0,24,25
 277 695 277 695 248.5 647.5 c 128,-1,26
 220 600 220 600 220 498 c 128,-1,27
 220 396 220 396 247.5 350.5 c 128,-1,28
 275 305 275 305 335 305 c 0,29,30
 388 305 388 305 427 320 c 2,31,-1
 440 325 l 1,32,-1
 440 430 l 2,33,34
 440 695 440 695 320 695 c 0,24,25
EndSplineSet
EndChar

StartChar: ampersand
Encoding: 38 38 62
Width: 765
Flags: HMW
HStem: -15 25<295 340> 0 21G<550 570 570 735> 490 20G<570 615 570 570> 680 20G<595 615 615 615> 690 25<340 400 267.5 410>
VStem: 40 170<112.5 230 112.5 237.5> 130 160<585 612.5> 580 35
LayerCount: 2
Fore
SplineSet
325 10 m 0,0,1
 390 10 390 10 450 70 c 1,2,-1
 260 330 l 2,3,4
 260 331 260 331 255 325.5 c 128,-1,5
 250 320 250 320 242.5 308 c 128,-1,6
 235 296 235 296 227.5 278.5 c 0,7,8
 210 237.666666667 210 237.666666667 210 163.333333333 c 128,-1,9
 210 89 210 89 243 49.5 c 128,-1,10
 276 10 276 10 325 10 c 0,0,1
345 715 m 0,11,12
 425.347826087 715 425.347826087 715 486.5 666.5 c 0,13,14
 501 655 501 655 508 647.5 c 2,15,-1
 515 640 l 1,16,17
 528.333333333 663.333333333 528.333333333 663.333333333 551.666666667 681.666666667 c 128,-1,18
 575 700 575 700 595 700 c 2,19,-1
 615 700 l 1,20,-1
 615 510 l 1,21,-1
 570 510 l 1,22,23
 539 582 539 582 483.5 636 c 128,-1,24
 428 690 428 690 360 690 c 0,25,26
 329 690 329 690 309.5 668.5 c 128,-1,27
 290 647 290 647 290 610 c 0,28,29
 290 573.375 290 573.375 320 526.5 c 0,30,31
 328 514 328 514 331.5 508.5 c 0,32,33
 349 481 349 481 355 475 c 1,34,-1
 545 210 l 1,35,36
 580 285 580 285 580 370 c 1,37,-1
 480 385 l 1,38,-1
 480 400 l 1,39,-1
 695 400 l 1,40,-1
 695 385 l 1,41,-1
 605 370 l 1,42,43
 605 330 605 330 593.5 285 c 128,-1,44
 582 240 582 240 571 215 c 2,45,-1
 560 190 l 1,46,-1
 680 25 l 1,47,-1
 735 15 l 1,48,-1
 735 0 l 1,49,-1
 570 0 l 2,50,51
 501 0 501 0 465 50 c 1,52,53
 442 31 442 31 424.5 19 c 128,-1,54
 407 7 407 7 372 -4 c 128,-1,55
 337 -15 337 -15 295 -15 c 0,56,57
 164 -15 164 -15 102 33.5 c 128,-1,58
 40 82 40 82 40 160 c 0,59,60
 40 203 40 203 61.5 238 c 128,-1,61
 83 273 83 273 114 292 c 0,62,63
 178.887521968 331.769771529 178.887521968 331.769771529 228.5 341 c 2,64,-1
 250 345 l 1,65,-1
 185 435 l 2,66,67
 130 512 130 512 130 575 c 128,-1,68
 130 638 130 638 182 676.5 c 128,-1,69
 234 715 234 715 345 715 c 0,11,12
EndSplineSet
EndChar

StartChar: quotesingle
Encoding: 39 39 63
Width: 230
Flags: HMW
HStem: 425 21G<90 140 90 90> 690 20G<96 136>
LayerCount: 2
Fore
SplineSet
116 710 m 128,-1,1
 146 710 146 710 163 689.5 c 128,-1,2
 180 669 180 669 180 635 c 1,3,-1
 140 425 l 1,4,-1
 90 425 l 1,5,-1
 50 635 l 1,6,7
 50 669 50 669 68 689.5 c 128,-1,0
 86 710 86 710 116 710 c 128,-1,1
EndSplineSet
EndChar

StartChar: exclam
Encoding: 33 33 64
Width: 340
Flags: HMW
HStem: -10 160<146.5 193.5> 695 20G<142.5 197.5>
VStem: 70 200<600 635> 90 160<46.5 93.5>
LayerCount: 2
Fore
SplineSet
270 600 m 1,0,-1
 190 215 l 1,1,-1
 150 215 l 1,2,-1
 70 600 l 1,3,4
 70 651 70 651 99 683 c 128,-1,5
 128 715 128 715 170 715 c 128,-1,6
 212 715 212 715 241 683 c 128,-1,7
 270 651 270 651 270 600 c 1,0,-1
170 -10 m 128,-1,9
 135 -10 135 -10 112.5 12.5 c 128,-1,10
 90 35 90 35 90 70 c 128,-1,11
 90 105 90 105 112.5 127.5 c 128,-1,12
 135 150 135 150 170 150 c 128,-1,13
 205 150 205 150 227.5 127.5 c 128,-1,14
 250 105 250 105 250 70 c 128,-1,15
 250 35 250 35 227.5 12.5 c 128,-1,8
 205 -10 205 -10 170 -10 c 128,-1,9
EndSplineSet
EndChar

StartChar: quotedbl
Encoding: 34 34 65
Width: 410
Flags: HMW
HStem: 425 21G<90 140 90 90 270 270 270 320> 690 20G<96 136 276 316>
LayerCount: 2
Fore
SplineSet
116 710 m 128,-1,1
 146 710 146 710 163 689.5 c 128,-1,2
 180 669 180 669 180 635 c 1,3,-1
 140 425 l 1,4,-1
 90 425 l 1,5,-1
 50 635 l 1,6,7
 50 669 50 669 68 689.5 c 128,-1,0
 86 710 86 710 116 710 c 128,-1,1
296 710 m 128,-1,9
 326 710 326 710 343 689.5 c 128,-1,10
 360 669 360 669 360 635 c 1,11,-1
 320 425 l 1,12,-1
 270 425 l 1,13,-1
 230 635 l 1,14,15
 230 669 230 669 248 689.5 c 128,-1,8
 266 710 266 710 296 710 c 128,-1,9
EndSplineSet
EndChar

StartChar: numbersign
Encoding: 35 35 66
Width: 695
Flags: HMW
HStem: 0 235<130 173 20 180 130 130 385 428 385 385> 195 40<20 166 20 173 223 421 478 635> 465 40<60 216 60 224 274 471 529 675> 465 235<60 310 60 310 266 310 260 471 266 266 521 565 521 521>
LayerCount: 2
Fore
SplineSet
60 505 m 1,0,-1
 224 505 l 1,1,-1
 260 700 l 1,2,-1
 310 700 l 1,3,-1
 274 505 l 1,4,-1
 479 505 l 1,5,-1
 515 700 l 1,6,-1
 565 700 l 1,7,-1
 529 505 l 1,8,-1
 675 505 l 1,9,-1
 675 465 l 1,10,-1
 521 465 l 1,11,-1
 478 235 l 1,12,-1
 635 235 l 1,13,-1
 635 195 l 1,14,-1
 471 195 l 1,15,-1
 435 0 l 1,16,-1
 385 0 l 1,17,-1
 421 195 l 1,18,-1
 216 195 l 1,19,-1
 180 0 l 1,20,-1
 130 0 l 1,21,-1
 166 195 l 1,22,-1
 20 195 l 1,23,-1
 20 235 l 1,24,-1
 173 235 l 1,25,-1
 216 465 l 1,26,-1
 60 465 l 1,27,-1
 60 505 l 1,0,-1
266 465 m 1,28,-1
 223 235 l 1,29,-1
 428 235 l 1,30,-1
 471 465 l 1,31,-1
 266 465 l 1,28,-1
EndSplineSet
EndChar

StartChar: dollar
Encoding: 36 36 67
Width: 675
Flags: HMW
HStem: -80 21G<320 355 320 320> 0 21G<65 85 65 65> 490 20G<550 595 550 550> 680 20G<575 595 595 595> 695 20G<225 320> 760 20G<320 355 355 355>
VStem: 60 175<563 595> 320 35<-80 -15 13 236 463 688 688 688 715 780> 440 175<108 141.5>
CounterMasks: 1 0380
LayerCount: 2
Fore
SplineSet
320 -14 m 1,0,1
 224.15542522 -4.08504398827 224.15542522 -4.08504398827 165 60 c 1,2,3
 151.666666667 36.6666666667 151.666666667 36.6666666667 128.333333333 18.3333333333 c 128,-1,4
 105 0 105 0 85 0 c 2,5,-1
 65 0 l 1,6,-1
 65 190 l 1,7,-1
 110 190 l 1,8,9
 141 118 141 118 196.5 64 c 128,-1,10
 252 10 252 10 320 10 c 1,11,-1
 320 261 l 1,12,-1
 190 355 l 1,13,14
 60 447 60 447 60 545 c 0,15,16
 60 715 60 715 320 715 c 1,17,-1
 320 780 l 1,18,-1
 355 780 l 1,19,-1
 355 712 l 1,20,21
 396 706 396 706 431 688 c 128,-1,22
 466 670 466 670 480.5 655 c 2,23,-1
 495 640 l 1,24,25
 508.333333333 663.333333333 508.333333333 663.333333333 531.666666667 681.666666667 c 128,-1,26
 555 700 555 700 575 700 c 2,27,-1
 595 700 l 1,28,-1
 595 510 l 1,29,-1
 550 510 l 1,30,31
 520 578 520 578 468.5 631.5 c 128,-1,32
 417 685 417 685 355 690 c 1,33,-1
 355 438 l 1,34,-1
 485 345 l 2,35,36
 615 253 615 253 615 160 c 0,37,38
 615 -11 615 -11 355 -15 c 1,39,-1
 355 -80 l 1,40,-1
 320 -80 l 1,41,-1
 320 -14 l 1,0,1
257 655 m 128,-1,43
 235 629 235 629 235 590.5 c 128,-1,44
 235 552 235 552 256 524 c 128,-1,45
 277 496 277 496 320 463 c 1,46,-1
 320 688 l 1,47,42
 279 681 279 681 257 655 c 128,-1,43
440 115 m 0,48,49
 440 152 440 152 420 177.5 c 128,-1,50
 400 203 400 203 355 236 c 1,51,-1
 355 13 l 1,52,53
 440 28 440 28 440 115 c 0,48,49
EndSplineSet
EndChar

StartChar: percent
Encoding: 37 37 68
Width: 755
Flags: HMW
HStem: -10 20<540 570 540 610> 0 21G<85 135 85 85> 320 20<540 570> 360 20<185 215 185 255> 680 20G<620 665 665 665> 690 20<185 215>
VStem: 30 115<482.5 587.5> 255 115<482.5 587.5 482.5 592.5> 385 115<112.5 217.5> 610 115<112.5 217.5 112.5 222.5>
LayerCount: 2
Fore
SplineSet
620 700 m 1,0,-1
 665 700 l 1,1,-1
 135 0 l 1,2,-1
 85 0 l 1,3,-1
 620 700 l 1,0,-1
255 535 m 128,-1,5
 255 690 255 690 200 690 c 128,-1,6
 145 690 145 690 145 535 c 128,-1,7
 145 380 145 380 200 380 c 128,-1,4
 255 380 255 380 255 535 c 128,-1,5
370 535 m 128,-1,9
 370 455 370 455 325.5 407.5 c 128,-1,10
 281 360 281 360 200 360 c 128,-1,11
 119 360 119 360 74.5 407.5 c 128,-1,12
 30 455 30 455 30 535 c 128,-1,13
 30 615 30 615 74.5 662.5 c 128,-1,14
 119 710 119 710 200 710 c 128,-1,15
 281 710 281 710 325.5 662.5 c 128,-1,8
 370 615 370 615 370 535 c 128,-1,9
610 165 m 128,-1,17
 610 320 610 320 555 320 c 128,-1,18
 500 320 500 320 500 165 c 128,-1,19
 500 10 500 10 555 10 c 128,-1,16
 610 10 610 10 610 165 c 128,-1,17
725 165 m 128,-1,21
 725 85 725 85 680.5 37.5 c 128,-1,22
 636 -10 636 -10 555 -10 c 128,-1,23
 474 -10 474 -10 429.5 37.5 c 128,-1,24
 385 85 385 85 385 165 c 128,-1,25
 385 245 385 245 429.5 292.5 c 128,-1,26
 474 340 474 340 555 340 c 128,-1,27
 636 340 636 340 680.5 292.5 c 128,-1,20
 725 245 725 245 725 165 c 128,-1,21
EndSplineSet
EndChar

StartChar: parenleft
Encoding: 40 40 69
Width: 375
Flags: HMW
HStem: -240 21G<345 345> 750 20G<345 345>
VStem: 60 160<157.5 372.5 157.5 377.5>
LayerCount: 2
Fore
SplineSet
220 265 m 128,-1,1
 220 -65 220 -65 355 -230 c 1,2,-1
 345 -240 l 1,3,4
 219 -165 219 -165 139.5 -31 c 128,-1,5
 60 103 60 103 60 265 c 128,-1,6
 60 427 60 427 139.5 561 c 128,-1,7
 219 695 219 695 345 770 c 1,8,-1
 355 760 l 1,9,0
 220 595 220 595 220 265 c 128,-1,1
EndSplineSet
EndChar

StartChar: parenright
Encoding: 41 41 70
Width: 375
Flags: HMW
HStem: -240 21G<30 30> 750 20G<30 30>
VStem: 155 160<157.5 372.5>
LayerCount: 2
Fore
SplineSet
155 265 m 128,-1,1
 155 595 155 595 20 760 c 1,2,-1
 30 770 l 1,3,4
 156 695 156 695 235.5 561 c 128,-1,5
 315 427 315 427 315 265 c 128,-1,6
 315 103 315 103 235.5 -31 c 128,-1,7
 156 -165 156 -165 30 -240 c 1,8,-1
 20 -230 l 1,9,0
 155 -65 155 -65 155 265 c 128,-1,1
EndSplineSet
EndChar

StartChar: asterisk
Encoding: 42 42 71
Width: 478
Flags: HMW
HStem: 300 21G<221.5 256.5> 680 20G<221.5 256.5>
VStem: 184 110<340 360 640 660>
LayerCount: 2
Fore
SplineSet
239 700 m 128,-1,1
 294 700 294 700 294 640 c 1,2,-1
 260 535 l 1,3,-1
 339 615 l 1,4,5
 357 626 357 626 376.5 626 c 0,6,7
 396 626 396 626 412 607.5 c 128,-1,8
 428 589 428 589 428 564 c 0,9,10
 428 539 428 539 394 520 c 1,11,-1
 299 500 l 1,12,-1
 392 480 l 1,13,14
 426 461 426 461 426 436 c 0,15,16
 426 411 426 411 410 392.5 c 128,-1,17
 394 374 394 374 374.5 374 c 0,18,19
 355 374 355 374 337 385 c 1,20,-1
 259 465 l 1,21,-1
 294 360 l 1,22,23
 294 300 294 300 239 300 c 128,-1,24
 184 300 184 300 184 360 c 1,25,-1
 219 465 l 1,26,-1
 141 385 l 1,27,28
 123 374 123 374 103.5 374 c 0,29,30
 84 374 84 374 68 392.5 c 128,-1,31
 52 411 52 411 52 436 c 0,32,33
 52 461 52 461 86 480 c 1,34,-1
 179 500 l 1,35,-1
 84 520 l 1,36,37
 50 539 50 539 50 564 c 0,38,39
 50 589 50 589 66 607.5 c 128,-1,40
 82 626 82 626 101.5 626 c 0,41,42
 121 626 121 626 139 615 c 1,43,-1
 218 535 l 1,44,-1
 184 640 l 1,45,0
 184 700 184 700 239 700 c 128,-1,1
EndSplineSet
EndChar

StartChar: plus
Encoding: 43 43 72
Width: 535
Flags: HMW
HStem: 85 21G<245 290 245 245> 310 45<30 245 30 245 290 505> 560 20G<245 290 290 290>
VStem: 245 45<85 310 355 580>
LayerCount: 2
Fore
SplineSet
290 85 m 1,0,-1
 245 85 l 1,1,-1
 245 310 l 1,2,-1
 30 310 l 1,3,-1
 30 355 l 1,4,-1
 245 355 l 1,5,-1
 245 580 l 1,6,-1
 290 580 l 1,7,-1
 290 355 l 1,8,-1
 505 355 l 1,9,-1
 505 310 l 1,10,-1
 290 310 l 1,11,-1
 290 85 l 1,0,-1
EndSplineSet
EndChar

StartChar: period
Encoding: 46 46 73
Width: 280
Flags: HMW
HStem: -10 160<116.5 163.5>
VStem: 60 160<46.5 93.5>
LayerCount: 2
Fore
SplineSet
140 -10 m 128,-1,1
 105 -10 105 -10 82.5 12.5 c 128,-1,2
 60 35 60 35 60 70 c 128,-1,3
 60 105 60 105 82.5 127.5 c 128,-1,4
 105 150 105 150 140 150 c 128,-1,5
 175 150 175 150 197.5 127.5 c 128,-1,6
 220 105 220 105 220 70 c 128,-1,7
 220 35 220 35 197.5 12.5 c 128,-1,0
 175 -10 175 -10 140 -10 c 128,-1,1
EndSplineSet
EndChar

StartChar: comma
Encoding: 44 44 74
Width: 280
Flags: HMW
HStem: -133 21G<97 97> -10 160<114 149>
VStem: 60 160<46.5 84 -31.5 93.5>
LayerCount: 2
Fore
SplineSet
97 -133 m 1,0,-1
 88 -114 l 1,1,2
 142.98089172 -100.25477707 142.98089172 -100.25477707 172.5 -42.5 c 0,3,4
 184 -20 184 -20 187 8 c 1,5,6
 163 -10 163 -10 133 -10 c 128,-1,7
 103 -10 103 -10 81.5 12.5 c 128,-1,8
 60 35 60 35 60 70 c 128,-1,9
 60 105 60 105 81.5 127.5 c 128,-1,10
 103 150 103 150 137.5 150 c 128,-1,11
 172 150 172 150 196 124.5 c 128,-1,12
 220 99 220 99 220 52 c 128,-1,13
 220 5 220 5 207.5 -31 c 128,-1,14
 195 -67 195 -67 176.5 -85.5 c 0,15,16
 139.105263158 -122.894736842 139.105263158 -122.894736842 109.5 -130 c 2,17,-1
 97 -133 l 1,0,-1
EndSplineSet
EndChar

StartChar: hyphen
Encoding: 45 45 75
Width: 385
Flags: HMW
HStem: 310 55<30 355 30 355>
LayerCount: 2
Fore
SplineSet
355 310 m 1,0,-1
 30 310 l 1,1,-1
 30 365 l 1,2,-1
 355 365 l 1,3,-1
 355 310 l 1,0,-1
EndSplineSet
EndChar

StartChar: slash
Encoding: 47 47 76
Width: 390
Flags: HMW
HStem: 0 21G<10 60 10 10> 680 20G<335 380 380 380>
LayerCount: 2
Fore
SplineSet
335 700 m 1,0,-1
 380 700 l 1,1,-1
 60 0 l 1,2,-1
 10 0 l 1,3,-1
 335 700 l 1,0,-1
EndSplineSet
EndChar

StartChar: backslash
Encoding: 92 92 77
Width: 390
Flags: HMW
HStem: 0 21G<330 380 330 330> 680 20G<10 55 55 55>
LayerCount: 2
Fore
SplineSet
10 700 m 1,0,-1
 55 700 l 1,1,-1
 380 0 l 1,2,-1
 330 0 l 1,3,-1
 10 700 l 1,0,-1
EndSplineSet
EndChar

StartChar: equal
Encoding: 61 61 78
Width: 535
Flags: HMW
HStem: 200 45<30 505 30 505> 395 45<30 505 30 505>
LayerCount: 2
Fore
SplineSet
505 200 m 1,0,-1
 30 200 l 1,1,-1
 30 245 l 1,2,-1
 505 245 l 1,3,-1
 505 200 l 1,0,-1
505 395 m 1,4,-1
 30 395 l 1,5,-1
 30 440 l 1,6,-1
 505 440 l 1,7,-1
 505 395 l 1,4,-1
EndSplineSet
EndChar

StartChar: colon
Encoding: 58 58 79
Width: 280
Flags: HMW
HStem: -10 160<116.5 163.5> 350 160<116.5 163.5>
VStem: 60 160<46.5 93.5 406.5 453.5>
LayerCount: 2
Fore
SplineSet
140 -10 m 128,-1,1
 105 -10 105 -10 82.5 12.5 c 128,-1,2
 60 35 60 35 60 70 c 128,-1,3
 60 105 60 105 82.5 127.5 c 128,-1,4
 105 150 105 150 140 150 c 128,-1,5
 175 150 175 150 197.5 127.5 c 128,-1,6
 220 105 220 105 220 70 c 128,-1,7
 220 35 220 35 197.5 12.5 c 128,-1,0
 175 -10 175 -10 140 -10 c 128,-1,1
140 350 m 128,-1,9
 105 350 105 350 82.5 372.5 c 128,-1,10
 60 395 60 395 60 430 c 128,-1,11
 60 465 60 465 82.5 487.5 c 128,-1,12
 105 510 105 510 140 510 c 128,-1,13
 175 510 175 510 197.5 487.5 c 128,-1,14
 220 465 220 465 220 430 c 128,-1,15
 220 395 220 395 197.5 372.5 c 128,-1,8
 175 350 175 350 140 350 c 128,-1,9
EndSplineSet
EndChar

StartChar: semicolon
Encoding: 59 59 80
Width: 280
Flags: HMW
HStem: -133 21G<97 97> -10 160<114 149> 350 160<116.5 163.5>
VStem: 60 160<46.5 84 -31.5 93.5 406.5 453.5>
LayerCount: 2
Fore
SplineSet
140 350 m 128,-1,1
 105 350 105 350 82.5 372.5 c 128,-1,2
 60 395 60 395 60 430 c 128,-1,3
 60 465 60 465 82.5 487.5 c 128,-1,4
 105 510 105 510 140 510 c 128,-1,5
 175 510 175 510 197.5 487.5 c 128,-1,6
 220 465 220 465 220 430 c 128,-1,7
 220 395 220 395 197.5 372.5 c 128,-1,0
 175 350 175 350 140 350 c 128,-1,1
97 -133 m 1,8,-1
 88 -114 l 1,9,10
 142.98089172 -100.25477707 142.98089172 -100.25477707 172.5 -42.5 c 0,11,12
 184 -20 184 -20 187 8 c 1,13,14
 163 -10 163 -10 133 -10 c 128,-1,15
 103 -10 103 -10 81.5 12.5 c 128,-1,16
 60 35 60 35 60 70 c 128,-1,17
 60 105 60 105 81.5 127.5 c 128,-1,18
 103 150 103 150 137.5 150 c 128,-1,19
 172 150 172 150 196 124.5 c 128,-1,20
 220 99 220 99 220 52 c 128,-1,21
 220 5 220 5 207.5 -31 c 128,-1,22
 195 -67 195 -67 176.5 -85.5 c 0,23,24
 139.105263158 -122.894736842 139.105263158 -122.894736842 109.5 -130 c 2,25,-1
 97 -133 l 1,8,-1
EndSplineSet
EndChar

StartChar: greater
Encoding: 62 62 81
Width: 490
Flags: HMW
HStem: -10 21G<50 50> 570 20G<50 50>
LayerCount: 2
Fore
SplineSet
50 590 m 1,0,-1
 490 290 l 1,1,-1
 50 -10 l 1,2,-1
 50 50 l 1,3,-1
 400 290 l 1,4,-1
 50 530 l 1,5,-1
 50 590 l 1,0,-1
EndSplineSet
EndChar

StartChar: question
Encoding: 63 63 82
Width: 590
Flags: HMW
HStem: -10 160<236.5 283.5> 510 205<77.5 367.5> 690 25<212.5 285>
VStem: 20 130<565 617.5> 180 160<46.5 93.5> 235 50<215 295 215 320 215 320> 380 170<487.5 575 455 595>
LayerCount: 2
Fore
SplineSet
285 295 m 1,0,-1
 285 215 l 1,1,-1
 235 215 l 1,2,-1
 235 320 l 1,3,4
 380 388 380 388 380 545 c 0,5,6
 380 620 380 620 345 655 c 128,-1,7
 310 690 310 690 235 690 c 0,8,9
 197.142857143 690 197.142857143 690 161 678.5 c 2,10,-1
 150 675 l 1,11,-1
 150 515 l 1,12,13
 130 510 130 510 97.5 510 c 128,-1,14
 65 510 65 510 42.5 531.5 c 128,-1,15
 20 553 20 553 20 585 c 0,16,17
 20 638 20 638 86.5 676.5 c 128,-1,18
 153 715 153 715 281.5 715 c 128,-1,19
 410 715 410 715 480 661 c 128,-1,20
 550 607 550 607 550 520 c 0,21,22
 550 459 550 459 508.5 410 c 128,-1,23
 467 361 467 361 410 335 c 128,-1,24
 353 309 353 309 285 295 c 1,0,-1
260 -10 m 128,-1,26
 225 -10 225 -10 202.5 12.5 c 128,-1,27
 180 35 180 35 180 70 c 128,-1,28
 180 105 180 105 202.5 127.5 c 128,-1,29
 225 150 225 150 260 150 c 128,-1,30
 295 150 295 150 317.5 127.5 c 128,-1,31
 340 105 340 105 340 70 c 128,-1,32
 340 35 340 35 317.5 12.5 c 128,-1,25
 295 -10 295 -10 260 -10 c 128,-1,26
EndSplineSet
EndChar

StartChar: bracketleft
Encoding: 91 91 83
Width: 340
Flags: HMW
HStem: -200 25<220 320 220 320> 675 25<220 320 220 220>
VStem: 60 160<-175 675 -175 700 -175 700>
LayerCount: 2
Fore
SplineSet
60 700 m 1,0,-1
 320 700 l 1,1,-1
 320 675 l 1,2,-1
 220 675 l 1,3,-1
 220 -175 l 1,4,-1
 320 -175 l 1,5,-1
 320 -200 l 1,6,-1
 60 -200 l 1,7,-1
 60 700 l 1,0,-1
EndSplineSet
EndChar

StartChar: bracketright
Encoding: 93 93 84
Width: 340
Flags: HMW
HStem: -200 25<20 120 20 280 20 120> 675 25<20 120 20 280>
VStem: 120 160<-175 675 675 675>
LayerCount: 2
Fore
SplineSet
20 700 m 1,0,-1
 280 700 l 1,1,-1
 280 -200 l 1,2,-1
 20 -200 l 1,3,-1
 20 -175 l 1,4,-1
 120 -175 l 1,5,-1
 120 675 l 1,6,-1
 20 675 l 1,7,-1
 20 700 l 1,0,-1
EndSplineSet
EndChar

StartChar: underscore
Encoding: 95 95 85
Width: 380
Flags: HMW
HStem: -97 37<0 380 0 380>
LayerCount: 2
Fore
SplineSet
380 -97 m 1,0,-1
 0 -97 l 1,1,-1
 0 -60 l 1,2,-1
 380 -60 l 1,3,-1
 380 -97 l 1,0,-1
EndSplineSet
EndChar

StartChar: braceleft
Encoding: 123 123 86
Width: 400
Flags: HMW
HStem: -200 25<370 380 370 380> 240 20<20 50> 675 25<345 370 370 380>
VStem: 120 160<-40 90 -92.5 115 385 410 410 540 540 550>
CounterMasks: 1 e0
LayerCount: 2
Fore
SplineSet
280 550 m 2,0,-1
 280 410 l 2,1,2
 280 342 280 342 236 299.5 c 128,-1,3
 192 257 192 257 110 250 c 1,4,5
 192 243 192 243 236 200.5 c 128,-1,6
 280 158 280 158 280 90 c 2,7,-1
 280 -50 l 2,8,9
 280 -111 280 -111 305 -143 c 128,-1,10
 330 -175 330 -175 370 -175 c 2,11,-1
 380 -175 l 1,12,-1
 380 -200 l 1,13,-1
 330 -200 l 2,14,15
 229 -200 229 -200 174.5 -155.5 c 128,-1,16
 120 -111 120 -111 120 -40 c 2,17,-1
 120 115 l 2,18,19
 120 177 120 177 93.5 208.5 c 128,-1,20
 67 240 67 240 20 240 c 1,21,-1
 20 260 l 1,22,23
 67 260 67 260 93.5 291.5 c 128,-1,24
 120 323 120 323 120 385 c 2,25,-1
 120 540 l 2,26,27
 120 611 120 611 174.5 655.5 c 128,-1,28
 229 700 229 700 330 700 c 2,29,-1
 380 700 l 1,30,-1
 380 675 l 1,31,-1
 370 675 l 2,32,33
 330 675 330 675 305 643 c 128,-1,34
 280 611 280 611 280 550 c 2,0,-1
EndSplineSet
EndChar

StartChar: braceright
Encoding: 125 125 87
Width: 400
Flags: HMW
HStem: -200 25<20 30 30 55 20 30> 240 20<350 380> 675 25<20 30 20 70>
VStem: 120 160<-50 -40 -40 90 90 115 -85 135 410 540>
CounterMasks: 1 e0
LayerCount: 2
Fore
SplineSet
120 410 m 2,0,-1
 120 550 l 2,1,2
 120 611 120 611 95 643 c 128,-1,3
 70 675 70 675 30 675 c 2,4,-1
 20 675 l 1,5,-1
 20 700 l 1,6,-1
 70 700 l 2,7,8
 171 700 171 700 225.5 655.5 c 128,-1,9
 280 611 280 611 280 540 c 2,10,-1
 280 385 l 2,11,12
 280 323 280 323 306.5 291.5 c 128,-1,13
 333 260 333 260 380 260 c 1,14,-1
 380 240 l 1,15,16
 333 240 333 240 306.5 208.5 c 128,-1,17
 280 177 280 177 280 115 c 2,18,-1
 280 -40 l 2,19,20
 280 -111 280 -111 225.5 -155.5 c 128,-1,21
 171 -200 171 -200 70 -200 c 2,22,-1
 20 -200 l 1,23,-1
 20 -175 l 1,24,-1
 30 -175 l 2,25,26
 70 -175 70 -175 95 -143 c 128,-1,27
 120 -111 120 -111 120 -50 c 2,28,-1
 120 90 l 2,29,30
 120 158 120 158 164 200.5 c 128,-1,31
 208 243 208 243 290 250 c 1,32,33
 208 257 208 257 164 299.5 c 128,-1,34
 120 342 120 342 120 410 c 2,0,-1
EndSplineSet
EndChar

StartChar: asciicircum
Encoding: 94 94 88
Width: 470
Flags: HMW
HStem: 410 21G<30 80 30 30 390 390 390 440> 710 20G<235 235>
LayerCount: 2
Fore
SplineSet
235 650 m 1,0,-1
 80 410 l 1,1,-1
 30 410 l 1,2,-1
 235 730 l 1,3,-1
 440 410 l 1,4,-1
 390 410 l 1,5,-1
 235 650 l 1,0,-1
EndSplineSet
EndChar

StartChar: at
Encoding: 64 64 89
Width: 840
Flags: HMW
HStem: -20 30<327.5 480 327.5 490> 135 35<385 407.5> 535 25<427.5 610> 690 30<327.5 512.5>
VStem: 40 40<247.5 452.5 247.5 455> 190 150<265 395> 460 150<255 535 535 535> 760 40<287.5 452.5>
LayerCount: 2
Fore
SplineSet
340 320 m 0,0,1
 340 267 340 267 350 231 c 0,2,3
 366.944444444 170 366.944444444 170 395 170 c 0,4,5
 417 170 417 170 433.5 191 c 128,-1,6
 450 212 450 212 455 233.5 c 2,7,-1
 460 255 l 1,8,-1
 460 535 l 1,9,10
 406 535 406 535 373 484 c 128,-1,11
 340 433 340 433 340 320 c 0,0,1
420 10 m 0,12,13
 473 10 473 10 523 25 c 128,-1,14
 573 40 573 40 596.5 55 c 2,15,-1
 620 70 l 1,16,-1
 635 45 l 1,17,18
 627 38 627 38 610.5 27 c 128,-1,19
 594 16 594 16 538 -2 c 128,-1,20
 482 -20 482 -20 420 -20 c 0,21,22
 262 -20 262 -20 151 86.5 c 128,-1,23
 40 193 40 193 40 350 c 128,-1,24
 40 507 40 507 151 613.5 c 128,-1,25
 262 720 262 720 420 720 c 128,-1,26
 578 720 578 720 689 613.5 c 128,-1,27
 800 507 800 507 800 350 c 0,28,29
 800 252 800 252 760.5 193.5 c 128,-1,30
 721 135 721 135 645 135 c 0,31,32
 602 135 602 135 569 146 c 128,-1,33
 536 157 536 157 520 172 c 0,34,35
 486.684931507 203.232876712 486.684931507 203.232876712 482 229 c 2,36,-1
 480 240 l 1,37,38
 469.671232877 198.684931507 469.671232877 198.684931507 450.835616438 178.342465753 c 0,39,40
 410.703703704 135 410.703703704 135 348.351851852 135 c 128,-1,41
 286 135 286 135 238 187 c 128,-1,42
 190 239 190 239 190 320 c 0,43,44
 190 434 190 434 258.5 497 c 128,-1,45
 327 560 327 560 460 560 c 2,46,-1
 610 560 l 1,47,-1
 610 225 l 2,48,49
 610 160 610 160 665 160 c 0,50,51
 703 160 703 160 731.5 209.5 c 128,-1,52
 760 259 760 259 760 350 c 0,53,54
 760 500 760 500 661 595 c 128,-1,55
 562 690 562 690 420 690 c 128,-1,56
 278 690 278 690 179 595 c 128,-1,57
 80 500 80 500 80 350 c 128,-1,58
 80 200 80 200 179 105 c 128,-1,59
 278 10 278 10 420 10 c 0,12,13
EndSplineSet
EndChar

StartChar: copyright
Encoding: 169 169 90
Width: 840
Flags: HMW
HStem: -20 30<327.5 512.5 327.5 525> 135 25<427.5 475> 390 175<367.5 567.5> 540 25<427.5 467.5> 690 30<327.5 512.5>
VStem: 40 40<247.5 452.5 247.5 455> 210 150<285 415> 500 120<440 492.5 440 535 440 535> 760 40<247.5 452.5>
LayerCount: 2
Fore
SplineSet
455 540 m 0,0,1
 410 540 410 540 385 497.5 c 128,-1,2
 360 455 360 455 360 350 c 128,-1,3
 360 245 360 245 385 202.5 c 128,-1,4
 410 160 410 160 455 160 c 0,5,6
 534 160 534 160 590 240 c 1,7,-1
 610 225 l 1,8,9
 542 135 542 135 437 135 c 0,10,11
 332 135 332 135 271 193 c 128,-1,12
 210 251 210 251 210 350 c 128,-1,13
 210 449 210 449 271 507 c 128,-1,14
 332 565 332 565 440 565 c 0,15,16
 517 565 517 565 568.5 536.5 c 128,-1,17
 620 508 620 508 620 460 c 0,18,19
 620 428 620 428 600 409 c 128,-1,20
 580 390 580 390 540 390 c 1,21,-1
 500 395 l 1,22,-1
 500 535 l 1,23,24
 480 540 480 540 455 540 c 0,0,1
800 350 m 128,-1,26
 800 193 800 193 689 86.5 c 128,-1,27
 578 -20 578 -20 420 -20 c 128,-1,28
 262 -20 262 -20 151 86.5 c 128,-1,29
 40 193 40 193 40 350 c 128,-1,30
 40 507 40 507 151 613.5 c 128,-1,31
 262 720 262 720 420 720 c 128,-1,32
 578 720 578 720 689 613.5 c 128,-1,25
 800 507 800 507 800 350 c 128,-1,26
420 10 m 128,-1,34
 562 10 562 10 661 105 c 128,-1,35
 760 200 760 200 760 350 c 128,-1,36
 760 500 760 500 661 595 c 128,-1,37
 562 690 562 690 420 690 c 128,-1,38
 278 690 278 690 179 595 c 128,-1,39
 80 500 80 500 80 350 c 128,-1,40
 80 200 80 200 179 105 c 128,-1,33
 278 10 278 10 420 10 c 128,-1,34
EndSplineSet
EndChar

StartChar: registered
Encoding: 174 174 91
Width: 840
Flags: HMW
HStem: -20 30<327.5 512.5 327.5 525> 140 205<380 390 390 417.5 380 435 180 390 380 560 380 665> 330 230<180 489> 535 25<380 390 380 380> 690 30<327.5 512.5>
VStem: 40 40<247.5 452.5 247.5 455> 235 145<160 325 160 345 345 535> 475 150<412.5 472.5> 760 40<247.5 452.5>
LayerCount: 2
Fore
SplineSet
800 350 m 128,-1,1
 800 193 800 193 689 86.5 c 128,-1,2
 578 -20 578 -20 420 -20 c 128,-1,3
 262 -20 262 -20 151 86.5 c 128,-1,4
 40 193 40 193 40 350 c 128,-1,5
 40 507 40 507 151 613.5 c 128,-1,6
 262 720 262 720 420 720 c 128,-1,7
 578 720 578 720 689 613.5 c 128,-1,0
 800 507 800 507 800 350 c 128,-1,1
420 10 m 128,-1,9
 562 10 562 10 661 105 c 128,-1,10
 760 200 760 200 760 350 c 128,-1,11
 760 500 760 500 661 595 c 128,-1,12
 562 690 562 690 420 690 c 128,-1,13
 278 690 278 690 179 595 c 128,-1,14
 80 500 80 500 80 350 c 128,-1,15
 80 200 80 200 179 105 c 128,-1,8
 278 10 278 10 420 10 c 128,-1,9
665 140 m 1,16,-1
 560 140 l 2,17,18
 490 140 490 140 455 205 c 2,19,-1
 390 325 l 1,20,-1
 380 325 l 1,21,-1
 380 160 l 1,22,-1
 435 155 l 1,23,-1
 435 140 l 1,24,-1
 180 140 l 1,25,-1
 180 155 l 1,26,-1
 235 160 l 1,27,-1
 235 540 l 1,28,-1
 180 545 l 1,29,-1
 180 560 l 1,30,-1
 390 560 l 2,31,32
 520 560 520 560 572.5 529 c 128,-1,33
 625 498 625 498 625 440 c 0,34,35
 625 397 625 397 588 365.5 c 128,-1,36
 551 334 551 334 489 330 c 1,37,38
 518.740740741 330 518.740740741 330 551 296.5 c 0,39,40
 564 283 564 283 574 265 c 2,41,-1
 630 165 l 1,42,-1
 665 155 l 1,43,-1
 665 140 l 1,16,-1
390 535 m 2,44,-1
 380 535 l 1,45,-1
 380 345 l 1,46,-1
 390 345 l 2,47,48
 431 345 431 345 453 370 c 128,-1,49
 475 395 475 395 475 440 c 0,50,51
 475 535 475 535 390 535 c 2,44,-1
EndSplineSet
EndChar

StartChar: section
Encoding: 167 167 92
Width: 610
Flags: HMW
HStem: -210 25<262.5 315 262.5 385> -210 185<147.5 385> 525 185<225 462.5> 685 25<295 347.5>
VStem: 60 160 80 140 80 155<590 607.5> 375 145 390 160
LayerCount: 2
Fore
SplineSet
395 110 m 1,0,-1
 445 75 l 1,1,2
 530 14 530 14 530 -70 c 0,3,4
 530 -131 530 -131 474 -170.5 c 128,-1,5
 418 -210 418 -210 305 -210 c 0,6,7
 90 -210 90 -210 90 -100 c 0,8,9
 90 -68 90 -68 112.5 -46.5 c 128,-1,10
 135 -25 135 -25 175 -25 c 1,11,-1
 220 -30 l 1,12,-1
 220 -180 l 1,13,14
 245 -185 245 -185 288 -185 c 0,15,16
 375 -185 375 -185 375 -110 c 0,17,18
 375 -60 375 -60 305 -10 c 2,19,-1
 145 105 l 2,20,21
 60 166 60 166 60 240 c 0,22,23
 60 348 60 348 215 390 c 1,24,-1
 165 425 l 1,25,26
 80 486 80 486 80 570 c 0,27,28
 80 631 80 631 136 670.5 c 128,-1,29
 192 710 192 710 305 710 c 0,30,31
 520 710 520 710 520 600 c 0,32,33
 520 568 520 568 497.5 546.5 c 128,-1,34
 475 525 475 525 435 525 c 1,35,-1
 390 530 l 1,36,-1
 390 680 l 1,37,38
 365 685 365 685 322 685 c 0,39,40
 235 685 235 685 235 610 c 0,41,42
 235 560 235 560 305 510 c 2,43,-1
 465 395 l 2,44,45
 550 334 550 334 550 260 c 0,46,47
 550 152 550 152 395 110 c 1,0,-1
375 125 m 1,48,49
 395 155 395 155 395 207 c 128,-1,50
 395 259 395 259 325 310 c 2,51,-1
 235 375 l 1,52,53
 215 345 215 345 215 293 c 128,-1,54
 215 241 215 241 285 190 c 2,55,-1
 375 125 l 1,48,49
EndSplineSet
EndChar

StartChar: trademark
Encoding: 8482 8482 93
Width: 970
Flags: HMW
HStem: 360 21G<635 645 635 635> 680 20<105 155 105 105 270 320 270 270 475 475 870 870>
VStem: 40 65<680 680 680 700 680 700> 155 115<390 680 390 680> 320 65<680 680> 475 25<390 580 390 680> 755 115<390 580 580 580>
LayerCount: 2
Fore
SplineSet
415 700 m 1,0,-1
 505 700 l 2,1,2
 539 700 539 700 556 686.5 c 128,-1,3
 573 673 573 673 590 645 c 2,4,-1
 685 495 l 1,5,-1
 760 645 l 2,6,7
 788 700 788 700 845 700 c 2,8,-1
 930 700 l 1,9,-1
 930 685 l 1,10,-1
 870 680 l 1,11,-1
 870 390 l 1,12,-1
 930 385 l 1,13,-1
 930 370 l 1,14,-1
 695 370 l 1,15,-1
 695 385 l 1,16,-1
 755 390 l 1,17,-1
 755 580 l 1,18,-1
 645 360 l 1,19,-1
 635 360 l 1,20,-1
 500 580 l 1,21,-1
 500 390 l 1,22,-1
 560 385 l 1,23,-1
 560 370 l 1,24,-1
 415 370 l 1,25,-1
 415 385 l 1,26,-1
 475 390 l 1,27,-1
 475 680 l 1,28,-1
 415 685 l 1,29,-1
 415 700 l 1,0,-1
385 700 m 1,30,-1
 385 575 l 1,31,-1
 365 575 l 1,32,33
 325 615 325 615 320 680 c 1,34,-1
 270 680 l 1,35,-1
 270 390 l 1,36,-1
 330 385 l 1,37,-1
 330 370 l 1,38,-1
 95 370 l 1,39,-1
 95 385 l 1,40,-1
 155 390 l 1,41,-1
 155 680 l 1,42,-1
 105 680 l 1,43,44
 103 651 103 651 91.5 625 c 128,-1,45
 80 599 80 599 70 587 c 2,46,-1
 60 575 l 1,47,-1
 40 575 l 1,48,-1
 40 700 l 1,49,-1
 385 700 l 1,30,-1
EndSplineSet
EndChar

StartChar: paragraph
Encoding: 182 182 94
Width: 640
Flags: HMW
HStem: -200 21G<330 385 330 330 460 460 460 515> 675 25<385 460 385 385 515 600 515 515>
VStem: 330 55<-200 210 210 210> 460 55<-200 675 -200 675>
LayerCount: 2
Fore
SplineSet
385 -200 m 1,0,-1
 330 -200 l 1,1,-1
 330 210 l 1,2,3
 201 212 201 212 125.5 277.5 c 128,-1,4
 50 343 50 343 50 456.5 c 0,5,6
 50 570 50 570 128.5 635 c 128,-1,7
 207 700 207 700 340 700 c 2,8,-1
 600 700 l 1,9,-1
 600 675 l 1,10,-1
 515 675 l 1,11,-1
 515 -200 l 1,12,-1
 460 -200 l 1,13,-1
 460 675 l 1,14,-1
 385 675 l 1,15,-1
 385 -200 l 1,0,-1
EndSplineSet
EndChar

StartChar: guillemotright
Encoding: 187 187 95
Width: 490
Flags: HMW
HStem: 0 21G<150 150> 480 20G<150 150>
LayerCount: 2
Fore
SplineSet
385 250 m 1,0,-1
 130 475 l 1,1,-1
 150 500 l 1,2,-1
 490 270 l 1,3,-1
 490 230 l 1,4,-1
 150 0 l 1,5,-1
 130 25 l 1,6,-1
 385 250 l 1,0,-1
275 270 m 1,7,-1
 275 230 l 1,8,-1
 61 70 l 1,9,-1
 40 95 l 1,10,-1
 175 250 l 1,11,-1
 40 405 l 1,12,-1
 60 430 l 1,13,-1
 275 270 l 1,7,-1
EndSplineSet
EndChar

StartChar: guillemotleft
Encoding: 171 171 96
Width: 490
Flags: HMW
HStem: 0 21G<340 340> 480 20G<340 340>
LayerCount: 2
Fore
SplineSet
215 230 m 1,0,-1
 215 270 l 1,1,-1
 430 430 l 1,2,-1
 450 405 l 1,3,-1
 315 250 l 1,4,-1
 450 95 l 1,5,-1
 429 70 l 1,6,-1
 215 230 l 1,0,-1
360 475 m 1,7,-1
 105 250 l 1,8,-1
 360 25 l 1,9,-1
 340 0 l 1,10,-1
 0 230 l 1,11,-1
 0 270 l 1,12,-1
 340 500 l 1,13,-1
 360 475 l 1,7,-1
EndSplineSet
EndChar

StartChar: ordmasculine
Encoding: 186 186 97
Width: 420
Flags: HMW
HStem: 360 20<195 225 195 265> 690 20<195 225>
VStem: 40 115<482.5 587.5> 265 115<482.5 587.5 482.5 592.5>
LayerCount: 2
Fore
SplineSet
380 535 m 128,-1,1
 380 455 380 455 335.5 407.5 c 128,-1,2
 291 360 291 360 210 360 c 128,-1,3
 129 360 129 360 84.5 407.5 c 128,-1,4
 40 455 40 455 40 535 c 128,-1,5
 40 615 40 615 84.5 662.5 c 128,-1,6
 129 710 129 710 210 710 c 128,-1,7
 291 710 291 710 335.5 662.5 c 128,-1,0
 380 615 380 615 380 535 c 128,-1,1
265 535 m 128,-1,9
 265 690 265 690 210 690 c 128,-1,10
 155 690 155 690 155 535 c 128,-1,11
 155 380 155 380 210 380 c 128,-1,8
 265 380 265 380 265 535 c 128,-1,9
EndSplineSet
EndChar

StartChar: onesuperior
Encoding: 185 185 98
Width: 325
Flags: HMW
HStem: 370 21G<50 285 50 50> 680 20G<145 225 225 225>
VStem: 110 115<390 620 620 620>
LayerCount: 2
Fore
SplineSet
225 700 m 1,0,-1
 225 390 l 1,1,-1
 285 385 l 1,2,-1
 285 370 l 1,3,-1
 50 370 l 1,4,-1
 50 385 l 1,5,-1
 110 390 l 1,6,-1
 110 620 l 1,7,-1
 55 575 l 1,8,-1
 40 595 l 1,9,-1
 145 700 l 1,10,-1
 225 700 l 1,0,-1
EndSplineSet
EndChar

StartChar: twosuperior
Encoding: 178 178 99
Width: 395
Flags: HMW
HStem: 370 45<70 280 70 340 40 280> 585 125<82.5 255> 690 20<170 197.5>
VStem: 40 90<617.5 658.5> 235 105<370 650> 235 120<572.5 637.5 550 650>
LayerCount: 2
Fore
SplineSet
200 710 m 0,0,1
 278 710 278 710 316.5 682 c 128,-1,2
 355 654 355 654 355 611.5 c 128,-1,3
 355 569 355 569 319.5 539.5 c 128,-1,4
 284 510 284 510 239.5 496 c 0,5,6
 105.648684211 453.889473684 105.648684211 453.889473684 70 415 c 1,7,-1
 280 415 l 1,8,9
 287.741935484 453.709677419 287.741935484 453.709677419 312 481 c 2,10,-1
 320 490 l 1,11,-1
 340 490 l 1,12,-1
 340 370 l 1,13,-1
 40 370 l 1,14,-1
 40 395 l 2,15,16
 40 428 40 428 60 454 c 128,-1,17
 80 480 80 480 108.5 497 c 128,-1,18
 137 514 137 514 166 531.5 c 0,19,20
 235 573.137931034 235 573.137931034 235 631.568965517 c 128,-1,21
 235 690 235 690 180 690 c 1,22,-1
 130 685 l 1,23,-1
 130 590 l 1,24,25
 115 585 115 585 94.5 585 c 128,-1,26
 74 585 74 585 57 598 c 128,-1,27
 40 611 40 611 40 635 c 0,28,29
 40 710 40 710 200 710 c 0,0,1
EndSplineSet
EndChar

StartChar: threesuperior
Encoding: 179 179 100
Width: 395
Flags: HMW
HStem: 360 20<170 197.5 170 255> 360 125<82.5 255> 540 170 585 125<82.5 252.5> 690 20<170 195>
VStem: 40 90<411.5 452.5 617.5 658.5> 230 125<429.5 640>
LayerCount: 2
Fore
SplineSet
312 683.5 m 128,-1,1
 350 657 350 657 350 623 c 128,-1,2
 350 589 350 589 317.5 566.5 c 128,-1,3
 285 544 285 544 230 540 c 1,4,5
 289 536 289 536 322 512.5 c 128,-1,6
 355 489 355 489 355 451.5 c 128,-1,7
 355 414 355 414 316.5 387 c 128,-1,8
 278 360 278 360 200 360 c 0,9,10
 40 360 40 360 40 435 c 0,11,12
 40 459 40 459 57 472 c 128,-1,13
 74 485 74 485 95 485 c 1,14,-1
 130 480 l 1,15,-1
 130 385 l 1,16,17
 160 380 160 380 183 380 c 128,-1,18
 206 380 206 380 220.5 400 c 128,-1,19
 235 420 235 420 235 454.5 c 128,-1,20
 235 489 235 489 220.5 509.5 c 128,-1,21
 206 530 206 530 180 530 c 2,22,-1
 130 530 l 1,23,-1
 130 550 l 1,24,-1
 175 550 l 2,25,26
 201 550 201 550 215.5 569.5 c 128,-1,27
 230 589 230 589 230 619.5 c 128,-1,28
 230 650 230 650 216 670 c 128,-1,29
 202 690 202 690 180 690 c 1,30,-1
 130 685 l 1,31,-1
 130 590 l 1,32,33
 115 585 115 585 94.5 585 c 128,-1,34
 74 585 74 585 57 598 c 128,-1,35
 40 611 40 611 40 635 c 0,36,37
 40 710 40 710 200 710 c 0,38,0
 274 710 274 710 312 683.5 c 128,-1,1
EndSplineSet
EndChar

StartChar: onequarter
Encoding: 188 188 101
Width: 770
Flags: HMW
HStem: 0 45<415 655 445 655 445 715> 215 125<457.5 630> 320 20<545 572.5> 680 20G<145 225 225 225 615 660 660 660>
VStem: 110 115<390 620 620 620> 415 90<247.5 288.5> 610 105<0 280> 610 120<202.5 267.5 180 280>
LayerCount: 2
Fore
SplineSet
615 700 m 1,0,-1
 660 700 l 1,1,-1
 130 0 l 1,2,-1
 80 0 l 1,3,-1
 615 700 l 1,0,-1
575 340 m 0,4,5
 653 340 653 340 691.5 312 c 128,-1,6
 730 284 730 284 730 241.5 c 128,-1,7
 730 199 730 199 694.5 169.5 c 128,-1,8
 659 140 659 140 614.5 126 c 0,9,10
 480.648684211 83.8894736842 480.648684211 83.8894736842 445 45 c 1,11,-1
 655 45 l 1,12,13
 662.741935484 83.7096774194 662.741935484 83.7096774194 687 111 c 2,14,-1
 695 120 l 1,15,-1
 715 120 l 1,16,-1
 715 0 l 1,17,-1
 415 0 l 1,18,-1
 415 25 l 2,19,20
 415 58 415 58 435 84 c 128,-1,21
 455 110 455 110 483.5 127 c 128,-1,22
 512 144 512 144 541 161.5 c 0,23,24
 610 203.137931034 610 203.137931034 610 261.568965517 c 128,-1,25
 610 320 610 320 555 320 c 1,26,-1
 505 315 l 1,27,-1
 505 220 l 1,28,29
 490 215 490 215 469.5 215 c 128,-1,30
 449 215 449 215 432 228 c 128,-1,31
 415 241 415 241 415 265 c 0,32,33
 415 340 415 340 575 340 c 0,4,5
225 700 m 1,34,-1
 225 390 l 1,35,-1
 285 385 l 1,36,-1
 285 370 l 1,37,-1
 50 370 l 1,38,-1
 50 385 l 1,39,-1
 110 390 l 1,40,-1
 110 620 l 1,41,-1
 55 575 l 1,42,-1
 40 595 l 1,43,-1
 145 700 l 1,44,-1
 225 700 l 1,34,-1
EndSplineSet
Ligature2: "'frac' Diagonal Fractions in Latin lookup 0 subtable" one slash four
EndChar

StartChar: onehalf
Encoding: 189 189 102
Width: 700
Flags: HMW
HStem: 0 90<420 480 595 655 420 420> 70 20<325 325 355 480 595 660> 680 20G<145 225 225 225 615 660 660 660>
VStem: 110 115<390 620 620 620> 480 115<20 70 20 70 90 220 220 220>
LayerCount: 2
Fore
SplineSet
325 70 m 1,0,-1
 325 90 l 1,1,-1
 565 340 l 1,2,-1
 595 340 l 1,3,-1
 595 90 l 1,4,-1
 660 90 l 1,5,-1
 660 70 l 1,6,-1
 595 70 l 1,7,-1
 595 20 l 1,8,-1
 655 15 l 1,9,-1
 655 0 l 1,10,-1
 420 0 l 1,11,-1
 420 15 l 1,12,-1
 480 20 l 1,13,-1
 480 70 l 1,14,-1
 325 70 l 1,0,-1
480 220 m 1,15,-1
 355 90 l 1,16,-1
 480 90 l 1,17,-1
 480 220 l 1,15,-1
615 700 m 1,18,-1
 660 700 l 1,19,-1
 130 0 l 1,20,-1
 80 0 l 1,21,-1
 615 700 l 1,18,-1
225 700 m 1,22,-1
 225 390 l 1,23,-1
 285 385 l 1,24,-1
 285 370 l 1,25,-1
 50 370 l 1,26,-1
 50 385 l 1,27,-1
 110 390 l 1,28,-1
 110 620 l 1,29,-1
 55 575 l 1,30,-1
 40 595 l 1,31,-1
 145 700 l 1,32,-1
 225 700 l 1,22,-1
EndSplineSet
Ligature2: "'frac' Diagonal Fractions in Latin lookup 0 subtable" one slash two
EndChar

StartChar: threequarters
Encoding: 190 190 103
Width: 755
Flags: HMW
HStem: 0 90<475 475 475 535 650 710> 70 20<380 380 410 535 650 715> 360 20<170 197.5 170 255> 360 125<82.5 255> 540 170 585 125<82.5 252.5> 680 20G<670 715 715 715> 690 20<170 195>
VStem: 40 90<411.5 452.5 617.5 658.5> 230 125<429.5 640> 535 115<20 70 20 70 90 220 220 220>
LayerCount: 2
Fore
SplineSet
312 683.5 m 128,-1,1
 350 657 350 657 350 623 c 128,-1,2
 350 589 350 589 317.5 566.5 c 128,-1,3
 285 544 285 544 230 540 c 1,4,5
 289 536 289 536 322 512.5 c 128,-1,6
 355 489 355 489 355 451.5 c 128,-1,7
 355 414 355 414 316.5 387 c 128,-1,8
 278 360 278 360 200 360 c 0,9,10
 40 360 40 360 40 435 c 0,11,12
 40 459 40 459 57 472 c 128,-1,13
 74 485 74 485 95 485 c 1,14,-1
 130 480 l 1,15,-1
 130 385 l 1,16,17
 160 380 160 380 183 380 c 128,-1,18
 206 380 206 380 220.5 400 c 128,-1,19
 235 420 235 420 235 454.5 c 128,-1,20
 235 489 235 489 220.5 509.5 c 128,-1,21
 206 530 206 530 180 530 c 2,22,-1
 130 530 l 1,23,-1
 130 550 l 1,24,-1
 175 550 l 2,25,26
 201 550 201 550 215.5 569.5 c 128,-1,27
 230 589 230 589 230 619.5 c 128,-1,28
 230 650 230 650 216 670 c 128,-1,29
 202 690 202 690 180 690 c 1,30,-1
 130 685 l 1,31,-1
 130 590 l 1,32,33
 115 585 115 585 94.5 585 c 128,-1,34
 74 585 74 585 57 598 c 128,-1,35
 40 611 40 611 40 635 c 0,36,37
 40 710 40 710 200 710 c 0,38,0
 274 710 274 710 312 683.5 c 128,-1,1
670 700 m 1,39,-1
 715 700 l 1,40,-1
 185 0 l 1,41,-1
 135 0 l 1,42,-1
 670 700 l 1,39,-1
380 70 m 1,43,-1
 380 90 l 1,44,-1
 620 340 l 1,45,-1
 650 340 l 1,46,-1
 650 90 l 1,47,-1
 715 90 l 1,48,-1
 715 70 l 1,49,-1
 650 70 l 1,50,-1
 650 20 l 1,51,-1
 710 15 l 1,52,-1
 710 0 l 1,53,-1
 475 0 l 1,54,-1
 475 15 l 1,55,-1
 535 20 l 1,56,-1
 535 70 l 1,57,-1
 380 70 l 1,43,-1
535 220 m 1,58,-1
 410 90 l 1,59,-1
 535 90 l 1,60,-1
 535 220 l 1,58,-1
EndSplineSet
Ligature2: "'frac' Diagonal Fractions in Latin lookup 0 subtable" three slash four
EndChar

StartChar: ordfeminine
Encoding: 170 170 104
Width: 470
Flags: HMW
HStem: 360 25<182.5 200> 535 20<227.5 255> 585 125<102.5 267.5> 690 20<180 207.5>
VStem: 40 115<430 480> 60 95 255 115<448 535 535 535 555 560 390 580 390 620>
LayerCount: 2
Fore
SplineSet
165 525 m 1,0,1
 155 500 155 500 155 460 c 0,2,3
 155 385 155 385 190 385 c 0,4,5
 208 385 208 385 224 400.5 c 128,-1,6
 240 416 240 416 247.5 432 c 2,7,-1
 255 448 l 1,8,-1
 255 535 l 1,9,10
 207 535 207 535 175.5 527.5 c 2,11,-1
 165 525 l 1,0,1
255 555 m 1,12,-1
 255 580 l 2,13,14
 255 636 255 636 237 663 c 128,-1,15
 219 690 219 690 190 690 c 1,16,-1
 150 685 l 1,17,-1
 150 590 l 1,18,19
 135 585 135 585 114.5 585 c 128,-1,20
 94 585 94 585 77 598 c 128,-1,21
 60 611 60 611 60 635 c 0,22,23
 60 710 60 710 220 710 c 0,24,25
 291 710 291 710 330.5 670.5 c 128,-1,26
 370 631 370 631 370 560 c 2,27,-1
 370 390 l 1,28,-1
 430 385 l 1,29,-1
 430 370 l 1,30,-1
 360 370 l 2,31,32
 315 370 315 370 294 394.5 c 0,33,34
 275 416.666666667 275 416.666666667 270 440 c 1,35,36
 266.620689655 429.862068966 266.620689655 429.862068966 255.810344828 413.931034483 c 128,-1,37
 245 398 245 398 233.5 387.5 c 0,38,39
 203.380952381 360 203.380952381 360 152.19047619 360 c 128,-1,40
 101 360 101 360 70.5 387 c 128,-1,41
 40 414 40 414 40 460 c 0,42,43
 40 496.875 40 496.875 55 525 c 1,44,45
 155 555 155 555 255 555 c 1,12,-1
EndSplineSet
EndChar

StartChar: i
Encoding: 105 105 105
Width: 380
Flags: HMW
HStem: 0 21G<40 370 40 40> 480 20G<40 170 170 210> 540 170<182.5 227.5>
VStem: 120 170<25 380 25 475 25 475 602.5 647.5>
LayerCount: 2
Fore
SplineSet
120 625 m 128,-1,1
 120 659 120 659 145.5 684.5 c 128,-1,2
 171 710 171 710 205 710 c 128,-1,3
 239 710 239 710 264.5 684.5 c 128,-1,4
 290 659 290 659 290 625 c 128,-1,5
 290 591 290 591 264.5 565.5 c 128,-1,6
 239 540 239 540 205 540 c 128,-1,7
 171 540 171 540 145.5 565.5 c 128,-1,0
 120 591 120 591 120 625 c 128,-1,1
120 25 m 1,8,-1
 120 475 l 1,9,-1
 40 485 l 1,10,-1
 40 500 l 1,11,-1
 170 500 l 2,12,13
 290 500 290 500 290 380 c 2,14,-1
 290 25 l 1,15,-1
 370 15 l 1,16,-1
 370 0 l 1,17,-1
 40 0 l 1,18,-1
 40 15 l 1,19,-1
 120 25 l 1,8,-1
EndSplineSet
EndChar

StartChar: grave
Encoding: 96 96 106
Width: 240
Flags: HMW
HStem: 530 21G<166 210 166 166> 680 20G<30 160 160 160>
LayerCount: 2
Fore
SplineSet
30 700 m 1,0,-1
 160 700 l 1,1,-1
 210 530 l 1,2,-1
 166 530 l 1,3,-1
 30 700 l 1,0,-1
EndSplineSet
EndChar

StartChar: bar
Encoding: 124 124 107
Width: 255
Flags: HMW
HStem: -200 21G<100 155 100 100> 681 20G<100 155 155 155>
VStem: 100 55<-200 701 -200 701>
LayerCount: 2
Fore
SplineSet
100 701 m 1,0,-1
 155 701 l 1,1,-1
 155 -200 l 1,2,-1
 100 -200 l 1,3,-1
 100 701 l 1,0,-1
EndSplineSet
EndChar

StartChar: asciitilde
Encoding: 126 126 108
Width: 545
Flags: HMW
HStem: 225 110<365 442.5> 320 110<102.5 180>
LayerCount: 2
Fore
SplineSet
366.5 225 m 0,0,1
 333 225 333 225 299 240 c 128,-1,2
 265 255 265 255 243.5 272.5 c 0,3,4
 185.142857143 320 185.142857143 320 144.571428571 320 c 128,-1,5
 104 320 104 320 80.5 302.5 c 128,-1,6
 57 285 57 285 51 267.5 c 2,7,-1
 45 250 l 1,8,-1
 30 250 l 1,9,10
 30 307.454545455 30 307.454545455 57 359 c 0,11,12
 94.1904761905 430 94.1904761905 430 175 430 c 0,13,14
 222 430 222 430 262.5 406 c 128,-1,15
 303 382 303 382 337.5 358.5 c 128,-1,16
 372 335 372 335 406.5 335 c 128,-1,17
 441 335 441 335 464.5 352.5 c 128,-1,18
 488 370 488 370 494 387.5 c 2,19,-1
 500 405 l 1,20,-1
 515 405 l 1,21,22
 515 347.545454545 515 347.545454545 488 296 c 0,23,24
 450.80952381 225 450.80952381 225 366.5 225 c 0,0,1
EndSplineSet
EndChar

StartChar: quotesinglbase
Encoding: 8218 8218 109
Width: 280
Flags: HMW
HStem: -133 21G<97 97> -10 160<114 149>
VStem: 60 160<46.5 84 -31.5 93.5>
LayerCount: 2
Fore
SplineSet
97 -133 m 1,0,-1
 88 -114 l 1,1,2
 142.98089172 -100.25477707 142.98089172 -100.25477707 172.5 -42.5 c 0,3,4
 184 -20 184 -20 187 8 c 1,5,6
 163 -10 163 -10 133 -10 c 128,-1,7
 103 -10 103 -10 81.5 12.5 c 128,-1,8
 60 35 60 35 60 70 c 128,-1,9
 60 105 60 105 81.5 127.5 c 128,-1,10
 103 150 103 150 137.5 150 c 128,-1,11
 172 150 172 150 196 124.5 c 128,-1,12
 220 99 220 99 220 52 c 128,-1,13
 220 5 220 5 207.5 -31 c 128,-1,14
 195 -67 195 -67 176.5 -85.5 c 0,15,16
 139.105263158 -122.894736842 139.105263158 -122.894736842 109.5 -130 c 2,17,-1
 97 -133 l 1,0,-1
EndSplineSet
EndChar

StartChar: quotedblbase
Encoding: 8222 8222 110
Width: 490
Flags: HMW
HStem: -133 21G<97 97 307 307> -10 160<114 149 324 359>
VStem: 60 160<46.5 84 -31.5 93.5> 270 160<46.5 84 -31.5 93.5>
LayerCount: 2
Fore
SplineSet
97 -133 m 1,0,-1
 88 -114 l 1,1,2
 142.98089172 -100.25477707 142.98089172 -100.25477707 172.5 -42.5 c 0,3,4
 184 -20 184 -20 187 8 c 1,5,6
 163 -10 163 -10 133 -10 c 128,-1,7
 103 -10 103 -10 81.5 12.5 c 128,-1,8
 60 35 60 35 60 70 c 128,-1,9
 60 105 60 105 81.5 127.5 c 128,-1,10
 103 150 103 150 137.5 150 c 128,-1,11
 172 150 172 150 196 124.5 c 128,-1,12
 220 99 220 99 220 52 c 128,-1,13
 220 5 220 5 207.5 -31 c 128,-1,14
 195 -67 195 -67 176.5 -85.5 c 0,15,16
 139.105263158 -122.894736842 139.105263158 -122.894736842 109.5 -130 c 2,17,-1
 97 -133 l 1,0,-1
307 -133 m 1,18,-1
 298 -114 l 1,19,20
 352.98089172 -100.25477707 352.98089172 -100.25477707 382.5 -42.5 c 0,21,22
 394 -20 394 -20 397 8 c 1,23,24
 373 -10 373 -10 343 -10 c 128,-1,25
 313 -10 313 -10 291.5 12.5 c 128,-1,26
 270 35 270 35 270 70 c 128,-1,27
 270 105 270 105 291.5 127.5 c 128,-1,28
 313 150 313 150 347.5 150 c 128,-1,29
 382 150 382 150 406 124.5 c 128,-1,30
 430 99 430 99 430 52 c 128,-1,31
 430 5 430 5 417.5 -31 c 128,-1,32
 405 -67 405 -67 386.5 -85.5 c 0,33,34
 349.105263158 -122.894736842 349.105263158 -122.894736842 319.5 -130 c 2,35,-1
 307 -133 l 1,18,-1
EndSplineSet
EndChar

StartChar: quoteleft
Encoding: 8216 8216 111
Width: 280
Flags: HMW
HStem: 427 160<131 166 131 166> 690 20G<183 183>
VStem: 60 160<493 530.5 483.5 608.5>
LayerCount: 2
Fore
SplineSet
183 710 m 1,0,-1
 192 691 l 1,1,2
 137.01910828 677.25477707 137.01910828 677.25477707 107.5 619.5 c 0,3,4
 96 597 96 597 93 569 c 1,5,6
 117 587 117 587 147 587 c 128,-1,7
 177 587 177 587 198.5 564.5 c 128,-1,8
 220 542 220 542 220 507 c 128,-1,9
 220 472 220 472 198.5 449.5 c 128,-1,10
 177 427 177 427 142.5 427 c 128,-1,11
 108 427 108 427 84 452.5 c 128,-1,12
 60 478 60 478 60 525 c 128,-1,13
 60 572 60 572 72.5 608 c 128,-1,14
 85 644 85 644 103.5 662.5 c 0,15,16
 140.894736842 699.894736842 140.894736842 699.894736842 170.5 707 c 2,17,-1
 183 710 l 1,0,-1
EndSplineSet
EndChar

StartChar: quoteright
Encoding: 8217 8217 112
Width: 280
Flags: HMW
HStem: 427 21G<97 97> 550 160<114 149>
VStem: 60 160<606.5 644 528.5 653.5>
LayerCount: 2
Fore
SplineSet
97 427 m 1,0,-1
 88 446 l 1,1,2
 142.98089172 459.74522293 142.98089172 459.74522293 172.5 517.5 c 0,3,4
 184 540 184 540 187 568 c 1,5,6
 163 550 163 550 133 550 c 128,-1,7
 103 550 103 550 81.5 572.5 c 128,-1,8
 60 595 60 595 60 630 c 128,-1,9
 60 665 60 665 81.5 687.5 c 128,-1,10
 103 710 103 710 137.5 710 c 128,-1,11
 172 710 172 710 196 684.5 c 128,-1,12
 220 659 220 659 220 612 c 128,-1,13
 220 565 220 565 207.5 529 c 128,-1,14
 195 493 195 493 176.5 474.5 c 0,15,16
 139.105263158 437.105263158 139.105263158 437.105263158 109.5 430 c 2,17,-1
 97 427 l 1,0,-1
EndSplineSet
EndChar

StartChar: quotedblright
Encoding: 8221 8221 113
Width: 490
Flags: HMW
HStem: 427 21G<97 97 307 307> 550 160<114 149 324 359>
VStem: 60 160<606.5 644 528.5 653.5> 270 160<606.5 644 528.5 653.5>
LayerCount: 2
Fore
SplineSet
97 427 m 1,0,-1
 88 446 l 1,1,2
 142.98089172 459.74522293 142.98089172 459.74522293 172.5 517.5 c 0,3,4
 184 540 184 540 187 568 c 1,5,6
 163 550 163 550 133 550 c 128,-1,7
 103 550 103 550 81.5 572.5 c 128,-1,8
 60 595 60 595 60 630 c 128,-1,9
 60 665 60 665 81.5 687.5 c 128,-1,10
 103 710 103 710 137.5 710 c 128,-1,11
 172 710 172 710 196 684.5 c 128,-1,12
 220 659 220 659 220 612 c 128,-1,13
 220 565 220 565 207.5 529 c 128,-1,14
 195 493 195 493 176.5 474.5 c 0,15,16
 139.105263158 437.105263158 139.105263158 437.105263158 109.5 430 c 2,17,-1
 97 427 l 1,0,-1
307 427 m 1,18,-1
 298 446 l 1,19,20
 352.98089172 459.74522293 352.98089172 459.74522293 382.5 517.5 c 0,21,22
 394 540 394 540 397 568 c 1,23,24
 373 550 373 550 343 550 c 128,-1,25
 313 550 313 550 291.5 572.5 c 128,-1,26
 270 595 270 595 270 630 c 128,-1,27
 270 665 270 665 291.5 687.5 c 128,-1,28
 313 710 313 710 347.5 710 c 128,-1,29
 382 710 382 710 406 684.5 c 128,-1,30
 430 659 430 659 430 612 c 128,-1,31
 430 565 430 565 417.5 529 c 128,-1,32
 405 493 405 493 386.5 474.5 c 0,33,34
 349.105263158 437.105263158 349.105263158 437.105263158 319.5 430 c 2,35,-1
 307 427 l 1,18,-1
EndSplineSet
EndChar

StartChar: quotedblleft
Encoding: 8220 8220 114
Width: 490
Flags: HMW
HStem: 427 160<131 166 131 166 341 376> 690 20G<183 183 393 393>
VStem: 60 160<493 530.5 483.5 608.5> 270 160<493 530.5 483.5 608.5>
LayerCount: 2
Fore
SplineSet
393 710 m 1,0,-1
 402 691 l 1,1,2
 347.01910828 677.25477707 347.01910828 677.25477707 317.5 619.5 c 0,3,4
 306 597 306 597 303 569 c 1,5,6
 327 587 327 587 357 587 c 128,-1,7
 387 587 387 587 408.5 564.5 c 128,-1,8
 430 542 430 542 430 507 c 128,-1,9
 430 472 430 472 408.5 449.5 c 128,-1,10
 387 427 387 427 352.5 427 c 128,-1,11
 318 427 318 427 294 452.5 c 128,-1,12
 270 478 270 478 270 525 c 128,-1,13
 270 572 270 572 282.5 608 c 128,-1,14
 295 644 295 644 313.5 662.5 c 0,15,16
 350.894736842 699.894736842 350.894736842 699.894736842 380.5 707 c 2,17,-1
 393 710 l 1,0,-1
183 710 m 1,18,-1
 192 691 l 1,19,20
 137.01910828 677.25477707 137.01910828 677.25477707 107.5 619.5 c 0,21,22
 96 597 96 597 93 569 c 1,23,24
 117 587 117 587 147 587 c 128,-1,25
 177 587 177 587 198.5 564.5 c 128,-1,26
 220 542 220 542 220 507 c 128,-1,27
 220 472 220 472 198.5 449.5 c 128,-1,28
 177 427 177 427 142.5 427 c 128,-1,29
 108 427 108 427 84 452.5 c 128,-1,30
 60 478 60 478 60 525 c 128,-1,31
 60 572 60 572 72.5 608 c 128,-1,32
 85 644 85 644 103.5 662.5 c 0,33,34
 140.894736842 699.894736842 140.894736842 699.894736842 170.5 707 c 2,35,-1
 183 710 l 1,18,-1
EndSplineSet
EndChar

StartChar: endash
Encoding: 8211 8211 115
Width: 565
Flags: HMW
HStem: 290 45<30 535 30 535>
LayerCount: 2
Fore
SplineSet
535 290 m 1,0,-1
 30 290 l 1,1,-1
 30 335 l 1,2,-1
 535 335 l 1,3,-1
 535 290 l 1,0,-1
EndSplineSet
EndChar

StartChar: emdash
Encoding: 8212 8212 116
Width: 805
Flags: HMW
HStem: 290 45<30 775 30 775>
LayerCount: 2
Fore
SplineSet
775 290 m 1,0,-1
 30 290 l 1,1,-1
 30 335 l 1,2,-1
 775 335 l 1,3,-1
 775 290 l 1,0,-1
EndSplineSet
EndChar

StartChar: guilsinglright
Encoding: 8250 8250 117
Width: 410
Flags: HMW
HStem: 0 21G<60 60> 480 20G<60 60>
LayerCount: 2
Fore
SplineSet
295 250 m 1,0,-1
 40 475 l 1,1,-1
 60 500 l 1,2,-1
 410 250 l 1,3,-1
 60 0 l 1,4,-1
 40 25 l 1,5,-1
 295 250 l 1,0,-1
EndSplineSet
EndChar

StartChar: logicalnot
Encoding: 172 172 118
Width: 415
Flags: HMW
HStem: 250 21G<340 340 340 385> 340 45<30 340 30 385>
VStem: 340 45<250 340 340 340>
LayerCount: 2
Fore
SplineSet
340 250 m 1,0,-1
 340 340 l 1,1,-1
 30 340 l 1,2,-1
 30 385 l 1,3,-1
 385 385 l 1,4,-1
 385 250 l 1,5,-1
 340 250 l 1,0,-1
EndSplineSet
EndChar

StartChar: dieresis
Encoding: 168 168 119
Width: 305
Flags: HMW
HStem: 700 120<42.5 77.5 228 263.5>
VStem: 0 120<742.5 777.5> 185 120<742.5 777.5>
LayerCount: 2
Fore
SplineSet
60 700 m 128,-1,1
 34 700 34 700 17 717 c 128,-1,2
 0 734 0 734 0 760 c 128,-1,3
 0 786 0 786 17 803 c 128,-1,4
 34 820 34 820 60 820 c 128,-1,5
 86 820 86 820 103 803 c 128,-1,6
 120 786 120 786 120 760 c 128,-1,7
 120 734 120 734 103 717 c 128,-1,0
 86 700 86 700 60 700 c 128,-1,1
288.5 717 m 128,-1,9
 272 700 272 700 245.5 700 c 128,-1,10
 219 700 219 700 202 717 c 128,-1,11
 185 734 185 734 185 760 c 128,-1,12
 185 786 185 786 202 803 c 128,-1,13
 219 820 219 820 245.5 820 c 128,-1,14
 272 820 272 820 288.5 803 c 128,-1,15
 305 786 305 786 305 760 c 128,-1,8
 305 734 305 734 288.5 717 c 128,-1,9
EndSplineSet
EndChar

StartChar: periodcentered
Encoding: 183 183 120
Width: 300
Flags: HMW
HStem: 270 160<126.5 173.5>
VStem: 70 160<326.5 373.5>
LayerCount: 2
Fore
SplineSet
150 270 m 128,-1,1
 115 270 115 270 92.5 292.5 c 128,-1,2
 70 315 70 315 70 350 c 128,-1,3
 70 385 70 385 92.5 407.5 c 128,-1,4
 115 430 115 430 150 430 c 128,-1,5
 185 430 185 430 207.5 407.5 c 128,-1,6
 230 385 230 385 230 350 c 128,-1,7
 230 315 230 315 207.5 292.5 c 128,-1,0
 185 270 185 270 150 270 c 128,-1,1
EndSplineSet
EndChar

StartChar: bullet
Encoding: 8226 8226 121
Width: 365
Flags: HMW
HStem: 230 205<152 212.5>
VStem: 80 205<302 362.5>
LayerCount: 2
Fore
SplineSet
256.5 258.5 m 128,-1,1
 228 230 228 230 182.5 230 c 128,-1,2
 137 230 137 230 108.5 258.5 c 128,-1,3
 80 287 80 287 80 332.5 c 128,-1,4
 80 378 80 378 108.5 406.5 c 128,-1,5
 137 435 137 435 182.5 435 c 128,-1,6
 228 435 228 435 256.5 406.5 c 128,-1,7
 285 378 285 378 285 332.5 c 128,-1,0
 285 287 285 287 256.5 258.5 c 128,-1,1
EndSplineSet
EndChar

StartChar: acute
Encoding: 180 180 122
Width: 180
Flags: HMW
HStem: 700 21G<0 44 0 0> 850 20G<50 180 180 180>
LayerCount: 2
Fore
SplineSet
50 870 m 1,0,-1
 180 870 l 1,1,-1
 44 700 l 1,2,-1
 0 700 l 1,3,-1
 50 870 l 1,0,-1
EndSplineSet
EndChar

StartChar: exclamdown
Encoding: 161 161 123
Width: 340
Flags: HMW
HStem: -215 21G<142.5 197.5> 350 160<146.5 193.5>
VStem: 70 200<-135 -100> 90 160<406.5 453.5>
LayerCount: 2
Fore
SplineSet
190 285 m 1,0,-1
 270 -100 l 1,1,2
 270 -151 270 -151 241 -183 c 128,-1,3
 212 -215 212 -215 170 -215 c 128,-1,4
 128 -215 128 -215 99 -183 c 128,-1,5
 70 -151 70 -151 70 -100 c 1,6,-1
 150 285 l 1,7,-1
 190 285 l 1,0,-1
170 510 m 128,-1,9
 205 510 205 510 227.5 487.5 c 128,-1,10
 250 465 250 465 250 430 c 128,-1,11
 250 395 250 395 227.5 372.5 c 128,-1,12
 205 350 205 350 170 350 c 128,-1,13
 135 350 135 350 112.5 372.5 c 128,-1,14
 90 395 90 395 90 430 c 128,-1,15
 90 465 90 465 112.5 487.5 c 128,-1,8
 135 510 135 510 170 510 c 128,-1,9
EndSplineSet
EndChar

StartChar: questiondown
Encoding: 191 191 124
Width: 590
Flags: HMW
HStem: -215 25<305 377.5 305 402.5> -215 205<222.5 512.5> 350 160<306.5 353.5>
VStem: 40 170<-75 12.5 -95 45> 250 160<406.5 453.5> 305 50<205 285 180 285> 440 130<-117.5 -65 -117.5 -15 -117.5 -15>
LayerCount: 2
Fore
SplineSet
305 205 m 1,0,-1
 305 285 l 1,1,-1
 355 285 l 1,2,-1
 355 180 l 1,3,4
 210 112 210 112 210 -45 c 0,5,6
 210 -120 210 -120 245 -155 c 128,-1,7
 280 -190 280 -190 355 -190 c 0,8,9
 392.857142857 -190 392.857142857 -190 429 -178.5 c 2,10,-1
 440 -175 l 1,11,-1
 440 -15 l 1,12,13
 460 -10 460 -10 492.5 -10 c 128,-1,14
 525 -10 525 -10 547.5 -31.5 c 128,-1,15
 570 -53 570 -53 570 -85 c 0,16,17
 570 -138 570 -138 503.5 -176.5 c 128,-1,18
 437 -215 437 -215 308.5 -215 c 128,-1,19
 180 -215 180 -215 110 -161 c 128,-1,20
 40 -107 40 -107 40 -20 c 0,21,22
 40 41 40 41 81.5 90 c 128,-1,23
 123 139 123 139 180 165 c 128,-1,24
 237 191 237 191 305 205 c 1,0,-1
330 510 m 128,-1,26
 365 510 365 510 387.5 487.5 c 128,-1,27
 410 465 410 465 410 430 c 128,-1,28
 410 395 410 395 387.5 372.5 c 128,-1,29
 365 350 365 350 330 350 c 128,-1,30
 295 350 295 350 272.5 372.5 c 128,-1,31
 250 395 250 395 250 430 c 128,-1,32
 250 465 250 465 272.5 487.5 c 128,-1,25
 295 510 295 510 330 510 c 128,-1,26
EndSplineSet
EndChar

StartChar: divide
Encoding: 247 247 125
Width: 530
Flags: HMW
HStem: 105 130<246 284> 310 45<30 500 30 500> 430 130<246 284>
VStem: 200 130<151 189 476 514>
CounterMasks: 1 e0
LayerCount: 2
Fore
SplineSet
500 310 m 1,0,-1
 30 310 l 1,1,-1
 30 355 l 1,2,-1
 500 355 l 1,3,-1
 500 310 l 1,0,-1
265 105 m 128,-1,5
 236 105 236 105 218 123.5 c 128,-1,6
 200 142 200 142 200 170 c 128,-1,7
 200 198 200 198 218 216.5 c 128,-1,8
 236 235 236 235 265 235 c 128,-1,9
 294 235 294 235 312 216.5 c 128,-1,10
 330 198 330 198 330 170 c 128,-1,11
 330 142 330 142 312 123.5 c 128,-1,4
 294 105 294 105 265 105 c 128,-1,5
265 430 m 128,-1,13
 236 430 236 430 218 448 c 128,-1,14
 200 466 200 466 200 495 c 128,-1,15
 200 524 200 524 218 542 c 128,-1,16
 236 560 236 560 265 560 c 128,-1,17
 294 560 294 560 312 542 c 128,-1,18
 330 524 330 524 330 495 c 128,-1,19
 330 466 330 466 312 448 c 128,-1,12
 294 430 294 430 265 430 c 128,-1,13
EndSplineSet
EndChar

StartChar: multiply
Encoding: 215 215 126
Width: 448
Flags: HMW
HStem: 156 21G<376 376> 504 20G<72 72>
LayerCount: 2
Fore
SplineSet
408 188 m 1,0,-1
 376 156 l 1,1,-1
 224 308 l 1,2,-1
 79 163 l 1,3,-1
 47 195 l 1,4,-1
 192 340 l 1,5,-1
 40 492 l 1,6,-1
 72 524 l 1,7,-1
 224 372 l 1,8,-1
 369 517 l 1,9,-1
 401 485 l 1,10,-1
 256 340 l 1,11,-1
 408 188 l 1,0,-1
EndSplineSet
EndChar

StartChar: ellipsis
Encoding: 8230 8230 127
Width: 760
Flags: HMW
HStem: -10 160<116.5 163.5 356.5 403.5 596.5 643.5>
VStem: 60 160<46.5 93.5> 300 160<46.5 93.5> 540 160<46.5 93.5>
CounterMasks: 1 70
LayerCount: 2
Fore
SplineSet
140 -10 m 128,-1,1
 105 -10 105 -10 82.5 12.5 c 128,-1,2
 60 35 60 35 60 70 c 128,-1,3
 60 105 60 105 82.5 127.5 c 128,-1,4
 105 150 105 150 140 150 c 128,-1,5
 175 150 175 150 197.5 127.5 c 128,-1,6
 220 105 220 105 220 70 c 128,-1,7
 220 35 220 35 197.5 12.5 c 128,-1,0
 175 -10 175 -10 140 -10 c 128,-1,1
380 -10 m 128,-1,9
 345 -10 345 -10 322.5 12.5 c 128,-1,10
 300 35 300 35 300 70 c 128,-1,11
 300 105 300 105 322.5 127.5 c 128,-1,12
 345 150 345 150 380 150 c 128,-1,13
 415 150 415 150 437.5 127.5 c 128,-1,14
 460 105 460 105 460 70 c 128,-1,15
 460 35 460 35 437.5 12.5 c 128,-1,8
 415 -10 415 -10 380 -10 c 128,-1,9
620 -10 m 128,-1,17
 585 -10 585 -10 562.5 12.5 c 128,-1,18
 540 35 540 35 540 70 c 128,-1,19
 540 105 540 105 562.5 127.5 c 128,-1,20
 585 150 585 150 620 150 c 128,-1,21
 655 150 655 150 677.5 127.5 c 128,-1,22
 700 105 700 105 700 70 c 128,-1,23
 700 35 700 35 677.5 12.5 c 128,-1,16
 655 -10 655 -10 620 -10 c 128,-1,17
EndSplineSet
EndChar

StartChar: Euro
Encoding: 8364 8364 128
Width: 760
Flags: HMW
HStem: -15 25<432.5 520 432.5 522.5> 270 35<30 117 30 121 30 117 293 505 293 293> 385 35<40 116 40 119 292 515> 490 20G<655 700 655 655> 680 20G<680 700 700 700> 690 25<415.5 485 368.5 495>
VStem: 115 177<342 420>
LayerCount: 2
Fore
SplineSet
115 350 m 2,0,-1
 116 385 l 1,1,-1
 40 385 l 1,2,-1
 40 420 l 1,3,-1
 119 420 l 1,4,5
 129 496 129 496 162 555 c 128,-1,6
 195 614 195 614 240 647.5 c 0,7,8
 330.671641791 715 330.671641791 715 430 715 c 0,9,10
 510.347826087 715 510.347826087 715 571.5 666.5 c 0,11,12
 586 655 586 655 593 647.5 c 2,13,-1
 600 640 l 1,14,15
 613.333333333 663.333333333 613.333333333 663.333333333 636.666666667 681.666666667 c 128,-1,16
 660 700 660 700 680 700 c 2,17,-1
 700 700 l 1,18,-1
 700 510 l 1,19,-1
 655 510 l 1,20,21
 624 582 624 582 568.5 636 c 128,-1,22
 513 690 513 690 445 690 c 0,23,24
 393 690 393 690 347.5 624 c 128,-1,25
 302 558 302 558 292 420 c 1,26,-1
 515 420 l 1,27,-1
 515 385 l 1,28,-1
 290 385 l 1,29,-1
 290 350 l 2,30,31
 290 319 290 319 291 305 c 1,32,-1
 505 305 l 1,33,-1
 505 270 l 1,34,-1
 293 270 l 1,35,36
 305 134 305 134 355 72 c 128,-1,37
 405 10 405 10 473 10 c 128,-1,38
 541 10 541 10 600 49.5 c 128,-1,39
 659 89 659 89 687 150 c 1,40,-1
 710 135 l 1,41,42
 631 -15 631 -15 460 -15 c 0,43,44
 289.255639098 -15 289.255639098 -15 190.5 105.5 c 0,45,46
 136 172 136 172 121 270 c 1,47,-1
 30 270 l 1,48,-1
 30 305 l 1,49,-1
 117 305 l 1,50,51
 115 333 115 333 115 350 c 2,0,-1
EndSplineSet
EndChar

StartChar: perthousand
Encoding: 8240 8240 129
Width: 1125
Flags: HMW
HStem: -10 20<540 570 540 610 910 940> 0 21G<85 135 85 85> 320 20<540 570 910 940> 360 20<185 215 185 255> 680 20G<620 665 665 665> 690 20<185 215>
VStem: 30 115<482.5 587.5> 255 115<482.5 587.5 482.5 592.5> 385 115<112.5 217.5> 610 115<112.5 217.5 112.5 222.5> 755 115<112.5 217.5> 980 115<112.5 217.5 112.5 222.5>
LayerCount: 2
Fore
SplineSet
620 700 m 1,0,-1
 665 700 l 1,1,-1
 135 0 l 1,2,-1
 85 0 l 1,3,-1
 620 700 l 1,0,-1
255 535 m 128,-1,5
 255 690 255 690 200 690 c 128,-1,6
 145 690 145 690 145 535 c 128,-1,7
 145 380 145 380 200 380 c 128,-1,4
 255 380 255 380 255 535 c 128,-1,5
370 535 m 128,-1,9
 370 455 370 455 325.5 407.5 c 128,-1,10
 281 360 281 360 200 360 c 128,-1,11
 119 360 119 360 74.5 407.5 c 128,-1,12
 30 455 30 455 30 535 c 128,-1,13
 30 615 30 615 74.5 662.5 c 128,-1,14
 119 710 119 710 200 710 c 128,-1,15
 281 710 281 710 325.5 662.5 c 128,-1,8
 370 615 370 615 370 535 c 128,-1,9
610 165 m 128,-1,17
 610 320 610 320 555 320 c 128,-1,18
 500 320 500 320 500 165 c 128,-1,19
 500 10 500 10 555 10 c 128,-1,16
 610 10 610 10 610 165 c 128,-1,17
725 165 m 128,-1,21
 725 85 725 85 680.5 37.5 c 128,-1,22
 636 -10 636 -10 555 -10 c 128,-1,23
 474 -10 474 -10 429.5 37.5 c 128,-1,24
 385 85 385 85 385 165 c 128,-1,25
 385 245 385 245 429.5 292.5 c 128,-1,26
 474 340 474 340 555 340 c 128,-1,27
 636 340 636 340 680.5 292.5 c 128,-1,20
 725 245 725 245 725 165 c 128,-1,21
980 165 m 128,-1,29
 980 320 980 320 925 320 c 128,-1,30
 870 320 870 320 870 165 c 128,-1,31
 870 10 870 10 925 10 c 128,-1,28
 980 10 980 10 980 165 c 128,-1,29
1095 165 m 128,-1,33
 1095 85 1095 85 1050.5 37.5 c 128,-1,34
 1006 -10 1006 -10 925 -10 c 128,-1,35
 844 -10 844 -10 799.5 37.5 c 128,-1,36
 755 85 755 85 755 165 c 128,-1,37
 755 245 755 245 799.5 292.5 c 128,-1,38
 844 340 844 340 925 340 c 128,-1,39
 1006 340 1006 340 1050.5 292.5 c 128,-1,32
 1095 245 1095 245 1095 165 c 128,-1,33
EndSplineSet
Ligature2: "'frac' Diagonal Fractions in Latin lookup 0 subtable" zero slash zero zero
EndChar

StartChar: uni00AD
Encoding: 173 173 130
Width: 335
Flags: HMW
HStem: 310 55<30 305 30 305>
LayerCount: 2
Fore
SplineSet
305 310 m 1,0,-1
 30 310 l 1,1,-1
 30 365 l 1,2,-1
 305 365 l 1,3,-1
 305 310 l 1,0,-1
EndSplineSet
EndChar

StartChar: degree
Encoding: 176 176 131
Width: 440
Flags: HMW
HStem: 360 35<185 255 185 267.5> 675 35<185 255>
VStem: 50 45<492.5 577.5 492.5 585> 345 45<492.5 577.5>
LayerCount: 2
Fore
SplineSet
220 675 m 128,-1,1
 166 675 166 675 130.5 636.5 c 128,-1,2
 95 598 95 598 95 535 c 128,-1,3
 95 472 95 472 130.5 433.5 c 128,-1,4
 166 395 166 395 220 395 c 128,-1,5
 274 395 274 395 309.5 433.5 c 128,-1,6
 345 472 345 472 345 535 c 128,-1,7
 345 598 345 598 309.5 636.5 c 128,-1,0
 274 675 274 675 220 675 c 128,-1,1
220 710 m 128,-1,9
 292 710 292 710 341 660 c 128,-1,10
 390 610 390 610 390 535 c 128,-1,11
 390 460 390 460 341 410 c 128,-1,12
 292 360 292 360 220 360 c 128,-1,13
 148 360 148 360 99 410 c 128,-1,14
 50 460 50 460 50 535 c 128,-1,15
 50 610 50 610 99 660 c 128,-1,8
 148 710 148 710 220 710 c 128,-1,9
EndSplineSet
EndChar

StartChar: plusminus
Encoding: 177 177 132
Width: 535
Flags: HMW
HStem: 55 45<30 505 30 505> 310 45<30 245 30 245 290 505> 560 20G<245 290 290 290>
VStem: 245 45<85 310 355 580>
LayerCount: 2
Fore
SplineSet
290 85 m 1,0,-1
 245 85 l 1,1,-1
 245 310 l 1,2,-1
 30 310 l 1,3,-1
 30 355 l 1,4,-1
 245 355 l 1,5,-1
 245 580 l 1,6,-1
 290 580 l 1,7,-1
 290 355 l 1,8,-1
 505 355 l 1,9,-1
 505 310 l 1,10,-1
 290 310 l 1,11,-1
 290 85 l 1,0,-1
30 100 m 1,12,-1
 505 100 l 1,13,-1
 505 55 l 1,14,-1
 30 55 l 1,15,-1
 30 100 l 1,12,-1
EndSplineSet
EndChar

StartChar: brokenbar
Encoding: 166 166 133
Width: 255
Flags: HMW
HStem: -200 21G<100 155 100 100> 681 20G<100 155 155 155>
VStem: 100 55<-200 160 340 701>
LayerCount: 2
Fore
SplineSet
155 -200 m 1,0,-1
 100 -200 l 1,1,-1
 100 160 l 1,2,-1
 155 160 l 1,3,-1
 155 -200 l 1,0,-1
100 701 m 1,4,-1
 155 701 l 1,5,-1
 155 340 l 1,6,-1
 100 340 l 1,7,-1
 100 701 l 1,4,-1
EndSplineSet
EndChar

StartChar: yen
Encoding: 165 165 134
Width: 675
Flags: HMW
HStem: 0 200<180 260 430 510 180 180> 165 35<110 260 110 260 430 580> 285 35<110 230 110 249 110 230 442 580> 680 20G<-20 120 120 155 480 705 705 705>
VStem: 260 170<25 165 25 165 200 265 265 265>
LayerCount: 2
Fore
SplineSet
580 165 m 1,0,-1
 430 165 l 1,1,-1
 430 25 l 1,2,-1
 510 15 l 1,3,-1
 510 0 l 1,4,-1
 180 0 l 1,5,-1
 180 15 l 1,6,-1
 260 25 l 1,7,-1
 260 165 l 1,8,-1
 110 165 l 1,9,-1
 110 200 l 1,10,-1
 260 200 l 1,11,-1
 260 265 l 1,12,-1
 249 285 l 1,13,-1
 110 285 l 1,14,-1
 110 320 l 1,15,-1
 230 320 l 1,16,-1
 35 675 l 1,17,-1
 -20 685 l 1,18,-1
 -20 700 l 1,19,-1
 120 700 l 2,20,21
 170 700 170 700 200 676.5 c 128,-1,22
 230 653 230 653 260 600 c 2,23,-1
 410 330 l 1,24,-1
 578 670 l 1,25,-1
 480 685 l 1,26,-1
 480 700 l 1,27,-1
 705 700 l 1,28,-1
 705 685 l 1,29,-1
 613 670 l 1,30,-1
 442 320 l 1,31,-1
 580 320 l 1,32,-1
 580 285 l 1,33,-1
 430 285 l 1,34,-1
 430 200 l 1,35,-1
 580 200 l 1,36,-1
 580 165 l 1,0,-1
EndSplineSet
EndChar

StartChar: cent
Encoding: 162 162 135
Width: 560
Flags: HMW
HStem: -80 21G<310 345 310 310> 330 184<345 472.5> 560 20G<310 345 345 345>
VStem: 50 170<170.5 326.5 170.5 340.5> 310 35<-80 -15 -15 -15 13 485 485 485 515 580> 400 130<385 440>
LayerCount: 2
Fore
SplineSet
345 -80 m 1,0,-1
 310 -80 l 1,1,-1
 310 -15 l 1,2,3
 196 -12 196 -12 123 54.5 c 128,-1,4
 50 121 50 121 50 250 c 128,-1,5
 50 379 50 379 123 445.5 c 128,-1,6
 196 512 196 512 310 515 c 1,7,-1
 310 580 l 1,8,-1
 345 580 l 1,9,-1
 345 514 l 1,10,11
 530 508 530 508 530 405 c 0,12,13
 530 373 530 373 507.5 351.5 c 128,-1,14
 485 330 485 330 445 330 c 1,15,-1
 400 335 l 1,16,-1
 400 485 l 1,17,18
 375 490 375 490 350 490 c 2,19,-1
 345 490 l 1,20,-1
 345 10 l 1,21,22
 398 11 398 11 440.5 44 c 128,-1,23
 483 77 483 77 507 120 c 1,24,-1
 530 105 l 1,25,26
 460 -4 460 -4 345 -14 c 1,27,-1
 345 -80 l 1,0,-1
242 416.5 m 128,-1,29
 220 362 220 362 220 248.5 c 128,-1,30
 220 135 220 135 242.5 80 c 128,-1,31
 265 25 265 25 310 13 c 1,32,-1
 310 485 l 1,33,28
 264 471 264 471 242 416.5 c 128,-1,29
EndSplineSet
EndChar

StartChar: currency
Encoding: 164 164 136
Width: 710
Flags: HMW
HStem: 0 220<50 130 300 380 50 130> 185 35<50 130 50 130 300 555> 280 30<300 350 300 350 350 370> 675 25<130 130 300 300 300 350>
VStem: 50 250<0 185 15 185 25 220 25 220 310 315 315 315> 130 170<25 185 25 185 220 280 25 280 315 675> 510 170<430 552.5>
LayerCount: 2
Fore
SplineSet
555 185 m 1,0,-1
 300 185 l 1,1,-1
 300 25 l 1,2,-1
 380 15 l 1,3,-1
 380 0 l 1,4,-1
 50 0 l 1,5,-1
 50 15 l 1,6,-1
 130 25 l 1,7,-1
 130 185 l 1,8,-1
 50 185 l 1,9,-1
 50 220 l 1,10,-1
 130 220 l 1,11,-1
 130 280 l 1,12,-1
 50 280 l 1,13,-1
 50 315 l 1,14,-1
 130 315 l 1,15,-1
 130 675 l 1,16,-1
 50 685 l 1,17,-1
 50 700 l 1,18,-1
 370 700 l 2,19,20
 680 700 680 700 680 490 c 128,-1,21
 680 280 680 280 370 280 c 2,22,-1
 300 280 l 1,23,-1
 300 220 l 1,24,-1
 555 220 l 1,25,-1
 555 185 l 1,0,-1
300 310 m 1,26,-1
 350 310 l 2,27,28
 510 310 510 310 510 492.5 c 0,29,30
 510 675 510 675 350 675 c 2,31,-1
 300 675 l 1,32,-1
 300 310 l 1,26,-1
EndSplineSet
EndChar

StartChar: tilde
Encoding: 732 732 137
Width: 290
Flags: HMW
HStem: 680 20G<5 20 5 5> 745 20 745 70<55 100>
LayerCount: 2
Fore
SplineSet
160 790 m 128,-1,1
 192 765 192 765 212 765 c 128,-1,2
 232 765 232 765 247 776.5 c 128,-1,3
 262 788 262 788 266 799 c 2,4,-1
 270 810 l 1,5,-1
 285 810 l 1,6,7
 285 738.918918919 285 738.918918919 238.5 707.5 c 0,8,9
 220 695 220 695 191 695 c 128,-1,10
 162 695 162 695 130 720 c 128,-1,11
 98 745 98 745 78 745 c 128,-1,12
 58 745 58 745 43 733.5 c 128,-1,13
 28 722 28 722 24 711 c 2,14,-1
 20 700 l 1,15,-1
 5 700 l 1,16,17
 5 771.081081081 5 771.081081081 51.5 802.5 c 0,18,19
 70 815 70 815 99 815 c 128,-1,0
 128 815 128 815 160 790 c 128,-1,1
EndSplineSet
EndChar

StartChar: less
Encoding: 60 60 138
Width: 490
Flags: HMW
HStem: -10 21G<440 440> 570 20G<440 440>
LayerCount: 2
Fore
SplineSet
0 290 m 1,0,-1
 440 590 l 1,1,-1
 440 530 l 1,2,-1
 90 290 l 1,3,-1
 440 50 l 1,4,-1
 440 -10 l 1,5,-1
 0 290 l 1,0,-1
EndSplineSet
EndChar

StartChar: guilsinglleft
Encoding: 8249 8249 139
Width: 410
Flags: HMW
HStem: 0 21G<350 350> 480 20G<350 350>
LayerCount: 2
Fore
SplineSet
370 475 m 1,0,-1
 115 250 l 1,1,-1
 370 25 l 1,2,-1
 350 0 l 1,3,-1
 0 250 l 1,4,-1
 350 500 l 1,5,-1
 370 475 l 1,0,-1
EndSplineSet
EndChar

StartChar: caron
Encoding: 711 711 140
Width: 310
Flags: HMW
HStem: 700 21G<130 180 130 130> 840 20G<0 44 44 44 266 310 310 310>
LayerCount: 2
Fore
SplineSet
180 700 m 1,0,-1
 130 700 l 1,1,-1
 0 860 l 1,2,-1
 44 860 l 1,3,-1
 155 769 l 1,4,-1
 266 860 l 1,5,-1
 310 860 l 1,6,-1
 180 700 l 1,0,-1
EndSplineSet
EndChar

StartChar: circumflex
Encoding: 710 710 141
Width: 310
Flags: HMW
HStem: 700 21G<0 44 0 0 266 310 266 266> 840 20G<130 180 180 180>
LayerCount: 2
Fore
SplineSet
130 860 m 1,0,-1
 180 860 l 1,1,-1
 310 700 l 1,2,-1
 266 700 l 1,3,-1
 155 791 l 1,4,-1
 44 700 l 1,5,-1
 0 700 l 1,6,-1
 130 860 l 1,0,-1
EndSplineSet
EndChar

StartChar: Aacute
Encoding: 193 193 144
Width: 760
Flags: HMW
HStem: 0 230<196 205 -20 436 196 635 196 780> 200 30<196 436 196 449 183 436> 690 20G<375 405 405 405> 760 21G<370 414 370 370> 910 20G<420 550 550 550>
LayerCount: 2
Fore
SplineSet
-20 15 m 1,0,-1
 72 30 l 1,1,-1
 375 710 l 1,2,-1
 405 710 l 1,3,-1
 715 25 l 1,4,-1
 780 15 l 1,5,-1
 780 0 l 1,6,-1
 635 0 l 2,7,8
 540 0 540 0 490 110 c 2,9,-1
 449 200 l 1,10,-1
 183 200 l 1,11,-1
 107 30 l 1,12,-1
 205 15 l 1,13,-1
 205 0 l 1,14,-1
 -20 0 l 1,15,-1
 -20 15 l 1,0,-1
315 497 m 1,16,-1
 196 230 l 1,17,-1
 436 230 l 1,18,-1
 315 497 l 1,16,-1
420 930 m 1,19,-1
 550 930 l 1,20,-1
 414 760 l 1,21,-1
 370 760 l 1,22,-1
 420 930 l 1,19,-1
EndSplineSet
EndChar

StartChar: Atilde
Encoding: 195 195 146
Width: 760
Flags: HMW
HStem: 0 230<196 205 -20 436 196 635 196 780> 200 30<196 436 196 449 183 436> 690 20G<375 405 405 405> 745 20G<255 270 255 255> 810 20 810 70<305 350>
LayerCount: 2
Fore
SplineSet
-20 15 m 1,0,-1
 72 30 l 1,1,-1
 375 710 l 1,2,-1
 405 710 l 1,3,-1
 715 25 l 1,4,-1
 780 15 l 1,5,-1
 780 0 l 1,6,-1
 635 0 l 2,7,8
 540 0 540 0 490 110 c 2,9,-1
 449 200 l 1,10,-1
 183 200 l 1,11,-1
 107 30 l 1,12,-1
 205 15 l 1,13,-1
 205 0 l 1,14,-1
 -20 0 l 1,15,-1
 -20 15 l 1,0,-1
315 497 m 1,16,-1
 196 230 l 1,17,-1
 436 230 l 1,18,-1
 315 497 l 1,16,-1
410 855 m 128,-1,20
 442 830 442 830 462 830 c 128,-1,21
 482 830 482 830 497 841 c 128,-1,22
 512 852 512 852 516 863.5 c 2,23,-1
 520 875 l 1,24,-1
 535 875 l 1,25,26
 535 803.918918919 535 803.918918919 488.5 772.5 c 0,27,28
 470 760 470 760 441 760 c 128,-1,29
 412 760 412 760 380 785 c 128,-1,30
 348 810 348 810 328 810 c 128,-1,31
 308 810 308 810 293 799 c 128,-1,32
 278 788 278 788 274 776.5 c 2,33,-1
 270 765 l 1,34,-1
 255 765 l 1,35,36
 255 836.081081081 255 836.081081081 301.5 867.5 c 0,37,38
 320 880 320 880 349 880 c 128,-1,19
 378 880 378 880 410 855 c 128,-1,20
EndSplineSet
EndChar

StartChar: Eacute
Encoding: 201 201 149
Width: 705
Flags: HMW
HStem: 0 25<130 130 300 550> 345 25<300 435 300 435> 490 20G<615 645 615 615> 675 25<130 130 300 300 300 550> 760 21G<362 406 362 362> 910 20G<412 542 542 542>
VStem: 130 170<25 345 370 675> 550 95<25 25 675 675>
LayerCount: 2
Fore
SplineSet
300 25 m 1,0,-1
 550 25 l 1,1,2
 552 67 552 67 568.5 108.5 c 128,-1,3
 585 150 585 150 600 170 c 2,4,-1
 615 190 l 1,5,-1
 645 190 l 1,6,-1
 645 0 l 1,7,-1
 50 0 l 1,8,-1
 50 15 l 1,9,-1
 130 25 l 1,10,-1
 130 675 l 1,11,-1
 50 685 l 1,12,-1
 50 700 l 1,13,-1
 645 700 l 1,14,-1
 645 510 l 1,15,-1
 615 510 l 1,16,17
 608 518 608 518 598 532 c 128,-1,18
 588 546 588 546 570 589.5 c 128,-1,19
 552 633 552 633 550 675 c 1,20,-1
 300 675 l 1,21,-1
 300 370 l 1,22,-1
 435 370 l 1,23,24
 439 398 439 398 452.5 435.5 c 128,-1,25
 466 473 466 473 480 495 c 1,26,-1
 505 495 l 1,27,-1
 505 220 l 1,28,-1
 480 220 l 1,29,30
 466 242 466 242 452.5 279.5 c 128,-1,31
 439 317 439 317 435 345 c 1,32,-1
 300 345 l 1,33,-1
 300 25 l 1,0,-1
412 930 m 1,34,-1
 542 930 l 1,35,-1
 406 760 l 1,36,-1
 362 760 l 1,37,-1
 412 930 l 1,34,-1
EndSplineSet
EndChar

StartChar: Edieresis
Encoding: 203 203 151
Width: 705
Flags: HMW
HStem: 0 25<130 130 300 550> 345 25<300 435 300 435> 490 20G<615 645 615 615> 675 25<130 130 300 300 300 550> 770 120<262.5 297.5 448 483.5>
VStem: 130 170<25 345 370 675> 220 120<812.5 847.5> 405 120<812.5 847.5> 550 95<25 25 675 675>
LayerCount: 2
Fore
SplineSet
300 25 m 1,0,-1
 550 25 l 1,1,2
 552 67 552 67 568.5 108.5 c 128,-1,3
 585 150 585 150 600 170 c 2,4,-1
 615 190 l 1,5,-1
 645 190 l 1,6,-1
 645 0 l 1,7,-1
 50 0 l 1,8,-1
 50 15 l 1,9,-1
 130 25 l 1,10,-1
 130 675 l 1,11,-1
 50 685 l 1,12,-1
 50 700 l 1,13,-1
 645 700 l 1,14,-1
 645 510 l 1,15,-1
 615 510 l 1,16,17
 608 518 608 518 598 532 c 128,-1,18
 588 546 588 546 570 589.5 c 128,-1,19
 552 633 552 633 550 675 c 1,20,-1
 300 675 l 1,21,-1
 300 370 l 1,22,-1
 435 370 l 1,23,24
 439 398 439 398 452.5 435.5 c 128,-1,25
 466 473 466 473 480 495 c 1,26,-1
 505 495 l 1,27,-1
 505 220 l 1,28,-1
 480 220 l 1,29,30
 466 242 466 242 452.5 279.5 c 128,-1,31
 439 317 439 317 435 345 c 1,32,-1
 300 345 l 1,33,-1
 300 25 l 1,0,-1
280 770 m 128,-1,35
 254 770 254 770 237 787 c 128,-1,36
 220 804 220 804 220 830 c 128,-1,37
 220 856 220 856 237 873 c 128,-1,38
 254 890 254 890 280 890 c 128,-1,39
 306 890 306 890 323 873 c 128,-1,40
 340 856 340 856 340 830 c 128,-1,41
 340 804 340 804 323 787 c 128,-1,34
 306 770 306 770 280 770 c 128,-1,35
508.5 787 m 128,-1,43
 492 770 492 770 465.5 770 c 128,-1,44
 439 770 439 770 422 787 c 128,-1,45
 405 804 405 804 405 830 c 128,-1,46
 405 856 405 856 422 873 c 128,-1,47
 439 890 439 890 465.5 890 c 128,-1,48
 492 890 492 890 508.5 873 c 128,-1,49
 525 856 525 856 525 830 c 128,-1,42
 525 804 525 804 508.5 787 c 128,-1,43
EndSplineSet
EndChar

StartChar: Iacute
Encoding: 205 205 153
Width: 430
Flags: HMW
HStem: 0 21G<50 380 50 50> 680 20G<50 380 380 380> 760 21G<185 229 185 185> 910 20G<235 365 365 365>
VStem: 130 170<25 675 25 675>
LayerCount: 2
Fore
SplineSet
300 675 m 1,0,-1
 300 25 l 1,1,-1
 380 15 l 1,2,-1
 380 0 l 1,3,-1
 50 0 l 1,4,-1
 50 15 l 1,5,-1
 130 25 l 1,6,-1
 130 675 l 1,7,-1
 50 685 l 1,8,-1
 50 700 l 1,9,-1
 380 700 l 1,10,-1
 380 685 l 1,11,-1
 300 675 l 1,0,-1
235 930 m 1,12,-1
 365 930 l 1,13,-1
 229 760 l 1,14,-1
 185 760 l 1,15,-1
 235 930 l 1,12,-1
EndSplineSet
EndChar

StartChar: Idieresis
Encoding: 207 207 155
Width: 430
Flags: HMW
HStem: 0 21G<50 380 50 50> 680 20G<50 380 380 380> 770 120<104.5 139.5 290 325.5>
VStem: 62 120<812.5 847.5> 130 170<25 675 25 675> 247 120<812.5 847.5>
LayerCount: 2
Fore
SplineSet
300 675 m 1,0,-1
 300 25 l 1,1,-1
 380 15 l 1,2,-1
 380 0 l 1,3,-1
 50 0 l 1,4,-1
 50 15 l 1,5,-1
 130 25 l 1,6,-1
 130 675 l 1,7,-1
 50 685 l 1,8,-1
 50 700 l 1,9,-1
 380 700 l 1,10,-1
 380 685 l 1,11,-1
 300 675 l 1,0,-1
122 770 m 128,-1,13
 96 770 96 770 79 787 c 128,-1,14
 62 804 62 804 62 830 c 128,-1,15
 62 856 62 856 79 873 c 128,-1,16
 96 890 96 890 122 890 c 128,-1,17
 148 890 148 890 165 873 c 128,-1,18
 182 856 182 856 182 830 c 128,-1,19
 182 804 182 804 165 787 c 128,-1,12
 148 770 148 770 122 770 c 128,-1,13
350.5 787 m 128,-1,21
 334 770 334 770 307.5 770 c 128,-1,22
 281 770 281 770 264 787 c 128,-1,23
 247 804 247 804 247 830 c 128,-1,24
 247 856 247 856 264 873 c 128,-1,25
 281 890 281 890 307.5 890 c 128,-1,26
 334 890 334 890 350.5 873 c 128,-1,27
 367 856 367 856 367 830 c 128,-1,20
 367 804 367 804 350.5 787 c 128,-1,21
EndSplineSet
EndChar

StartChar: Oacute
Encoding: 211 211 158
Width: 780
Flags: HMW
HStem: -15 20<355 425 355 467.5> 695 20<355 425> 760 21G<360 404 360 360> 910 20G<410 540 540 540>
VStem: 60 175<220 480 220 482.5> 545 175<220 480>
LayerCount: 2
Fore
SplineSet
235 350 m 128,-1,1
 235 172 235 172 281.5 88.5 c 128,-1,2
 328 5 328 5 390 5 c 128,-1,3
 452 5 452 5 498.5 88.5 c 128,-1,4
 545 172 545 172 545 350 c 128,-1,5
 545 528 545 528 498.5 611.5 c 128,-1,6
 452 695 452 695 390 695 c 128,-1,7
 328 695 328 695 281.5 611.5 c 128,-1,0
 235 528 235 528 235 350 c 128,-1,1
720 350 m 128,-1,9
 720 255 720 255 690.5 182 c 128,-1,10
 661 109 661 109 612.5 67.5 c 128,-1,11
 564 26 564 26 507.5 5.5 c 128,-1,12
 451 -15 451 -15 390 -15 c 128,-1,13
 329 -15 329 -15 272.5 5.5 c 128,-1,14
 216 26 216 26 167.5 67.5 c 128,-1,15
 119 109 119 109 89.5 182 c 128,-1,16
 60 255 60 255 60 350 c 128,-1,17
 60 445 60 445 89.5 518 c 128,-1,18
 119 591 119 591 167.5 632.5 c 128,-1,19
 216 674 216 674 272.5 694.5 c 128,-1,20
 329 715 329 715 390 715 c 128,-1,21
 451 715 451 715 507.5 694.5 c 128,-1,22
 564 674 564 674 612.5 632.5 c 128,-1,23
 661 591 661 591 690.5 518 c 128,-1,8
 720 445 720 445 720 350 c 128,-1,9
410 930 m 1,24,-1
 540 930 l 1,25,-1
 404 760 l 1,26,-1
 360 760 l 1,27,-1
 410 930 l 1,24,-1
EndSplineSet
EndChar

StartChar: Otilde
Encoding: 213 213 160
Width: 780
Flags: HMW
HStem: -15 20<355 425 355 467.5> 695 20<355 425> 755 20G<250 265 250 250> 820 20 820 70<300 345>
VStem: 60 175<220 480 220 482.5> 545 175<220 480>
LayerCount: 2
Fore
SplineSet
235 350 m 128,-1,1
 235 172 235 172 281.5 88.5 c 128,-1,2
 328 5 328 5 390 5 c 128,-1,3
 452 5 452 5 498.5 88.5 c 128,-1,4
 545 172 545 172 545 350 c 128,-1,5
 545 528 545 528 498.5 611.5 c 128,-1,6
 452 695 452 695 390 695 c 128,-1,7
 328 695 328 695 281.5 611.5 c 128,-1,0
 235 528 235 528 235 350 c 128,-1,1
720 350 m 128,-1,9
 720 255 720 255 690.5 182 c 128,-1,10
 661 109 661 109 612.5 67.5 c 128,-1,11
 564 26 564 26 507.5 5.5 c 128,-1,12
 451 -15 451 -15 390 -15 c 128,-1,13
 329 -15 329 -15 272.5 5.5 c 128,-1,14
 216 26 216 26 167.5 67.5 c 128,-1,15
 119 109 119 109 89.5 182 c 128,-1,16
 60 255 60 255 60 350 c 128,-1,17
 60 445 60 445 89.5 518 c 128,-1,18
 119 591 119 591 167.5 632.5 c 128,-1,19
 216 674 216 674 272.5 694.5 c 128,-1,20
 329 715 329 715 390 715 c 128,-1,21
 451 715 451 715 507.5 694.5 c 128,-1,22
 564 674 564 674 612.5 632.5 c 128,-1,23
 661 591 661 591 690.5 518 c 128,-1,8
 720 445 720 445 720 350 c 128,-1,9
405 865 m 128,-1,25
 438 840 438 840 457.5 840 c 128,-1,26
 477 840 477 840 492 851 c 128,-1,27
 507 862 507 862 511 873.5 c 2,28,-1
 515 885 l 1,29,-1
 530 885 l 1,30,31
 530 813.918918919 530 813.918918919 483.5 782.5 c 0,32,33
 465 770 465 770 436 770 c 128,-1,34
 407 770 407 770 374.5 795 c 128,-1,35
 342 820 342 820 322.5 820 c 128,-1,36
 303 820 303 820 288 809 c 128,-1,37
 273 798 273 798 269 786.5 c 2,38,-1
 265 775 l 1,39,-1
 250 775 l 1,40,41
 250 846.081081081 250 846.081081081 296.5 877.5 c 0,42,43
 315 890 315 890 343.5 890 c 128,-1,24
 372 890 372 890 405 865 c 128,-1,25
EndSplineSet
EndChar

StartChar: Uacute
Encoding: 218 218 163
Width: 790
Flags: HMW
HStem: -15 25<407.5 510 407.5 512.5> 680 20G<40 370 370 370 545 770 770 770> 740 21G<405 449 405 405> 890 20G<455 585 585 585>
VStem: 120 170<265 675> 645 35<265 670>
LayerCount: 2
Fore
SplineSet
645 265 m 2,0,-1
 645 670 l 1,1,-1
 545 685 l 1,2,-1
 545 700 l 1,3,-1
 770 700 l 1,4,-1
 770 685 l 1,5,-1
 680 670 l 1,6,-1
 680 265 l 2,7,8
 680 133 680 133 614.5 59 c 128,-1,9
 549 -15 549 -15 445 -15 c 0,10,11
 287 -15 287 -15 203.5 60 c 128,-1,12
 120 135 120 135 120 265 c 2,13,-1
 120 675 l 1,14,-1
 40 685 l 1,15,-1
 40 700 l 1,16,-1
 370 700 l 1,17,-1
 370 685 l 1,18,-1
 290 675 l 1,19,-1
 290 265 l 2,20,21
 290 133 290 133 334.5 71.5 c 128,-1,22
 379 10 379 10 459.5 10 c 0,23,24
 540 10 540 10 592.5 77 c 128,-1,25
 645 144 645 144 645 265 c 2,0,-1
455 910 m 1,26,-1
 585 910 l 1,27,-1
 449 740 l 1,28,-1
 405 740 l 1,29,-1
 455 910 l 1,26,-1
EndSplineSet
EndChar

StartChar: Udieresis
Encoding: 220 220 165
Width: 790
Flags: HMW
HStem: -15 25<407.5 510 407.5 512.5> 680 20G<40 370 370 370 545 770 770 770> 760 120<334.5 369.5 520 555.5>
VStem: 120 170<265 675> 292 120<802.5 837.5> 477 120<802.5 837.5> 645 35<265 670>
LayerCount: 2
Fore
SplineSet
645 265 m 2,0,-1
 645 670 l 1,1,-1
 545 685 l 1,2,-1
 545 700 l 1,3,-1
 770 700 l 1,4,-1
 770 685 l 1,5,-1
 680 670 l 1,6,-1
 680 265 l 2,7,8
 680 133 680 133 614.5 59 c 128,-1,9
 549 -15 549 -15 445 -15 c 0,10,11
 287 -15 287 -15 203.5 60 c 128,-1,12
 120 135 120 135 120 265 c 2,13,-1
 120 675 l 1,14,-1
 40 685 l 1,15,-1
 40 700 l 1,16,-1
 370 700 l 1,17,-1
 370 685 l 1,18,-1
 290 675 l 1,19,-1
 290 265 l 2,20,21
 290 133 290 133 334.5 71.5 c 128,-1,22
 379 10 379 10 459.5 10 c 128,-1,23
 540 10 540 10 592.5 77 c 128,-1,24
 645 144 645 144 645 265 c 2,0,-1
352 760 m 128,-1,26
 326 760 326 760 309 777 c 128,-1,27
 292 794 292 794 292 820 c 128,-1,28
 292 846 292 846 309 863 c 128,-1,29
 326 880 326 880 352 880 c 128,-1,30
 378 880 378 880 395 863 c 128,-1,31
 412 846 412 846 412 820 c 128,-1,32
 412 794 412 794 395 777 c 128,-1,25
 378 760 378 760 352 760 c 128,-1,26
580.5 777 m 128,-1,34
 564 760 564 760 537.5 760 c 128,-1,35
 511 760 511 760 494 777 c 128,-1,36
 477 794 477 794 477 820 c 128,-1,37
 477 846 477 846 494 863 c 128,-1,38
 511 880 511 880 537.5 880 c 128,-1,39
 564 880 564 880 580.5 863 c 128,-1,40
 597 846 597 846 597 820 c 128,-1,33
 597 794 597 794 580.5 777 c 128,-1,34
EndSplineSet
EndChar

StartChar: aacute
Encoding: 225 225 168
Width: 640
Flags: HMW
HStem: -15 35<267.5 302.5> 0 20 245 25<345 380> 330 185<147.5 380> 490 25<257.5 305> 571 21G<280 324 280 280> 721 20G<330 460 460 460>
VStem: 50 170<102.5 165 102.5 172.5> 90 130<385 442.5> 380 170<115 245 245 245 270 290 25 370>
LayerCount: 2
Fore
SplineSet
230 230 m 1,0,1
 220 180 220 180 220 150 c 0,2,3
 220 83 220 83 238 51.5 c 128,-1,4
 256 20 256 20 284 20 c 128,-1,5
 312 20 312 20 335.5 44 c 128,-1,6
 359 68 359 68 369.5 91.5 c 2,7,-1
 380 115 l 1,8,-1
 380 245 l 1,9,10
 312.5 245 312.5 245 252 234 c 2,11,-1
 230 230 l 1,0,1
90 405 m 0,12,13
 90 515 90 515 309 515 c 0,14,15
 418 515 418 515 484 454 c 128,-1,16
 550 393 550 393 550 290 c 2,17,-1
 550 25 l 1,18,-1
 630 15 l 1,19,-1
 630 0 l 1,20,-1
 535 0 l 2,21,22
 503 0 503 0 477 10.5 c 128,-1,23
 451 21 451 21 437.5 35.5 c 0,24,25
 409.984732824 65.0534351145 409.984732824 65.0534351145 403 89.5 c 2,26,-1
 400 100 l 1,27,28
 395 87.5 l 2,29,30
 392 80 392 80 378.5 60 c 128,-1,31
 365 40 365 40 349 25 c 128,-1,32
 333 10 333 10 305 -2.5 c 128,-1,33
 277 -15 277 -15 245 -15 c 0,34,35
 151 -15 151 -15 100.5 28 c 128,-1,36
 50 71 50 71 50 150 c 0,37,38
 50 193.125 50 193.125 65 225 c 1,39,40
 220 265 220 265 380 270 c 1,41,-1
 380 290 l 2,42,43
 380 404 380 404 353 447 c 128,-1,44
 326 490 326 490 270 490 c 1,45,-1
 220 485 l 1,46,-1
 220 335 l 1,47,48
 200 330 200 330 167.5 330 c 128,-1,49
 135 330 135 330 112.5 351.5 c 128,-1,50
 90 373 90 373 90 405 c 0,12,13
330 741 m 1,51,-1
 460 741 l 1,52,-1
 324 571 l 1,53,-1
 280 571 l 1,54,-1
 330 741 l 1,51,-1
EndSplineSet
EndChar

StartChar: atilde
Encoding: 227 227 170
Width: 640
Flags: HMW
HStem: -15 35<267.5 302.5> 0 20 245 25<345 380> 330 185<147.5 380> 490 25<257.5 305> 557 20G<170 185 170 170> 622 20 622 70<220 265>
VStem: 50 170<102.5 165 102.5 172.5> 90 130<385 442.5> 380 170<115 245 245 245 270 290 25 370>
LayerCount: 2
Fore
SplineSet
230 230 m 1,0,1
 220 180 220 180 220 150 c 0,2,3
 220 83 220 83 238 51.5 c 128,-1,4
 256 20 256 20 284 20 c 128,-1,5
 312 20 312 20 335.5 44 c 128,-1,6
 359 68 359 68 369.5 91.5 c 2,7,-1
 380 115 l 1,8,-1
 380 245 l 1,9,10
 312.5 245 312.5 245 252 234 c 2,11,-1
 230 230 l 1,0,1
90 405 m 0,12,13
 90 515 90 515 309 515 c 0,14,15
 418 515 418 515 484 454 c 128,-1,16
 550 393 550 393 550 290 c 2,17,-1
 550 25 l 1,18,-1
 630 15 l 1,19,-1
 630 0 l 1,20,-1
 535 0 l 2,21,22
 503 0 503 0 477 10.5 c 128,-1,23
 451 21 451 21 437.5 35.5 c 0,24,25
 409.984732824 65.0534351145 409.984732824 65.0534351145 403 89.5 c 2,26,-1
 400 100 l 1,27,28
 395 87.5 l 2,29,30
 392 80 392 80 378.5 60 c 128,-1,31
 365 40 365 40 349 25 c 128,-1,32
 333 10 333 10 305 -2.5 c 128,-1,33
 277 -15 277 -15 245 -15 c 0,34,35
 151 -15 151 -15 100.5 28 c 128,-1,36
 50 71 50 71 50 150 c 0,37,38
 50 193.125 50 193.125 65 225 c 1,39,40
 220 265 220 265 380 270 c 1,41,-1
 380 290 l 2,42,43
 380 404 380 404 353 447 c 128,-1,44
 326 490 326 490 270 490 c 1,45,-1
 220 485 l 1,46,-1
 220 335 l 1,47,48
 200 330 200 330 167.5 330 c 128,-1,49
 135 330 135 330 112.5 351.5 c 128,-1,50
 90 373 90 373 90 405 c 0,12,13
325 667 m 128,-1,52
 358 642 358 642 377.5 642 c 128,-1,53
 397 642 397 642 412 653 c 128,-1,54
 427 664 427 664 431 675.5 c 2,55,-1
 435 687 l 1,56,-1
 450 687 l 1,57,58
 450 615.918918919 450 615.918918919 403.5 584.5 c 0,59,60
 385 572 385 572 356.5 572 c 128,-1,61
 328 572 328 572 295 597 c 128,-1,62
 262 622 262 622 242.5 622 c 128,-1,63
 223 622 223 622 208 611 c 128,-1,64
 193 600 193 600 189 588.5 c 2,65,-1
 185 577 l 1,66,-1
 170 577 l 1,67,68
 170 648.081081081 170 648.081081081 216.5 679.5 c 0,69,70
 235 692 235 692 263.5 692 c 128,-1,51
 292 692 292 692 325 667 c 128,-1,52
EndSplineSet
EndChar

StartChar: eacute
Encoding: 233 233 173
Width: 600
Flags: HMW
HStem: -15 25<307.5 372.5> 220 25<220 220> 495 20<282.5 327.5> 571 21G<265 309 265 265> 721 20G<315 445 445 445>
VStem: 50 170<245 300 245 332.5> 390 170<330 387.5 320 402.5>
LayerCount: 2
Fore
SplineSet
545 265 m 1,0,1
 380 225 380 225 220 220 c 1,2,3
 227 10 227 10 340 10 c 0,4,5
 395 10 395 10 439 43 c 128,-1,6
 483 76 483 76 507 120 c 1,7,-1
 530 105 l 1,8,9
 453 -15 453 -15 323 -15 c 128,-1,10
 193 -15 193 -15 121.5 55.5 c 128,-1,11
 50 126 50 126 50 249.5 c 128,-1,12
 50 373 50 373 119 444 c 128,-1,13
 188 515 188 515 309 515 c 128,-1,14
 430 515 430 515 495 465.5 c 128,-1,15
 560 416 560 416 560 340 c 0,16,17
 560 307.857142857 560 307.857142857 548.5 275 c 2,18,-1
 545 265 l 1,0,1
220 300 m 2,19,-1
 220 245 l 1,20,21
 288.125 245 288.125 245 355.5 256 c 2,22,-1
 380 260 l 1,23,24
 390 310 390 310 390 350 c 0,25,26
 390 424 390 424 366 459.5 c 128,-1,27
 342 495 342 495 305 495 c 0,28,29
 220 495 220 495 220 300 c 2,19,-1
315 741 m 1,30,-1
 445 741 l 1,31,-1
 309 571 l 1,32,-1
 265 571 l 1,33,-1
 315 741 l 1,30,-1
EndSplineSet
EndChar

StartChar: edieresis
Encoding: 235 235 175
Width: 600
Flags: HMW
HStem: -15 25<307.5 372.5> 220 25<220 220> 495 20<282.5 327.5> 571 120<194.5 229.5 380 415.5>
VStem: 50 170<245 300 245 332.5> 152 120<613.5 648.5> 337 120<613.5 648.5> 390 170<330 387.5 320 402.5>
LayerCount: 2
Fore
SplineSet
545 265 m 1,0,1
 380 225 380 225 220 220 c 1,2,3
 227 10 227 10 340 10 c 0,4,5
 395 10 395 10 439 43 c 128,-1,6
 483 76 483 76 507 120 c 1,7,-1
 530 105 l 1,8,9
 453 -15 453 -15 323 -15 c 128,-1,10
 193 -15 193 -15 121.5 55.5 c 128,-1,11
 50 126 50 126 50 249.5 c 128,-1,12
 50 373 50 373 119 444 c 128,-1,13
 188 515 188 515 309 515 c 128,-1,14
 430 515 430 515 495 465.5 c 128,-1,15
 560 416 560 416 560 340 c 0,16,17
 560 307.857142857 560 307.857142857 548.5 275 c 2,18,-1
 545 265 l 1,0,1
220 300 m 2,19,-1
 220 245 l 1,20,21
 288.125 245 288.125 245 355.5 256 c 2,22,-1
 380 260 l 1,23,24
 390 310 390 310 390 350 c 0,25,26
 390 424 390 424 366 459.5 c 128,-1,27
 342 495 342 495 305 495 c 0,28,29
 220 495 220 495 220 300 c 2,19,-1
212 571 m 128,-1,31
 186 571 186 571 169 588 c 128,-1,32
 152 605 152 605 152 631 c 128,-1,33
 152 657 152 657 169 674 c 128,-1,34
 186 691 186 691 212 691 c 128,-1,35
 238 691 238 691 255 674 c 128,-1,36
 272 657 272 657 272 631 c 128,-1,37
 272 605 272 605 255 588 c 128,-1,30
 238 571 238 571 212 571 c 128,-1,31
440.5 588 m 128,-1,39
 424 571 424 571 397.5 571 c 128,-1,40
 371 571 371 571 354 588 c 128,-1,41
 337 605 337 605 337 631 c 128,-1,42
 337 657 337 657 354 674 c 128,-1,43
 371 691 371 691 397.5 691 c 128,-1,44
 424 691 424 691 440.5 674 c 128,-1,45
 457 657 457 657 457 631 c 128,-1,38
 457 605 457 605 440.5 588 c 128,-1,39
EndSplineSet
EndChar

StartChar: oacute
Encoding: 243 243 177
Width: 640
Flags: HMW
HStem: -15 20<292.5 347.5 292.5 392.5> 495 20<292.5 347.5> 571 21G<290 334 290 290> 721 20G<340 470 470 470>
VStem: 50 170<157.5 342.5> 420 170<157.5 342.5 157.5 345>
LayerCount: 2
Fore
SplineSet
590 250 m 128,-1,1
 590 119 590 119 513.5 52 c 128,-1,2
 437 -15 437 -15 320 -15 c 128,-1,3
 203 -15 203 -15 126.5 52 c 128,-1,4
 50 119 50 119 50 250 c 128,-1,5
 50 381 50 381 126.5 448 c 128,-1,6
 203 515 203 515 320 515 c 128,-1,7
 437 515 437 515 513.5 448 c 128,-1,0
 590 381 590 381 590 250 c 128,-1,1
220 250 m 128,-1,9
 220 5 220 5 320 5 c 128,-1,10
 420 5 420 5 420 250 c 128,-1,11
 420 495 420 495 320 495 c 128,-1,8
 220 495 220 495 220 250 c 128,-1,9
340 741 m 1,12,-1
 470 741 l 1,13,-1
 334 571 l 1,14,-1
 290 571 l 1,15,-1
 340 741 l 1,12,-1
EndSplineSet
EndChar

StartChar: otilde
Encoding: 245 245 179
Width: 640
Flags: HMW
HStem: -15 20<292.5 347.5 292.5 392.5> 495 20<292.5 347.5> 560 20G<181 196 181 181> 625 20 625 70<231 276>
VStem: 50 170<157.5 342.5> 420 170<157.5 342.5 157.5 345>
LayerCount: 2
Fore
SplineSet
590 250 m 128,-1,1
 590 119 590 119 513.5 52 c 128,-1,2
 437 -15 437 -15 320 -15 c 128,-1,3
 203 -15 203 -15 126.5 52 c 128,-1,4
 50 119 50 119 50 250 c 128,-1,5
 50 381 50 381 126.5 448 c 128,-1,6
 203 515 203 515 320 515 c 128,-1,7
 437 515 437 515 513.5 448 c 128,-1,0
 590 381 590 381 590 250 c 128,-1,1
220 250 m 128,-1,9
 220 5 220 5 320 5 c 128,-1,10
 420 5 420 5 420 250 c 128,-1,11
 420 495 420 495 320 495 c 128,-1,8
 220 495 220 495 220 250 c 128,-1,9
336 670 m 128,-1,13
 368 645 368 645 388 645 c 128,-1,14
 408 645 408 645 423 656.5 c 128,-1,15
 438 668 438 668 442 679 c 2,16,-1
 446 690 l 1,17,-1
 461 690 l 1,18,19
 461 618.918918919 461 618.918918919 414.5 587.5 c 0,20,21
 396 575 396 575 367 575 c 128,-1,22
 338 575 338 575 306 600 c 128,-1,23
 274 625 274 625 254 625 c 128,-1,24
 234 625 234 625 219 613.5 c 128,-1,25
 204 602 204 602 200 591 c 2,26,-1
 196 580 l 1,27,-1
 181 580 l 1,28,29
 181 651.081081081 181 651.081081081 227.5 682.5 c 0,30,31
 246 695 246 695 275 695 c 128,-1,12
 304 695 304 695 336 670 c 128,-1,13
EndSplineSet
EndChar

StartChar: uacute
Encoding: 250 250 182
Width: 720
Flags: HMW
HStem: -15 35<307.5 345> 0 20 480 20G<10 140 140 180 350 680 680 680> 560 21G<295 339 295 295> 710 20G<345 475 475 475>
VStem: 90 170<150 380> 430 170<115 475 25 475>
LayerCount: 2
Fore
SplineSet
430 475 m 1,0,-1
 350 485 l 1,1,-1
 350 500 l 1,2,-1
 680 500 l 1,3,-1
 680 485 l 1,4,-1
 600 475 l 1,5,-1
 600 25 l 1,6,-1
 680 15 l 1,7,-1
 680 0 l 1,8,-1
 585 0 l 2,9,10
 553 0 553 0 527 10.5 c 128,-1,11
 501 21 501 21 487.5 35.5 c 0,12,13
 459.984732824 65.0534351145 459.984732824 65.0534351145 453 89.5 c 2,14,-1
 450 100 l 1,15,16
 433.636363636 59.0909090909 433.636363636 59.0909090909 395 25 c 0,17,18
 378 10 378 10 348.5 -2.5 c 128,-1,19
 319 -15 319 -15 285 -15 c 0,20,21
 191 -15 191 -15 140.5 28 c 128,-1,22
 90 71 90 71 90 150 c 2,23,-1
 90 475 l 1,24,-1
 10 485 l 1,25,-1
 10 500 l 1,26,-1
 140 500 l 2,27,28
 260 500 260 500 260 380 c 2,29,-1
 260 150 l 2,30,31
 260 83 260 83 278 51.5 c 128,-1,32
 296 20 296 20 325 20 c 128,-1,33
 354 20 354 20 380 44 c 128,-1,34
 406 68 406 68 418 91.5 c 2,35,-1
 430 115 l 1,36,-1
 430 475 l 1,0,-1
345 730 m 1,37,-1
 475 730 l 1,38,-1
 339 560 l 1,39,-1
 295 560 l 1,40,-1
 345 730 l 1,37,-1
EndSplineSet
EndChar

StartChar: idieresis
Encoding: 239 239 184
Width: 380
Flags: HMW
HStem: 0 21G<40 370 40 40> 480 20G<40 170 170 210> 580 120<84.5 119.5 270 305.5>
VStem: 42 120<622.5 657.5> 120 170<25 380 25 475 25 475> 227 120<622.5 657.5>
LayerCount: 2
Fore
SplineSet
120 25 m 1,0,-1
 120 475 l 1,1,-1
 40 485 l 1,2,-1
 40 500 l 1,3,-1
 170 500 l 2,4,5
 290 500 290 500 290 380 c 2,6,-1
 290 25 l 1,7,-1
 370 15 l 1,8,-1
 370 0 l 1,9,-1
 40 0 l 1,10,-1
 40 15 l 1,11,-1
 120 25 l 1,0,-1
102 580 m 128,-1,13
 76 580 76 580 59 597 c 128,-1,14
 42 614 42 614 42 640 c 128,-1,15
 42 666 42 666 59 683 c 128,-1,16
 76 700 76 700 102 700 c 128,-1,17
 128 700 128 700 145 683 c 128,-1,18
 162 666 162 666 162 640 c 128,-1,19
 162 614 162 614 145 597 c 128,-1,12
 128 580 128 580 102 580 c 128,-1,13
330.5 597 m 128,-1,21
 314 580 314 580 287.5 580 c 128,-1,22
 261 580 261 580 244 597 c 128,-1,23
 227 614 227 614 227 640 c 128,-1,24
 227 666 227 666 244 683 c 128,-1,25
 261 700 261 700 287.5 700 c 128,-1,26
 314 700 314 700 330.5 683 c 128,-1,27
 347 666 347 666 347 640 c 128,-1,20
 347 614 347 614 330.5 597 c 128,-1,21
EndSplineSet
EndChar

StartChar: udieresis
Encoding: 252 252 185
Width: 720
Flags: HMW
HStem: -15 35<307.5 345> 0 20 480 20G<10 140 140 180 350 680 680 680> 580 120<224.5 259.5 410 445.5>
VStem: 90 170<150 380> 182 120<622.5 657.5> 367 120<622.5 657.5> 430 170<115 475 25 475>
LayerCount: 2
Fore
SplineSet
430 475 m 1,0,-1
 350 485 l 1,1,-1
 350 500 l 1,2,-1
 680 500 l 1,3,-1
 680 485 l 1,4,-1
 600 475 l 1,5,-1
 600 25 l 1,6,-1
 680 15 l 1,7,-1
 680 0 l 1,8,-1
 585 0 l 2,9,10
 553 0 553 0 527 10.5 c 128,-1,11
 501 21 501 21 487.5 35.5 c 0,12,13
 459.984732824 65.0534351145 459.984732824 65.0534351145 453 89.5 c 2,14,-1
 450 100 l 1,15,16
 433.636363636 59.0909090909 433.636363636 59.0909090909 395 25 c 0,17,18
 378 10 378 10 348.5 -2.5 c 128,-1,19
 319 -15 319 -15 285 -15 c 0,20,21
 191 -15 191 -15 140.5 28 c 128,-1,22
 90 71 90 71 90 150 c 2,23,-1
 90 475 l 1,24,-1
 10 485 l 1,25,-1
 10 500 l 1,26,-1
 140 500 l 2,27,28
 260 500 260 500 260 380 c 2,29,-1
 260 150 l 2,30,31
 260 83 260 83 278 51.5 c 128,-1,32
 296 20 296 20 325 20 c 128,-1,33
 354 20 354 20 380 44 c 128,-1,34
 406 68 406 68 418 91.5 c 2,35,-1
 430 115 l 1,36,-1
 430 475 l 1,0,-1
242 580 m 128,-1,38
 216 580 216 580 199 597 c 128,-1,39
 182 614 182 614 182 640 c 128,-1,40
 182 666 182 666 199 683 c 128,-1,41
 216 700 216 700 242 700 c 128,-1,42
 268 700 268 700 285 683 c 128,-1,43
 302 666 302 666 302 640 c 128,-1,44
 302 614 302 614 285 597 c 128,-1,37
 268 580 268 580 242 580 c 128,-1,38
470.5 597 m 128,-1,46
 454 580 454 580 427.5 580 c 128,-1,47
 401 580 401 580 384 597 c 128,-1,48
 367 614 367 614 367 640 c 128,-1,49
 367 666 367 666 384 683 c 128,-1,50
 401 700 401 700 427.5 700 c 128,-1,51
 454 700 454 700 470.5 683 c 128,-1,52
 487 666 487 666 487 640 c 128,-1,45
 487 614 487 614 470.5 597 c 128,-1,46
EndSplineSet
EndChar

StartChar: ydieresis
Encoding: 255 255 187
Width: 584
Flags: HMW
HStem: -216 25<135 162.5 135 170> -216 175<92.5 107.5 67.5 170> 480 20G<-20 115 115 150 400 624 624 624> 580 120<201.5 236.5 387 422.5>
VStem: 10 125<-151 -101> 159 120<622.5 657.5> 344 120<622.5 657.5>
LayerCount: 2
Fore
SplineSet
533 470 m 1,0,-1
 315 -60 l 2,1,2
 251 -216 251 -216 130 -216 c 0,3,4
 74 -216 74 -216 42 -191 c 128,-1,5
 10 -166 10 -166 10 -127.5 c 128,-1,6
 10 -89 10 -89 33 -65 c 128,-1,7
 56 -41 56 -41 95 -41 c 1,8,-1
 135 -46 l 1,9,-1
 135 -191 l 1,10,11
 177 -191 177 -191 216 -156.5 c 128,-1,12
 255 -122 255 -122 280 -60 c 2,13,-1
 296 -20 l 1,14,-1
 35 475 l 1,15,-1
 -20 485 l 1,16,-1
 -20 500 l 1,17,-1
 115 500 l 2,18,19
 165 500 165 500 196.5 476 c 128,-1,20
 228 452 228 452 255 400 c 2,21,-1
 375 172 l 1,22,-1
 498 470 l 1,23,-1
 400 485 l 1,24,-1
 400 500 l 1,25,-1
 624 500 l 1,26,-1
 624 485 l 1,27,-1
 533 470 l 1,0,-1
219 580 m 128,-1,29
 193 580 193 580 176 597 c 128,-1,30
 159 614 159 614 159 640 c 128,-1,31
 159 666 159 666 176 683 c 128,-1,32
 193 700 193 700 219 700 c 128,-1,33
 245 700 245 700 262 683 c 128,-1,34
 279 666 279 666 279 640 c 128,-1,35
 279 614 279 614 262 597 c 128,-1,28
 245 580 245 580 219 580 c 128,-1,29
447.5 597 m 128,-1,37
 431 580 431 580 404.5 580 c 128,-1,38
 378 580 378 580 361 597 c 128,-1,39
 344 614 344 614 344 640 c 128,-1,40
 344 666 344 666 361 683 c 128,-1,41
 378 700 378 700 404.5 700 c 128,-1,42
 431 700 431 700 447.5 683 c 128,-1,43
 464 666 464 666 464 640 c 128,-1,36
 464 614 464 614 447.5 597 c 128,-1,37
EndSplineSet
EndChar

StartChar: Scaron
Encoding: 352 352 190
Width: 675
Flags: HMW
HStem: -15 25<292.5 365 280 447.5> 0 21G<65 85 65 65> 490 20G<550 595 550 550> 680 20G<575 595 595 595> 690 25<305 370 222.5 382.5> 760 21G<302 352 302 302> 900 20G<172 216 216 216 438 482 482 482>
VStem: 60 175<562.5 595> 440 175<107.5 142.5>
LayerCount: 2
Fore
SplineSet
262.5 662.5 m 128,-1,1
 235 635 235 635 235 593.5 c 128,-1,2
 235 552 235 552 257 522.5 c 128,-1,3
 279 493 279 493 325 460 c 2,4,-1
 485 345 l 1,5,6
 615 253 615 253 615 160 c 0,7,8
 615 -15 615 -15 350 -15 c 0,9,10
 267.086956522 -15 267.086956522 -15 197.5 33.5 c 0,11,12
 181 45 181 45 173 52.5 c 2,13,-1
 165 60 l 1,14,15
 151.666666667 36.6666666667 151.666666667 36.6666666667 128.333333333 18.3333333333 c 128,-1,16
 105 0 105 0 85 0 c 2,17,-1
 65 0 l 1,18,-1
 65 190 l 1,19,-1
 110 190 l 1,20,21
 140 121 140 121 200.5 65.5 c 128,-1,22
 261 10 261 10 330 10 c 0,23,24
 382 10 382 10 411 38 c 128,-1,25
 440 66 440 66 440 109.5 c 128,-1,26
 440 153 440 153 419 179 c 128,-1,27
 398 205 398 205 350 240 c 2,28,-1
 190 355 l 1,29,30
 60 447 60 447 60 545 c 0,31,32
 60 715 60 715 315 715 c 0,33,34
 395.52173913 715 395.52173913 715 463 666.5 c 0,35,36
 479 655 479 655 487 647.5 c 2,37,-1
 495 640 l 1,38,39
 508.333333333 663.333333333 508.333333333 663.333333333 531.666666667 681.666666667 c 128,-1,40
 555 700 555 700 575 700 c 2,41,-1
 595 700 l 1,42,-1
 595 510 l 1,43,-1
 550 510 l 1,44,45
 520 579 520 579 460.5 634.5 c 128,-1,46
 401 690 401 690 335 690 c 0,47,0
 290 690 290 690 262.5 662.5 c 128,-1,1
352 760 m 1,48,-1
 302 760 l 1,49,-1
 172 920 l 1,50,-1
 216 920 l 1,51,-1
 327 829 l 1,52,-1
 438 920 l 1,53,-1
 482 920 l 1,54,-1
 352 760 l 1,48,-1
EndSplineSet
EndChar

StartChar: nacute
Encoding: 324 324 194
Width: 720
Flags: HMW
HStem: 0 21G<40 370 40 40 540 580 580 710> 480 20 480 35<375 412.5> 570 21G<335 379 335 335> 720 20G<385 515 515 515>
VStem: 120 170<25 385> 460 170<120 350 25 397.5>
LayerCount: 2
Fore
SplineSet
290 25 m 1,0,-1
 370 15 l 1,1,-1
 370 0 l 1,2,-1
 40 0 l 1,3,-1
 40 15 l 1,4,-1
 120 25 l 1,5,-1
 120 475 l 1,6,-1
 40 485 l 1,7,-1
 40 500 l 1,8,-1
 135 500 l 2,9,10
 167 500 167 500 193 489.5 c 128,-1,11
 219 479 219 479 232.5 464.5 c 0,12,13
 260.015267176 434.946564885 260.015267176 434.946564885 267 410.5 c 2,14,-1
 270 400 l 1,15,16
 286.363636364 440.909090909 286.363636364 440.909090909 325 475 c 0,17,18
 342 490 342 490 371.5 502.5 c 128,-1,19
 401 515 401 515 435 515 c 0,20,21
 529 515 529 515 579.5 472 c 128,-1,22
 630 429 630 429 630 350 c 2,23,-1
 630 25 l 1,24,-1
 710 15 l 1,25,-1
 710 0 l 1,26,-1
 580 0 l 2,27,28
 460 0 460 0 460 120 c 2,29,-1
 460 350 l 2,30,31
 460 417 460 417 442 448.5 c 128,-1,32
 424 480 424 480 395 480 c 128,-1,33
 366 480 366 480 340 456 c 128,-1,34
 314 432 314 432 302 408.5 c 2,35,-1
 290 385 l 1,36,-1
 290 25 l 1,0,-1
385 740 m 1,37,-1
 515 740 l 1,38,-1
 379 570 l 1,39,-1
 335 570 l 1,40,-1
 385 740 l 1,37,-1
EndSplineSet
EndChar

StartChar: itilde
Encoding: 297 297 196
Width: 380
Flags: HMW
HStem: 0 21G<40 370 40 40> 480 20G<40 170 170 210> 560 20G<45 60 45 45> 625 20 625 70<95 140>
VStem: 120 170<25 380 25 475 25 475>
LayerCount: 2
Fore
SplineSet
120 25 m 1,0,-1
 120 475 l 1,1,-1
 40 485 l 1,2,-1
 40 500 l 1,3,-1
 170 500 l 2,4,5
 290 500 290 500 290 380 c 2,6,-1
 290 25 l 1,7,-1
 370 15 l 1,8,-1
 370 0 l 1,9,-1
 40 0 l 1,10,-1
 40 15 l 1,11,-1
 120 25 l 1,0,-1
200.5 670 m 128,-1,13
 233 645 233 645 252.5 645 c 128,-1,14
 272 645 272 645 287 656.5 c 128,-1,15
 302 668 302 668 306 679 c 2,16,-1
 310 690 l 1,17,-1
 325 690 l 1,18,19
 325 618.918918919 325 618.918918919 278.5 587.5 c 0,20,21
 260 575 260 575 231 575 c 128,-1,22
 202 575 202 575 170 600 c 128,-1,23
 138 625 138 625 118 625 c 128,-1,24
 98 625 98 625 83 613.5 c 128,-1,25
 68 602 68 602 64 591 c 2,26,-1
 60 580 l 1,27,-1
 45 580 l 1,28,29
 45 651.081081081 45 651.081081081 91.5 682.5 c 0,30,31
 110 695 110 695 139 695 c 128,-1,12
 168 695 168 695 200.5 670 c 128,-1,13
EndSplineSet
EndChar

StartChar: dotlessi
Encoding: 305 305 197
Width: 380
Flags: HMW
HStem: 0 21G<40 370 40 40> 480 20G<40 170 170 210>
VStem: 120 170<25 380 25 475 25 475>
LayerCount: 2
Fore
SplineSet
120 25 m 1,0,-1
 120 475 l 1,1,-1
 40 485 l 1,2,-1
 40 500 l 1,3,-1
 170 500 l 2,4,5
 290 500 290 500 290 380 c 2,6,-1
 290 25 l 1,7,-1
 370 15 l 1,8,-1
 370 0 l 1,9,-1
 40 0 l 1,10,-1
 40 15 l 1,11,-1
 120 25 l 1,0,-1
EndSplineSet
EndChar

StartChar: Rcaron
Encoding: 344 344 199
Width: 745
Flags: HMW
HStem: 0 21G<50 380 50 50 575 610 610 745> 675 25<130 130 300 360 300 300> 750 21G<347 397 347 347> 890 20G<217 261 261 261 483 527 527 527>
VStem: 130 170<25 310 25 335 335 675> 500 170<452.5 557.5>
LayerCount: 2
Fore
SplineSet
300 335 m 1,0,-1
 360 335 l 2,1,2
 424 335 424 335 462 381 c 128,-1,3
 500 427 500 427 500 505 c 128,-1,4
 500 583 500 583 462 629 c 128,-1,5
 424 675 424 675 360 675 c 2,6,-1
 300 675 l 1,7,-1
 300 335 l 1,0,-1
335 310 m 1,8,-1
 300 310 l 1,9,-1
 300 25 l 1,10,-1
 380 15 l 1,11,-1
 380 0 l 1,12,-1
 50 0 l 1,13,-1
 50 15 l 1,14,-1
 130 25 l 1,15,-1
 130 675 l 1,16,-1
 50 685 l 1,17,-1
 50 700 l 1,18,-1
 380 700 l 2,19,20
 519 700 519 700 594.5 647 c 128,-1,21
 670 594 670 594 670 508 c 128,-1,22
 670 422 670 422 611 374.5 c 128,-1,23
 552 327 552 327 440 320 c 1,24,25
 447.25 320 447.25 320 469.125 312.5 c 128,-1,26
 491 305 491 305 507 295.5 c 0,27,28
 548.115537849 271.087649402 548.115537849 271.087649402 575 225 c 2,29,-1
 690 25 l 1,30,-1
 745 15 l 1,31,-1
 745 0 l 1,32,-1
 610 0 l 2,33,34
 558 0 558 0 521.5 23.5 c 128,-1,35
 485 47 485 47 455 100 c 2,36,-1
 335 310 l 1,8,-1
397 750 m 1,37,-1
 347 750 l 1,38,-1
 217 910 l 1,39,-1
 261 910 l 1,40,-1
 372 819 l 1,41,-1
 483 910 l 1,42,-1
 527 910 l 1,43,-1
 397 750 l 1,37,-1
EndSplineSet
EndChar

StartChar: iacute
Encoding: 237 237 202
Width: 380
Flags: HMW
HStem: 0 21G<40 370 40 40> 480 20G<40 170 170 210> 560 21G<155 199 155 155> 710 20G<205 335 335 335>
VStem: 120 170<25 380 25 475 25 475>
LayerCount: 2
Fore
SplineSet
120 25 m 1,0,-1
 120 475 l 1,1,-1
 40 485 l 1,2,-1
 40 500 l 1,3,-1
 170 500 l 2,4,5
 290 500 290 500 290 380 c 2,6,-1
 290 25 l 1,7,-1
 370 15 l 1,8,-1
 370 0 l 1,9,-1
 40 0 l 1,10,-1
 40 15 l 1,11,-1
 120 25 l 1,0,-1
205 730 m 1,12,-1
 335 730 l 1,13,-1
 199 560 l 1,14,-1
 155 560 l 1,15,-1
 205 730 l 1,12,-1
EndSplineSet
EndChar

StartChar: Jcircumflex
Encoding: 308 308 204
Width: 630
Flags: HMW
HStem: -15 25<197.5 262.5 197.5 335> 680 20G<260 590 590 590> 760 21G<270 314 270 270 536 580 536 536> 900 20G<400 450 450 450>
VStem: 10 130<82.5 135> 340 170<210 675>
LayerCount: 2
Fore
SplineSet
442.5 45.5 m 128,-1,1
 375 -15 375 -15 257.5 -15 c 128,-1,2
 140 -15 140 -15 75 24 c 128,-1,3
 10 63 10 63 10 115 c 0,4,5
 10 147 10 147 32.5 168.5 c 128,-1,6
 55 190 55 190 95 190 c 1,7,-1
 140 185 l 1,8,-1
 140 25 l 1,9,10
 170 10 170 10 227.5 10 c 128,-1,11
 285 10 285 10 312.5 52.5 c 128,-1,12
 340 95 340 95 340 210 c 2,13,-1
 340 675 l 1,14,-1
 260 685 l 1,15,-1
 260 700 l 1,16,-1
 590 700 l 1,17,-1
 590 685 l 1,18,-1
 510 675 l 1,19,-1
 510 210 l 2,20,0
 510 106 510 106 442.5 45.5 c 128,-1,1
400 920 m 1,21,-1
 450 920 l 1,22,-1
 580 760 l 1,23,-1
 536 760 l 1,24,-1
 425 851 l 1,25,-1
 314 760 l 1,26,-1
 270 760 l 1,27,-1
 400 920 l 1,21,-1
EndSplineSet
EndChar

StartChar: jcircumflex
Encoding: 309 309 205
Width: 380
Flags: HMW
HStem: -215 25<32.5 65 32.5 140> -215 180<-62.5 140> 480 20G<50 180 180 220> 560 21G<40 84 40 40 306 350 306 306> 700 20G<170 220 220 220>
VStem: -120 125<-147.5 -90> 130 170<0 380>
LayerCount: 2
Fore
SplineSet
130 0 m 2,0,-1
 130 475 l 1,1,-1
 50 485 l 1,2,-1
 50 500 l 1,3,-1
 180 500 l 2,4,5
 300 500 300 500 300 380 c 2,6,-1
 300 0 l 2,7,8
 300 -101 300 -101 238 -158 c 128,-1,9
 176 -215 176 -215 79 -215 c 0,10,11
 -120 -215 -120 -215 -120 -110 c 0,12,13
 -120 -78 -120 -78 -97.5 -56.5 c 128,-1,14
 -75 -35 -75 -35 -35 -35 c 1,15,-1
 5 -40 l 1,16,-1
 5 -185 l 1,17,18
 25 -190 25 -190 40 -190 c 0,19,20
 83 -190 83 -190 106.5 -150.5 c 128,-1,21
 130 -111 130 -111 130 0 c 2,0,-1
170 720 m 1,22,-1
 220 720 l 1,23,-1
 350 560 l 1,24,-1
 306 560 l 1,25,-1
 195 651 l 1,26,-1
 84 560 l 1,27,-1
 40 560 l 1,28,-1
 170 720 l 1,22,-1
EndSplineSet
EndChar

StartChar: Oslash
Encoding: 216 216 206
Width: 780
Flags: HMW
HStem: -15 20<367 425 367 467.5> 0 21G<105 155 105 105> 680 20G<640 685 685 685> 695 20<355 414>
VStem: 60 175<318 480 318 482.5> 545 175<220 379>
LayerCount: 2
Fore
SplineSet
640 700 m 1,0,-1
 685 700 l 1,1,-1
 625 620 l 1,2,3
 720 522 720 522 720 350 c 0,4,5
 720 255 720 255 690.5 182 c 128,-1,6
 661 109 661 109 612.5 67.5 c 0,7,8
 516.084337349 -15 516.084337349 -15 395.542168675 -15 c 128,-1,9
 275 -15 275 -15 191 48 c 1,10,-1
 155 0 l 1,11,-1
 105 0 l 1,12,-1
 161 73 l 1,13,14
 60 172 60 172 60 350 c 0,15,16
 60 445 60 445 89.5 518 c 128,-1,17
 119 591 119 591 167.5 632.5 c 0,18,19
 263.915662651 715 263.915662651 715 387.457831325 715 c 128,-1,20
 511 715 511 715 598 645 c 1,21,-1
 640 700 l 1,0,-1
235 350 m 0,22,23
 235 256 235 256 249 188 c 1,24,-1
 523 546 l 1,25,26
 502 622 502 622 466 658.5 c 128,-1,27
 430 695 430 695 390 695 c 0,28,29
 328 695 328 695 281.5 611.5 c 128,-1,30
 235 528 235 528 235 350 c 0,22,23
545 350 m 0,31,32
 545 429 545 429 533 499 c 1,33,-1
 261 140 l 1,34,35
 282 71 282 71 317 38 c 128,-1,36
 352 5 352 5 390 5 c 0,37,38
 452 5 452 5 498.5 88.5 c 128,-1,39
 545 172 545 172 545 350 c 0,31,32
EndSplineSet
EndChar

StartChar: oslash
Encoding: 248 248 207
Width: 640
Flags: HMW
HStem: -15 20<301 347.5 301 392.5> 0 21G<100 150 100 100> 480 20G<495 540 540 540> 495 20<292.5 339>
VStem: 50 170<232 342.5> 420 170<157.5 267>
LayerCount: 2
Fore
SplineSet
495 500 m 1,0,-1
 540 500 l 1,1,-1
 505 455 l 1,2,3
 590 385 590 385 590 252 c 0,4,5
 590 119 590 119 513.5 52 c 128,-1,6
 437 -15 437 -15 320 -15 c 0,7,8
 232 -15 232 -15 167 22 c 1,9,-1
 150 0 l 1,10,-1
 100 0 l 1,11,-1
 135 44 l 1,12,13
 50 114 50 114 50 247.5 c 0,14,15
 50 381 50 381 126.5 448 c 128,-1,16
 203 515 203 515 320 515 c 0,17,18
 408 515 408 515 476 476 c 1,19,-1
 495 500 l 1,0,-1
220 250 m 0,20,21
 220 193 220 193 224 157 c 1,22,-1
 408 390 l 1,23,24
 385 495 385 495 320 495 c 0,25,26
 220 495 220 495 220 250 c 0,20,21
420 250 m 0,27,28
 420 288 420 288 416 340 c 1,29,-1
 233 106 l 1,30,31
 256 5 256 5 320 5 c 0,32,33
 420 5 420 5 420 250 c 0,27,28
EndSplineSet
EndChar

StartChar: Rcommaaccent
Encoding: 342 342 208
Width: 745
Flags: HMW
HStem: -290 21G<381 381> -190 130<394 422.5> 0 21G<50 380 50 50 575 610 610 745> 675 25<130 130 300 360 300 300>
VStem: 130 170<25 310 25 335 335 675> 350 130<-144.5 -114 -208 -106.5> 453 27<-176 -176> 500 170<452.5 557.5>
LayerCount: 2
Fore
SplineSet
381 -290 m 1,0,-1
 372 -275 l 1,1,2
 375 -274 375 -274 380 -272.5 c 128,-1,3
 385 -271 385 -271 398.5 -263.5 c 128,-1,4
 412 -256 412 -256 422.5 -245.5 c 0,5,6
 449.1 -218.9 449.1 -218.9 453 -176 c 1,7,8
 434 -190 434 -190 409.5 -190 c 128,-1,9
 385 -190 385 -190 367.5 -172 c 128,-1,10
 350 -154 350 -154 350 -125.5 c 128,-1,11
 350 -97 350 -97 367.5 -78.5 c 128,-1,12
 385 -60 385 -60 413.5 -60 c 128,-1,13
 442 -60 442 -60 461 -81 c 128,-1,14
 480 -102 480 -102 480 -140.5 c 128,-1,15
 480 -179 480 -179 470 -208 c 128,-1,16
 460 -237 460 -237 445 -251.5 c 0,17,18
 413.604651163 -281.848837209 413.604651163 -281.848837209 391 -287.5 c 2,19,-1
 381 -290 l 1,0,-1
300 335 m 1,20,-1
 360 335 l 2,21,22
 424 335 424 335 462 381 c 128,-1,23
 500 427 500 427 500 505 c 128,-1,24
 500 583 500 583 462 629 c 128,-1,25
 424 675 424 675 360 675 c 2,26,-1
 300 675 l 1,27,-1
 300 335 l 1,20,-1
335 310 m 1,28,-1
 300 310 l 1,29,-1
 300 25 l 1,30,-1
 380 15 l 1,31,-1
 380 0 l 1,32,-1
 50 0 l 1,33,-1
 50 15 l 1,34,-1
 130 25 l 1,35,-1
 130 675 l 1,36,-1
 50 685 l 1,37,-1
 50 700 l 1,38,-1
 380 700 l 2,39,40
 519 700 519 700 594.5 647 c 128,-1,41
 670 594 670 594 670 508 c 128,-1,42
 670 422 670 422 611 374.5 c 128,-1,43
 552 327 552 327 440 320 c 1,44,45
 447.25 320 447.25 320 469.125 312.5 c 128,-1,46
 491 305 491 305 507 295.5 c 0,47,48
 548.115537849 271.087649402 548.115537849 271.087649402 575 225 c 2,49,-1
 690 25 l 1,50,-1
 745 15 l 1,51,-1
 745 0 l 1,52,-1
 610 0 l 2,53,54
 558 0 558 0 521.5 23.5 c 128,-1,55
 485 47 485 47 455 100 c 2,56,-1
 335 310 l 1,28,-1
EndSplineSet
EndChar

StartChar: rcommaaccent
Encoding: 343 343 209
Width: 580
Flags: HMW
HStem: -300 21G<181 181> -200 130<194 222.5> 0 21G<40 370 40 40> 335 170<462.5 480 387.5 502.5> 480 20G 480 25<392.5 430>
VStem: 120 170<25 385> 150 130<-154.5 -124 -218 -116.5> 253 27<-186 -186> 430 130<390 440 390 480 390 480>
LayerCount: 2
Fore
SplineSet
181 -300 m 1,0,-1
 172 -285 l 1,1,2
 175 -284 175 -284 180 -282.5 c 128,-1,3
 185 -281 185 -281 198.5 -273.5 c 128,-1,4
 212 -266 212 -266 222.5 -255.5 c 0,5,6
 249.1 -228.9 249.1 -228.9 253 -186 c 1,7,8
 234 -200 234 -200 209.5 -200 c 128,-1,9
 185 -200 185 -200 167.5 -182 c 128,-1,10
 150 -164 150 -164 150 -135.5 c 128,-1,11
 150 -107 150 -107 167.5 -88.5 c 128,-1,12
 185 -70 185 -70 213.5 -70 c 128,-1,13
 242 -70 242 -70 261 -91 c 128,-1,14
 280 -112 280 -112 280 -150.5 c 128,-1,15
 280 -189 280 -189 270 -218 c 128,-1,16
 260 -247 260 -247 245 -261.5 c 0,17,18
 213.604651163 -291.848837209 213.604651163 -291.848837209 191 -297.5 c 2,19,-1
 181 -300 l 1,0,-1
290 25 m 1,20,-1
 370 15 l 1,21,-1
 370 0 l 1,22,-1
 40 0 l 1,23,-1
 40 15 l 1,24,-1
 120 25 l 1,25,-1
 120 475 l 1,26,-1
 40 485 l 1,27,-1
 40 500 l 1,28,-1
 135 500 l 2,29,30
 167 500 167 500 193 489.5 c 128,-1,31
 219 479 219 479 232.5 464.5 c 0,32,33
 260.015267176 434.946564885 260.015267176 434.946564885 267 410.5 c 2,34,-1
 270 400 l 1,35,36
 273 404 273 404 278 411 c 128,-1,37
 283 418 283 418 299.5 436.5 c 128,-1,38
 316 455 316 455 334.5 468.5 c 128,-1,39
 353 482 353 482 382 493.5 c 128,-1,40
 411 505 411 505 440 505 c 0,41,42
 560 505 560 505 560 410 c 0,43,44
 560 378 560 378 537.5 356.5 c 128,-1,45
 515 335 515 335 475 335 c 1,46,-1
 430 340 l 1,47,-1
 430 480 l 1,48,49
 397 480 397 480 362 456 c 128,-1,50
 327 432 327 432 308.5 408.5 c 2,51,-1
 290 385 l 1,52,-1
 290 25 l 1,20,-1
EndSplineSet
EndChar

StartChar: mu
Encoding: 181 181 210
AltUni2: 0003bc.ffffffff.0
Width: 740
Flags: HMW
HStem: -200 234<30 382.5> 0 34<332.5 382.5 332.5 395> 480 20G<30 160 160 200 370 700 700 700>
VStem: 110 170<-120 -80 -80 39 130 160 160 380> 450 170<115 475 25 475>
LayerCount: 2
Fore
SplineSet
110 -175 m 1,0,-1
 110 475 l 1,1,-1
 30 485 l 1,2,-1
 30 500 l 1,3,-1
 160 500 l 2,4,5
 280 500 280 500 280 380 c 2,6,-1
 280 160 l 2,7,8
 280 112 280 112 301.5 73 c 128,-1,9
 323 34 323 34 351 34 c 128,-1,10
 379 34 379 34 403 54 c 128,-1,11
 427 74 427 74 438.5 94.5 c 2,12,-1
 450 115 l 1,13,-1
 450 475 l 1,14,-1
 370 485 l 1,15,-1
 370 500 l 1,16,-1
 700 500 l 1,17,-1
 700 485 l 1,18,-1
 620 475 l 1,19,-1
 620 25 l 1,20,-1
 700 15 l 1,21,-1
 700 0 l 1,22,-1
 605 0 l 2,23,24
 573 0 573 0 547 10.5 c 128,-1,25
 521 21 521 21 507.5 35.5 c 0,26,27
 479.984732824 65.0534351145 479.984732824 65.0534351145 473 89.5 c 2,28,-1
 470 100 l 1,29,30
 466.608695652 86.4347826087 466.608695652 86.4347826087 455.304347826 67.2173913043 c 128,-1,31
 444 48 444 48 431.5 35 c 128,-1,32
 419 22 419 22 397 11 c 128,-1,33
 375 0 375 0 351.5 0 c 128,-1,34
 328 0 328 0 310.5 9.5 c 128,-1,35
 293 19 293 19 286.5 29 c 2,36,-1
 280 39 l 1,37,-1
 280 -80 l 2,38,39
 280 -200 280 -200 160 -200 c 2,40,-1
 30 -200 l 1,41,-1
 30 -185 l 1,42,-1
 110 -175 l 1,0,-1
EndSplineSet
EndChar

StartChar: ij
Encoding: 307 307 211
Width: 750
Flags: HMW
HStem: -215 25<392.5 425 392.5 500> -215 180<297.5 500> 0 21G<40 370 40 40 490 490 660 660> 480 20G<40 170 170 210 410 540 540 580> 540 170<182.5 227.5 552.5 597.5>
VStem: 120 170<25 380 25 475 25 475 602.5 647.5> 240 125<-147.5 -90> 490 170<0 380 602.5 647.5>
LayerCount: 2
Fore
SplineSet
120 625 m 128,-1,1
 120 659 120 659 145.5 684.5 c 128,-1,2
 171 710 171 710 205 710 c 128,-1,3
 239 710 239 710 264.5 684.5 c 128,-1,4
 290 659 290 659 290 625 c 128,-1,5
 290 591 290 591 264.5 565.5 c 128,-1,6
 239 540 239 540 205 540 c 128,-1,7
 171 540 171 540 145.5 565.5 c 128,-1,0
 120 591 120 591 120 625 c 128,-1,1
120 25 m 1,8,-1
 120 475 l 1,9,-1
 40 485 l 1,10,-1
 40 500 l 1,11,-1
 170 500 l 2,12,13
 290 500 290 500 290 380 c 2,14,-1
 290 25 l 1,15,-1
 370 15 l 1,16,-1
 370 0 l 1,17,-1
 40 0 l 1,18,-1
 40 15 l 1,19,-1
 120 25 l 1,8,-1
490 625 m 128,-1,21
 490 659 490 659 515.5 684.5 c 128,-1,22
 541 710 541 710 575 710 c 128,-1,23
 609 710 609 710 634.5 684.5 c 128,-1,24
 660 659 660 659 660 625 c 128,-1,25
 660 591 660 591 634.5 565.5 c 128,-1,26
 609 540 609 540 575 540 c 128,-1,27
 541 540 541 540 515.5 565.5 c 128,-1,20
 490 591 490 591 490 625 c 128,-1,21
490 0 m 2,28,-1
 490 475 l 1,29,-1
 410 485 l 1,30,-1
 410 500 l 1,31,-1
 540 500 l 2,32,33
 660 500 660 500 660 380 c 2,34,-1
 660 0 l 2,35,36
 660 -101 660 -101 598 -158 c 128,-1,37
 536 -215 536 -215 439 -215 c 0,38,39
 240 -215 240 -215 240 -110 c 0,40,41
 240 -78 240 -78 262.5 -56.5 c 128,-1,42
 285 -35 285 -35 325 -35 c 1,43,-1
 365 -40 l 1,44,-1
 365 -185 l 1,45,46
 385 -190 385 -190 400 -190 c 0,47,48
 443 -190 443 -190 466.5 -150.5 c 128,-1,49
 490 -111 490 -111 490 0 c 2,28,-1
EndSplineSet
EndChar

StartChar: kcedilla
Encoding: 311 311 212
Width: 645
Flags: HMW
HStem: -290 21G<321 321> -190 130<334 362.5> 0 21G<30 360 30 30 480 510 510 655> 480 20G<390 615 615 615> 680 20G<30 160 160 200>
VStem: 110 170<25 230 260 580> 290 130<-144.5 -114 -208 -106.5> 393 27<-176 -176>
LayerCount: 2
Fore
SplineSet
321 -290 m 1,0,-1
 312 -275 l 1,1,2
 315 -274 315 -274 320 -272.5 c 128,-1,3
 325 -271 325 -271 338.5 -263.5 c 128,-1,4
 352 -256 352 -256 362.5 -245.5 c 0,5,6
 389.1 -218.9 389.1 -218.9 393 -176 c 1,7,8
 374 -190 374 -190 349.5 -190 c 128,-1,9
 325 -190 325 -190 307.5 -172 c 128,-1,10
 290 -154 290 -154 290 -125.5 c 128,-1,11
 290 -97 290 -97 307.5 -78.5 c 128,-1,12
 325 -60 325 -60 353.5 -60 c 128,-1,13
 382 -60 382 -60 401 -81 c 128,-1,14
 420 -102 420 -102 420 -140.5 c 128,-1,15
 420 -179 420 -179 410 -208 c 128,-1,16
 400 -237 400 -237 385 -251.5 c 0,17,18
 353.604651163 -281.848837209 353.604651163 -281.848837209 331 -287.5 c 2,19,-1
 321 -290 l 1,0,-1
280 25 m 1,20,-1
 360 15 l 1,21,-1
 360 0 l 1,22,-1
 30 0 l 1,23,-1
 30 15 l 1,24,-1
 110 25 l 1,25,-1
 110 675 l 1,26,-1
 30 685 l 1,27,-1
 30 700 l 1,28,-1
 160 700 l 2,29,30
 280 700 280 700 280 580 c 2,31,-1
 280 260 l 1,32,-1
 485 470 l 1,33,-1
 390 485 l 1,34,-1
 390 500 l 1,35,-1
 615 500 l 1,36,-1
 615 485 l 1,37,-1
 520 470 l 1,38,-1
 390 337 l 1,39,-1
 600 25 l 1,40,-1
 655 15 l 1,41,-1
 655 0 l 1,42,-1
 510 0 l 2,43,44
 466 0 466 0 436 21 c 128,-1,45
 406 42 406 42 370 95 c 2,46,-1
 280 230 l 1,47,-1
 280 25 l 1,20,-1
EndSplineSet
EndChar

StartChar: kgreenlandic
Encoding: 312 312 213
Width: 655
Flags: HMW
HStem: 0 21G<40 370 40 40 490 520 520 665> 480 20G<40 170 170 210 400 625 625 625>
VStem: 120 170<25 220 250 380>
LayerCount: 2
Fore
SplineSet
290 25 m 1,0,-1
 370 15 l 1,1,-1
 370 0 l 1,2,-1
 40 0 l 1,3,-1
 40 15 l 1,4,-1
 120 25 l 1,5,-1
 120 475 l 1,6,-1
 40 485 l 1,7,-1
 40 500 l 1,8,-1
 170 500 l 2,9,10
 290 500 290 500 290 380 c 2,11,-1
 290 250 l 1,12,-1
 495 470 l 1,13,-1
 400 485 l 1,14,-1
 400 500 l 1,15,-1
 625 500 l 1,16,-1
 625 485 l 1,17,-1
 530 470 l 1,18,-1
 395 325 l 1,19,-1
 610 25 l 1,20,-1
 665 15 l 1,21,-1
 665 0 l 1,22,-1
 520 0 l 2,23,24
 477 0 477 0 447.5 21.5 c 128,-1,25
 418 43 418 43 380 95 c 2,26,-1
 290 220 l 1,27,-1
 290 25 l 1,0,-1
EndSplineSet
EndChar

StartChar: Lslash
Encoding: 321 321 214
Width: 695
Flags: HMW
HStem: 0 25<140 140 310 560> 680 20G<60 380 380 380>
VStem: 140 170<25 316 316 316 351 413 25 448 448 675> 560 95<25 25>
LayerCount: 2
Fore
SplineSet
400 465 m 1,0,-1
 310 413 l 1,1,-1
 310 25 l 1,2,-1
 560 25 l 1,3,4
 562 67 562 67 578.5 108.5 c 128,-1,5
 595 150 595 150 610 170 c 2,6,-1
 625 190 l 1,7,-1
 655 190 l 1,8,-1
 655 0 l 1,9,-1
 60 0 l 1,10,-1
 60 15 l 1,11,-1
 140 25 l 1,12,-1
 140 316 l 1,13,-1
 50 265 l 1,14,-1
 50 300 l 1,15,-1
 140 351 l 1,16,-1
 140 675 l 1,17,-1
 60 685 l 1,18,-1
 60 700 l 1,19,-1
 380 700 l 1,20,-1
 380 685 l 1,21,-1
 310 675 l 1,22,-1
 310 448 l 1,23,-1
 400 500 l 1,24,-1
 400 465 l 1,0,-1
EndSplineSet
EndChar

StartChar: lslash
Encoding: 322 322 215
Width: 400
Flags: HMW
HStem: 0 21G<40 370 40 40> 680 20G<40 170 170 210>
VStem: 120 170<25 316 316 316 351 413 25 448 448 580 25 675>
LayerCount: 2
Fore
SplineSet
380 465 m 1,0,-1
 290 413 l 1,1,-1
 290 25 l 1,2,-1
 370 15 l 1,3,-1
 370 0 l 1,4,-1
 40 0 l 1,5,-1
 40 15 l 1,6,-1
 120 25 l 1,7,-1
 120 316 l 1,8,-1
 30 265 l 1,9,-1
 30 300 l 1,10,-1
 120 351 l 1,11,-1
 120 675 l 1,12,-1
 40 685 l 1,13,-1
 40 700 l 1,14,-1
 170 700 l 2,15,16
 290 700 290 700 290 580 c 2,17,-1
 290 448 l 1,18,-1
 380 500 l 1,19,-1
 380 465 l 1,0,-1
EndSplineSet
EndChar

StartChar: ldot
Encoding: 320 320 216
Width: 550
Flags: HMW
HStem: 0 21G<30 360 30 30> 270 160<406.5 453.5> 680 20G<30 160 160 200>
VStem: 110 170<25 580 25 675 25 675> 350 160<326.5 373.5>
LayerCount: 2
Fore
SplineSet
110 25 m 1,0,-1
 110 675 l 1,1,-1
 30 685 l 1,2,-1
 30 700 l 1,3,-1
 160 700 l 2,4,5
 280 700 280 700 280 580 c 2,6,-1
 280 25 l 1,7,-1
 360 15 l 1,8,-1
 360 0 l 1,9,-1
 30 0 l 1,10,-1
 30 15 l 1,11,-1
 110 25 l 1,0,-1
430 270 m 128,-1,13
 395 270 395 270 372.5 292.5 c 128,-1,14
 350 315 350 315 350 350 c 128,-1,15
 350 385 350 385 372.5 407.5 c 128,-1,16
 395 430 395 430 430 430 c 128,-1,17
 465 430 465 430 487.5 407.5 c 128,-1,18
 510 385 510 385 510 350 c 128,-1,19
 510 315 510 315 487.5 292.5 c 128,-1,12
 465 270 465 270 430 270 c 128,-1,13
EndSplineSet
EndChar

StartChar: florin
Encoding: 402 402 217
Width: 526
Flags: HMW
HStem: -206 26<-32 3 -39.5 90> 440 25 535 180<349 526.5> 690 25<420 452.5>
VStem: -120 25<-70 -70>
LayerCount: 2
Fore
SplineSet
86 -15 m 2,0,-1
 150 435 l 1,1,-1
 71 445 l 1,2,-1
 74 465 l 1,3,-1
 154 465 l 1,4,-1
 159 500 l 2,5,6
 173 601 173 601 243 658 c 128,-1,7
 313 715 313 715 410 715 c 0,8,9
 595.153153153 715 595.153153153 715 595.153153153 624.97540784 c 0,10,11
 595.153153153 582.344815404 595.153153153 582.344815404 567.076576577 558.672407702 c 128,-1,12
 539 535 539 535 499 535 c 1,13,-1
 459 540 l 1,14,-1
 480 685 l 1,15,16
 460 690 460 690 445 690 c 0,17,18
 402 690 402 690 373 650.5 c 128,-1,19
 344 611 344 611 329 500 c 2,20,-1
 324 465 l 1,21,-1
 504 465 l 1,22,-1
 501 445 l 1,23,-1
 320 435 l 1,24,-1
 256 -15 l 2,25,26
 244 -104 244 -104 183.5 -155 c 128,-1,27
 123 -206 123 -206 20 -206 c 0,28,29
 -55 -206 -55 -206 -84.5 -174 c 128,-1,30
 -114 -142 -114 -142 -120 -70 c 1,31,-1
 -95 -65 l 1,32,33
 -95 -120 -95 -120 -73.5 -150 c 128,-1,34
 -52 -180 -52 -180 -17.5 -180 c 128,-1,35
 17 -180 17 -180 45.5 -141 c 128,-1,36
 74 -102 74 -102 86 -15 c 2,0,-1
EndSplineSet
EndChar

StartChar: hbar
Encoding: 295 295 218
Width: 710
Flags: HMW
HStem: 0 21G<30 350 30 30 530 570 570 700> 420 35<387.5 402.5> 525 25 680 20G<30 160 160 200>
VStem: 110 170<25 325 374 520 550 580> 450 170<120 290 25 337.5>
LayerCount: 2
Fore
SplineSet
280 520 m 1,0,-1
 280 374 l 1,1,2
 336 455 336 455 427.5 455 c 0,3,4
 519 455 519 455 569.5 412 c 128,-1,5
 620 369 620 369 620 290 c 2,6,-1
 620 25 l 1,7,-1
 700 15 l 1,8,-1
 700 0 l 1,9,-1
 570 0 l 2,10,11
 450 0 450 0 450 120 c 2,12,-1
 450 290 l 2,13,14
 450 357 450 357 432 388.5 c 128,-1,15
 414 420 414 420 384 420 c 0,16,17
 354 420 354 420 327.5 396 c 128,-1,18
 301 372 301 372 290.5 348.5 c 2,19,-1
 280 325 l 1,20,-1
 280 25 l 1,21,-1
 350 15 l 1,22,-1
 350 0 l 1,23,-1
 30 0 l 1,24,-1
 30 15 l 1,25,-1
 110 25 l 1,26,-1
 110 520 l 1,27,-1
 30 530 l 1,28,-1
 30 550 l 1,29,-1
 110 550 l 1,30,-1
 110 675 l 1,31,-1
 30 685 l 1,32,-1
 30 700 l 1,33,-1
 160 700 l 2,34,35
 280 700 280 700 280 580 c 2,36,-1
 280 550 l 1,37,-1
 460 550 l 1,38,-1
 460 530 l 1,39,-1
 280 520 l 1,0,-1
EndSplineSet
EndChar

StartChar: Aring
Encoding: 197 197 219
Width: 760
Flags: HMW
HStem: 0 230<196 205 -20 436 196 635 196 780> 200 30<196 436 196 449 183 436> 690 20G<375 405> 830 40<375 405>
VStem: 290 45<752.5 787.5 752.5 800> 445 45<752.5 787.5>
LayerCount: 2
Fore
SplineSet
461 842 m 128,-1,1
 490 814 490 814 490 774.5 c 128,-1,2
 490 735 490 735 471 709 c 128,-1,3
 452 683 452 683 421 674 c 1,4,-1
 715 25 l 1,5,-1
 780 15 l 1,6,-1
 780 0 l 1,7,-1
 635 0 l 2,8,9
 540 0 540 0 490 110 c 2,10,-1
 449 200 l 1,11,-1
 183 200 l 1,12,-1
 107 30 l 1,13,-1
 205 15 l 1,14,-1
 205 0 l 1,15,-1
 -20 0 l 1,16,-1
 -20 15 l 1,17,-1
 72 30 l 1,18,-1
 359 674 l 1,19,20
 328 683 328 683 309 709 c 128,-1,21
 290 735 290 735 290 774.5 c 128,-1,22
 290 814 290 814 319 842 c 128,-1,23
 348 870 348 870 390 870 c 128,-1,0
 432 870 432 870 461 842 c 128,-1,1
315 497 m 1,24,-1
 196 230 l 1,25,-1
 436 230 l 1,26,-1
 315 497 l 1,24,-1
445 770 m 128,-1,28
 445 796 445 796 429 813 c 128,-1,29
 413 830 413 830 390 830 c 128,-1,30
 367 830 367 830 351 813 c 128,-1,31
 335 796 335 796 335 770 c 128,-1,32
 335 744 335 744 351 727 c 128,-1,33
 367 710 367 710 390 710 c 128,-1,34
 413 710 413 710 429 727 c 128,-1,27
 445 744 445 744 445 770 c 128,-1,28
EndSplineSet
EndChar

StartChar: aring
Encoding: 229 229 220
Width: 640
Flags: HMW
HStem: -15 35<267.5 302.5> 0 20 245 25<345 380> 330 185<147.5 380> 490 25<257.5 305> 561 40<295 325 295 337.5> 721 40<295 325>
VStem: 50 170<102.5 165 102.5 172.5> 90 130<385 442.5> 210 45<643.5 678.5 643.5 691> 365 45<643.5 678.5> 380 30 380 170<115 245 245 245 270 290 25 370>
LayerCount: 2
Fore
SplineSet
230 230 m 1,0,1
 220 180 220 180 220 150 c 0,2,3
 220 83 220 83 238 51.5 c 128,-1,4
 256 20 256 20 284 20 c 128,-1,5
 312 20 312 20 335.5 44 c 128,-1,6
 359 68 359 68 369.5 91.5 c 2,7,-1
 380 115 l 1,8,-1
 380 245 l 1,9,10
 312.5 245 312.5 245 252 234 c 2,11,-1
 230 230 l 1,0,1
90 405 m 0,12,13
 90 515 90 515 309 515 c 0,14,15
 418 515 418 515 484 454 c 128,-1,16
 550 393 550 393 550 290 c 2,17,-1
 550 25 l 1,18,-1
 630 15 l 1,19,-1
 630 0 l 1,20,-1
 535 0 l 2,21,22
 503 0 503 0 477 10.5 c 128,-1,23
 451 21 451 21 437.5 35.5 c 0,24,25
 409.984732824 65.0534351145 409.984732824 65.0534351145 403 89.5 c 2,26,-1
 400 100 l 1,27,28
 395 87.5 l 2,29,30
 392 80 392 80 378.5 60 c 128,-1,31
 365 40 365 40 349 25 c 128,-1,32
 333 10 333 10 305 -2.5 c 128,-1,33
 277 -15 277 -15 245 -15 c 0,34,35
 151 -15 151 -15 100.5 28 c 128,-1,36
 50 71 50 71 50 150 c 0,37,38
 50 193.125 50 193.125 65 225 c 1,39,40
 220 265 220 265 380 270 c 1,41,-1
 380 290 l 2,42,43
 380 404 380 404 353 447 c 128,-1,44
 326 490 326 490 270 490 c 1,45,-1
 220 485 l 1,46,-1
 220 335 l 1,47,48
 200 330 200 330 167.5 330 c 128,-1,49
 135 330 135 330 112.5 351.5 c 128,-1,50
 90 373 90 373 90 405 c 0,12,13
365 661 m 128,-1,52
 365 687 365 687 349 704 c 128,-1,53
 333 721 333 721 310 721 c 128,-1,54
 287 721 287 721 271 704 c 128,-1,55
 255 687 255 687 255 661 c 128,-1,56
 255 635 255 635 271 618 c 128,-1,57
 287 601 287 601 310 601 c 128,-1,58
 333 601 333 601 349 618 c 128,-1,51
 365 635 365 635 365 661 c 128,-1,52
410 661 m 128,-1,60
 410 617 410 617 381 589 c 128,-1,61
 352 561 352 561 310 561 c 128,-1,62
 268 561 268 561 239 589 c 128,-1,63
 210 617 210 617 210 661 c 128,-1,64
 210 705 210 705 239 733 c 128,-1,65
 268 761 268 761 310 761 c 128,-1,66
 352 761 352 761 381 733 c 128,-1,59
 410 705 410 705 410 661 c 128,-1,60
EndSplineSet
EndChar

StartChar: cedilla
Encoding: 184 184 221
Width: 140
Flags: HMW
HStem: -200 20<0 20 20 35 0 45 0 20> -200 150<0 77.5 0 77.5> -20 20G<15 45 45 45>
VStem: 15 135<-147.5 0 -147.5 0> 75 75<-142.5 -107.5>
LayerCount: 2
Fore
SplineSet
20 -70 m 2,0,-1
 15 -70 l 1,1,-1
 15 0 l 1,2,-1
 45 0 l 1,3,-1
 45 -50 l 1,4,5
 93 -50 93 -50 121.5 -70.5 c 128,-1,6
 150 -91 150 -91 150 -125 c 128,-1,7
 150 -159 150 -159 121.5 -179.5 c 128,-1,8
 93 -200 93 -200 45 -200 c 2,9,-1
 0 -200 l 1,10,-1
 0 -180 l 1,11,-1
 20 -180 l 2,12,13
 43 -180 43 -180 59 -165 c 128,-1,14
 75 -150 75 -150 75 -125 c 128,-1,15
 75 -100 75 -100 59 -85 c 128,-1,16
 43 -70 43 -70 20 -70 c 2,0,-1
EndSplineSet
EndChar

StartChar: Ccedilla
Encoding: 199 199 222
Width: 705
Flags: HMW
HStem: -200 20<337 357 357 372 337 382 337 357> -15 25<401 465 372.5 467.5> 490 20G<600 645 600 600> 680 20G<625 645 645 645> 690 25<357.5 430 307.5 440>
VStem: 60 175<231.5 477.5 222.5 482.5> 412 75<-142.5 -107.5>
LayerCount: 2
Fore
SplineSet
268 694.5 m 128,-1,1
 321 715 321 715 363.5 715 c 128,-1,2
 406 715 406 715 434.5 707.5 c 128,-1,3
 463 700 463 700 482.5 689 c 0,4,5
 517.909747292 669.025270758 517.909747292 669.025270758 538 647.5 c 2,6,-1
 545 640 l 1,7,8
 558.333333333 663.333333333 558.333333333 663.333333333 581.666666667 681.666666667 c 128,-1,9
 605 700 605 700 625 700 c 2,10,-1
 645 700 l 1,11,-1
 645 510 l 1,12,-1
 600 510 l 1,13,14
 569 582 569 582 513.5 636 c 128,-1,15
 458 690 458 690 394.5 690 c 128,-1,16
 331 690 331 690 283 606.5 c 128,-1,17
 235 523 235 523 235 347.5 c 128,-1,18
 235 172 235 172 287.5 91 c 128,-1,19
 340 10 340 10 420 10 c 0,20,21
 486 10 486 10 545 49.5 c 128,-1,22
 604 89 604 89 632 150 c 1,23,-1
 655 135 l 1,24,25
 576 -15 576 -15 405 -15 c 0,26,27
 389 -15 389 -15 382 -14 c 1,28,-1
 382 -50 l 1,29,30
 430 -50 430 -50 458.5 -70.5 c 128,-1,31
 487 -91 487 -91 487 -125 c 128,-1,32
 487 -159 487 -159 458.5 -179.5 c 128,-1,33
 430 -200 430 -200 382 -200 c 2,34,-1
 337 -200 l 1,35,-1
 337 -180 l 1,36,-1
 357 -180 l 2,37,38
 380 -180 380 -180 396 -165 c 128,-1,39
 412 -150 412 -150 412 -125 c 128,-1,40
 412 -100 412 -100 396 -85 c 128,-1,41
 380 -70 380 -70 357 -70 c 2,42,-1
 352 -70 l 1,43,-1
 352 -11 l 1,44,45
 234.862745098 3.13725490196 234.862745098 3.13725490196 151 87 c 0,46,47
 109 129 109 129 84.5 196.5 c 128,-1,48
 60 264 60 264 60 354.5 c 128,-1,49
 60 445 60 445 89.5 518 c 128,-1,50
 119 591 119 591 167 632.5 c 128,-1,0
 215 674 215 674 268 694.5 c 128,-1,1
EndSplineSet
EndChar

StartChar: ccedilla
Encoding: 231 231 223
Width: 560
Flags: HMW
HStem: -200 20<270 290 290 305 270 315 270 290> -200 150<270 347.5 270 347.5> -15 25<315 320 315 315> 330 185<247.5 472.5> 490 25<307.5 362.5>
VStem: 50 170<165 342.5> 345 75<-142.5 -107.5> 400 130<385 442.5>
LayerCount: 2
Fore
SplineSet
350 490 m 0,0,1
 283 490 283 490 251.5 437 c 128,-1,2
 220 384 220 384 220 251 c 128,-1,3
 220 118 220 118 250 64 c 128,-1,4
 280 10 280 10 337.5 10 c 128,-1,5
 395 10 395 10 439 43 c 128,-1,6
 483 76 483 76 507 120 c 1,7,-1
 530 105 l 1,8,9
 453 -15 453 -15 320 -15 c 2,10,-1
 315 -15 l 1,11,-1
 315 -50 l 1,12,13
 363 -50 363 -50 391.5 -70.5 c 128,-1,14
 420 -91 420 -91 420 -125 c 128,-1,15
 420 -159 420 -159 391.5 -179.5 c 128,-1,16
 363 -200 363 -200 315 -200 c 2,17,-1
 270 -200 l 1,18,-1
 270 -180 l 1,19,-1
 290 -180 l 2,20,21
 313 -180 313 -180 329 -165 c 128,-1,22
 345 -150 345 -150 345 -125 c 128,-1,23
 345 -100 345 -100 329 -85 c 128,-1,24
 313 -70 313 -70 290 -70 c 2,25,-1
 285 -70 l 1,26,-1
 285 -13 l 1,27,28
 181 -3 181 -3 115.5 63 c 128,-1,29
 50 129 50 129 50 255 c 128,-1,30
 50 381 50 381 126.5 448 c 128,-1,31
 203 515 203 515 311.5 515 c 0,32,33
 530 515 530 515 530 405 c 0,34,35
 530 373 530 373 507.5 351.5 c 128,-1,36
 485 330 485 330 445 330 c 1,37,-1
 400 335 l 1,38,-1
 400 485 l 1,39,40
 375 490 375 490 350 490 c 0,0,1
EndSplineSet
EndChar

StartChar: ae
Encoding: 230 230 224
Width: 920
Flags: HMW
HStem: -15 25<637.5 702.5> 230 30 330 185<147.5 350> 490 25<257.5 305>
VStem: 50 170<97.5 155 97.5 162.5> 90 130<385 442.5> 380 170<115 300 235 300 260 290 290 300 255 370> 710 170<340 392.5 330 407.5>
LayerCount: 2
Fore
SplineSet
865 275 m 1,0,1
 710 235 710 235 550 230 c 1,2,3
 557 10 557 10 670 10 c 0,4,5
 725 10 725 10 769 43 c 128,-1,6
 813 76 813 76 837 120 c 1,7,-1
 860 105 l 1,8,9
 783 -15 783 -15 650 -15 c 0,10,11
 470 -15 470 -15 407 118 c 1,12,13
 362.666666667 -15 362.666666667 -15 245 -15 c 0,14,15
 152 -15 152 -15 101 26.5 c 128,-1,16
 50 68 50 68 50 140 c 0,17,18
 50 183.125 50 183.125 65 215 c 1,19,20
 220 255 220 255 380 260 c 1,21,-1
 380 290 l 2,22,23
 380 404 380 404 353 447 c 128,-1,24
 326 490 326 490 270 490 c 1,25,-1
 220 485 l 1,26,-1
 220 335 l 1,27,28
 200 330 200 330 167.5 330 c 128,-1,29
 135 330 135 330 112.5 351.5 c 128,-1,30
 90 373 90 373 90 405 c 0,31,32
 90 459 90 459 142 487 c 128,-1,33
 194 515 194 515 280 515 c 0,34,35
 377.538461538 515 377.538461538 515 440 457 c 0,36,37
 454 444 454 444 459.5 434.5 c 2,38,-1
 465 425 l 1,39,40
 467.541176471 435.164705882 467.541176471 435.164705882 484.770588235 453.582352941 c 128,-1,41
 502 472 502 472 521 484 c 128,-1,42
 540 496 540 496 576 505.5 c 128,-1,43
 612 515 612 515 655 515 c 0,44,45
 759 515 759 515 819.5 466.5 c 128,-1,46
 880 418 880 418 880 350 c 0,47,48
 880 317.857142857 880 317.857142857 868.5 285 c 2,49,-1
 865 275 l 1,0,1
550 300 m 2,50,-1
 550 255 l 1,51,52
 617.5 255 617.5 255 678 266 c 2,53,-1
 700 270 l 1,54,55
 710 320 710 320 710 373 c 128,-1,56
 710 426 710 426 687.5 460.5 c 128,-1,57
 665 495 665 495 635 495 c 0,58,59
 550 495 550 495 550 300 c 2,50,-1
230 220 m 1,60,61
 220 170 220 170 220 125 c 128,-1,62
 220 80 220 80 238.5 50 c 128,-1,63
 257 20 257 20 284.5 20 c 128,-1,64
 312 20 312 20 335.5 44 c 128,-1,65
 359 68 359 68 369.5 91.5 c 2,66,-1
 380 115 l 1,67,-1
 380 235 l 1,68,69
 312.5 235 312.5 235 252 224 c 2,70,-1
 230 220 l 1,60,61
EndSplineSet
EndChar

StartChar: oe
Encoding: 339 339 225
Width: 980
Flags: HMW
HStem: -15 20<292.5 347.5 292.5 380> 220 25<590 590> 495 20<292.5 347 657.5 707.5>
VStem: 50 170<157.5 342.5> 420 170<250 262 262 262> 770 170<330 387.5 320 402.5>
LayerCount: 2
Fore
SplineSet
220 250 m 128,-1,1
 220 5 220 5 320 5 c 128,-1,2
 420 5 420 5 420 250 c 2,3,-1
 420 262 l 1,4,5
 417 495 417 495 320 495 c 0,6,0
 220 495 220 495 220 250 c 128,-1,1
590 300 m 2,7,-1
 590 245 l 1,8,9
 658.75 245 658.75 245 733 256 c 2,10,-1
 760 260 l 1,11,12
 770 310 770 310 770 350 c 0,13,14
 770 424 770 424 746 459.5 c 128,-1,15
 722 495 722 495 682 495 c 128,-1,16
 642 495 642 495 616 446 c 128,-1,17
 590 397 590 397 590 300 c 2,7,-1
710 -15 m 0,18,19
 615.692307692 -15 615.692307692 -15 564 17 c 0,20,21
 519.393617021 44.6134751773 519.393617021 44.6134751773 509.5 65.5 c 2,22,-1
 505 75 l 1,23,24
 498.771428571 62.5428571429 498.771428571 62.5428571429 480.385714286 45.2714285714 c 128,-1,25
 462 28 462 28 441 16 c 0,26,27
 386.75 -15 386.75 -15 291.875 -15 c 128,-1,28
 197 -15 197 -15 123.5 52.5 c 128,-1,29
 50 120 50 120 50 250 c 128,-1,30
 50 380 50 380 123.5 447.5 c 128,-1,31
 197 515 197 515 300 515 c 0,32,33
 388.576923077 515 388.576923077 515 441.5 483 c 0,34,35
 487.536723164 455.163841808 487.536723164 455.163841808 499.5 434.5 c 2,36,-1
 505 425 l 1,37,38
 511 437 511 437 528.5 454.5 c 128,-1,39
 546 472 546 472 565.5 484 c 0,40,41
 615.875 515 615.875 515 695 515 c 0,42,43
 813 515 813 515 876.5 465.5 c 128,-1,44
 940 416 940 416 940 340 c 0,45,46
 940 307.857142857 940 307.857142857 928.5 275 c 2,47,-1
 925 265 l 1,48,49
 750 225 750 225 590 220 c 1,50,51
 594 114 594 114 630.5 62 c 128,-1,52
 667 10 667 10 721 10 c 128,-1,53
 775 10 775 10 819 43 c 128,-1,54
 863 76 863 76 887 120 c 1,55,-1
 910 105 l 1,56,57
 833 -15 833 -15 710 -15 c 0,18,19
EndSplineSet
EndChar

StartChar: AE
Encoding: 198 198 226
Width: 1075
Flags: HMW
HStem: 0 25<500 500 670 920> 255 30<264 500 264 500 245 500> 345 25<670 805 670 805> 490 20G<985 1015 985 985> 675 25<670 920 670 670>
VStem: 500 170<25 255 255 255 285 345 370 647 647 647> 920 95<25 25 675 675>
LayerCount: 2
Fore
SplineSet
670 25 m 1,0,-1
 920 25 l 1,1,2
 922 67 922 67 938.5 108.5 c 128,-1,3
 955 150 955 150 970 170 c 2,4,-1
 985 190 l 1,5,-1
 1015 190 l 1,6,-1
 1015 0 l 1,7,-1
 420 0 l 1,8,-1
 420 15 l 1,9,-1
 500 25 l 1,10,-1
 500 255 l 1,11,-1
 245 255 l 1,12,-1
 98 30 l 1,13,-1
 195 15 l 1,14,-1
 195 0 l 1,15,-1
 -30 0 l 1,16,-1
 -30 15 l 1,17,-1
 63 30 l 1,18,-1
 500 700 l 1,19,-1
 1015 700 l 1,20,-1
 1015 510 l 1,21,-1
 985 510 l 1,22,23
 978 518 978 518 968 532 c 128,-1,24
 958 546 958 546 940 589.5 c 128,-1,25
 922 633 922 633 920 675 c 1,26,-1
 670 675 l 1,27,-1
 670 370 l 1,28,-1
 805 370 l 1,29,30
 809 398 809 398 822.5 435.5 c 128,-1,31
 836 473 836 473 850 495 c 1,32,-1
 875 495 l 1,33,-1
 875 220 l 1,34,-1
 850 220 l 1,35,36
 836 242 836 242 822.5 279.5 c 128,-1,37
 809 317 809 317 805 345 c 1,38,-1
 670 345 l 1,39,-1
 670 25 l 1,0,-1
264 285 m 1,40,-1
 500 285 l 1,41,-1
 500 647 l 1,42,-1
 264 285 l 1,40,-1
EndSplineSet
EndChar

StartChar: OE
Encoding: 338 338 227
Width: 1055
Flags: HMW
HStem: 0 25<312.5 480 390 480 650 900> 345 25<650 785 650 785> 490 20G<965 995 965 965> 675 25<355 995 390 480 650 900 650 650>
VStem: 60 175<227.5 472.5 227.5 475> 480 170<25 345 370 675> 900 95<25 25 675 675>
LayerCount: 2
Fore
SplineSet
650 25 m 1,0,-1
 900 25 l 1,1,2
 902 67 902 67 918.5 108.5 c 128,-1,3
 935 150 935 150 950 170 c 2,4,-1
 965 190 l 1,5,-1
 995 190 l 1,6,-1
 995 0 l 1,7,-1
 390 0 l 2,8,9
 263.901234568 0 263.901234568 0 167.5 80.5 c 0,10,11
 119 121 119 121 89.5 190.5 c 128,-1,12
 60 260 60 260 60 350 c 128,-1,13
 60 440 60 440 89.5 509.5 c 128,-1,14
 119 579 119 579 167.5 619.5 c 0,15,16
 263.901234568 700 263.901234568 700 390 700 c 2,17,-1
 995 700 l 1,18,-1
 995 510 l 1,19,-1
 965 510 l 1,20,21
 958 518 958 518 948 532 c 128,-1,22
 938 546 938 546 920 589.5 c 128,-1,23
 902 633 902 633 900 675 c 1,24,-1
 650 675 l 1,25,-1
 650 370 l 1,26,-1
 785 370 l 1,27,28
 789 398 789 398 802.5 435.5 c 128,-1,29
 816 473 816 473 830 495 c 1,30,-1
 855 495 l 1,31,-1
 855 220 l 1,32,-1
 830 220 l 1,33,34
 816 242 816 242 802.5 279.5 c 128,-1,35
 789 317 789 317 785 345 c 1,36,-1
 650 345 l 1,37,-1
 650 25 l 1,0,-1
235 350 m 128,-1,39
 235 182 235 182 281.5 103.5 c 128,-1,40
 328 25 328 25 390 25 c 2,41,-1
 480 25 l 1,42,-1
 480 675 l 1,43,-1
 390 675 l 2,44,45
 328 675 328 675 281.5 596.5 c 128,-1,38
 235 518 235 518 235 350 c 128,-1,39
EndSplineSet
EndChar

StartChar: Thorn
Encoding: 222 222 228
Width: 730
Flags: HMW
HStem: 0 125<300 375 300 380> 100 25<300 375 300 417.5> 575 25<300 375> 575 125<300 375>
VStem: 130 170<25 100 25 125 125 575 600 675> 515 175<267.5 432.5>
LayerCount: 2
Fore
SplineSet
690 350 m 128,-1,1
 690 100 690 100 300 100 c 1,2,-1
 300 25 l 1,3,-1
 380 15 l 1,4,-1
 380 0 l 1,5,-1
 50 0 l 1,6,-1
 50 15 l 1,7,-1
 130 25 l 1,8,-1
 130 675 l 1,9,-1
 50 685 l 1,10,-1
 50 700 l 1,11,-1
 380 700 l 1,12,-1
 380 685 l 1,13,-1
 300 675 l 1,14,-1
 300 600 l 1,15,0
 690 600 690 600 690 350 c 128,-1,1
515 350 m 128,-1,17
 515 472 515 472 464.5 523.5 c 128,-1,18
 414 575 414 575 300 575 c 1,19,-1
 300 125 l 1,20,21
 414 125 414 125 464.5 176.5 c 128,-1,16
 515 228 515 228 515 350 c 128,-1,17
EndSplineSet
EndChar

StartChar: thorn
Encoding: 254 254 229
Width: 670
Flags: HMW
HStem: -200 215<350 360> -15 30<372.5 395 350 470> 480 35<378.5 397.5> 480 220<30 397.5>
VStem: 110 170<-175 30 60 60.5 60.5 385 438 580> 450 170<162.5 337.5>
LayerCount: 2
Fore
SplineSet
30 -185 m 1,0,-1
 110 -175 l 1,1,-1
 110 675 l 1,2,-1
 30 685 l 1,3,-1
 30 700 l 1,4,-1
 160 700 l 2,5,6
 280 700 280 700 280 580 c 2,7,-1
 280 438 l 1,8,9
 328 515 328 515 415 515 c 0,10,11
 485.475409836 515 485.475409836 515 549 452.5 c 0,12,13
 580 422 580 422 600 369 c 128,-1,14
 620 316 620 316 620 250 c 0,15,16
 620 117 620 117 562.5 51 c 128,-1,17
 505 -15 505 -15 410 -15 c 0,18,19
 377 -15 377 -15 344.5 -4 c 128,-1,20
 312 7 312 7 296 18.5 c 2,21,-1
 280 30 l 1,22,-1
 280 -175 l 1,23,-1
 360 -185 l 1,24,-1
 360 -200 l 1,25,-1
 30 -200 l 1,26,-1
 30 -185 l 1,0,-1
280 385 m 1,27,-1
 280 60 l 1,28,-1
 293.5 49 l 2,29,30
 307 38 307 38 329.5 26.5 c 128,-1,31
 352 15 352 15 370 15 c 0,32,33
 450 15 450 15 450 247.5 c 128,-1,34
 450 480 450 480 375 480 c 0,35,36
 348 480 348 480 324.5 456 c 128,-1,37
 301 432 301 432 290.5 408.5 c 2,38,-1
 280 385 l 1,27,-1
EndSplineSet
EndChar

StartChar: Eth
Encoding: 208 208 230
Width: 775
Flags: HMW
HStem: 0 25<140 140 310 335 335 340> 345 25<50 140 50 140 310 400> 675 25<140 140 310 310 310 335>
VStem: 140 170<25 345 25 345 370 675> 550 175<230 470>
LayerCount: 2
Fore
SplineSet
140 25 m 1,0,-1
 140 345 l 1,1,-1
 50 345 l 1,2,-1
 50 370 l 1,3,-1
 140 370 l 1,4,-1
 140 675 l 1,5,-1
 60 685 l 1,6,-1
 60 700 l 1,7,-1
 340 700 l 2,8,9
 495.679012346 700 495.679012346 700 605 619.5 c 0,10,11
 660 579 660 579 692.5 509.5 c 128,-1,12
 725 440 725 440 725 350 c 128,-1,13
 725 260 725 260 692.5 190.5 c 128,-1,14
 660 121 660 121 605 80.5 c 0,15,16
 495.679012346 2.13162820728e-14 495.679012346 2.13162820728e-14 340 0 c 2,17,-1
 60 0 l 1,18,-1
 60 15 l 1,19,-1
 140 25 l 1,0,-1
335 675 m 2,20,-1
 310 675 l 1,21,-1
 310 370 l 1,22,-1
 400 370 l 1,23,-1
 400 345 l 1,24,-1
 310 345 l 1,25,-1
 310 25 l 1,26,-1
 335 25 l 2,27,28
 430 25 430 25 490 103 c 128,-1,29
 550 181 550 181 550 350 c 128,-1,30
 550 519 550 519 490 597 c 128,-1,31
 430 675 430 675 335 675 c 2,20,-1
EndSplineSet
EndChar

StartChar: eth
Encoding: 240 240 232
Width: 640
Flags: HMW
HStem: -15 20<292.5 347.5 292.5 392.5> 455 20<285 336.5> 680 20<150 183.5> 722 20G<392 392>
VStem: 50 170<147.5 312.5> 420 170<230 242 242 316>
LayerCount: 2
Fore
SplineSet
414 729 m 1,0,-1
 374 659 l 1,1,2
 590 566 590 566 590 270 c 0,3,4
 590 125 590 125 514 55 c 128,-1,5
 438 -15 438 -15 321 -15 c 0,6,7
 204 -15 204 -15 127 48.5 c 128,-1,8
 50 112 50 112 50 230 c 128,-1,9
 50 348 50 348 121 411.5 c 128,-1,10
 192 475 192 475 300 475 c 0,11,12
 342 475 342 475 374.5 453.5 c 128,-1,13
 407 432 407 432 418.5 411 c 2,14,-1
 430 390 l 1,15,16
 423 526 423 526 342 605 c 1,17,-1
 299 530 l 1,18,-1
 277 543 l 1,19,-1
 323 623 l 1,20,21
 251 680 251 680 150 680 c 1,22,-1
 150 700 l 1,23,24
 261 700 261 700 349 669 c 1,25,-1
 392 742 l 1,26,-1
 414 729 l 1,0,-1
220 230 m 0,27,28
 220 5 220 5 320 5 c 128,-1,29
 420 5 420 5 420 230 c 2,30,-1
 420 242 l 2,31,32
 420 346 420 346 387 400.5 c 128,-1,33
 354 455 354 455 311 455 c 0,34,35
 268 455 268 455 244 405 c 128,-1,36
 220 355 220 355 220 230 c 0,27,28
EndSplineSet
EndChar

StartChar: macron
Encoding: 175 175 233
Width: 325
Flags: HMW
HStem: 700 55<0 325 0 325>
LayerCount: 2
Fore
SplineSet
325 700 m 1,0,-1
 0 700 l 1,1,-1
 0 755 l 1,2,-1
 325 755 l 1,3,-1
 325 700 l 1,0,-1
EndSplineSet
EndChar

StartChar: germandbls
Encoding: 223 223 234
Width: 750
Flags: HMW
HStem: -15 25<457.5 505 457.5 577.5> 0 21G<20 350 20 20> 690 25<342.5 397.5>
VStem: 100 170<25 500 25 567.5> 340 165<375 420> 460 45 460 165<528 613 528 615> 545 165<80 95>
LayerCount: 2
Fore
SplineSet
625 576 m 0,0,1
 625 544 625 544 606.5 519.5 c 128,-1,2
 588 495 588 495 565 481.5 c 128,-1,3
 542 468 542 468 523.5 445.5 c 128,-1,4
 505 423 505 423 505 395 c 0,5,6
 505 388 505 388 506.5 381 c 128,-1,7
 508 374 508 374 509 369 c 128,-1,8
 510 364 510 364 514.5 358 c 128,-1,9
 519 352 519 352 521 349 c 128,-1,10
 523 346 523 346 530 339.5 c 128,-1,11
 537 333 537 333 540 330.5 c 128,-1,12
 543 328 543 328 552.5 320.5 c 128,-1,13
 562 313 562 313 565 310 c 2,14,-1
 645 245 l 2,15,16
 710 192 710 192 710 115 c 0,17,18
 710 58 710 58 659 21.5 c 128,-1,19
 608 -15 608 -15 505 -15 c 0,20,21
 437.666666667 -15 437.666666667 -15 390 30.5 c 0,22,23
 379 41 379 41 370 55 c 1,24,-1
 390 70 l 1,25,26
 402.055045872 48.9036697248 402.055045872 48.9036697248 431.527522936 29.4518348624 c 128,-1,27
 461 10 461 10 485 10 c 0,28,29
 545 10 545 10 545 75 c 0,30,31
 545 131 545 131 485 180 c 2,32,-1
 405 245 l 2,33,34
 340 297 340 297 340 360 c 0,35,36
 340 420.857142857 340 420.857142857 382.5 458.5 c 0,37,38
 400 474 400 474 417.5 489 c 0,39,40
 460 525.428571429 460 525.428571429 460 578.214285714 c 128,-1,41
 460 631 460 631 435 660.5 c 128,-1,42
 410 690 410 690 375 690 c 0,43,44
 323 690 323 690 296.5 648.5 c 128,-1,45
 270 607 270 607 270 500 c 2,46,-1
 270 25 l 1,47,-1
 350 15 l 1,48,-1
 350 0 l 1,49,-1
 20 0 l 1,50,-1
 20 15 l 1,51,-1
 100 25 l 1,52,-1
 100 500 l 2,53,54
 100 603 100 603 170 659 c 128,-1,55
 240 715 240 715 373.5 715 c 128,-1,56
 507 715 507 715 566 676 c 128,-1,57
 625 637 625 637 625 576 c 0,0,1
EndSplineSet
EndChar

StartChar: sterling
Encoding: 163 163 235
Width: 640
Flags: HMW
HStem: 0 45<111 111 280 499> 370 25 690 25<399 431.5>
VStem: 123 169 459 131
LayerCount: 2
Fore
SplineSet
221 657.5 m 128,-1,1
 288 715 288 715 385 715 c 0,2,3
 584 715 584 715 584 610 c 0,4,5
 584 578 584 578 561.5 556.5 c 128,-1,6
 539 535 539 535 499 535 c 1,7,-1
 459 540 l 1,8,-1
 459 685 l 1,9,10
 439 690 439 690 417.5 690 c 128,-1,11
 396 690 396 690 376.5 677 c 128,-1,12
 357 664 357 664 340 620 c 128,-1,13
 323 576 323 576 316 500 c 2,14,-1
 307 395 l 1,15,-1
 489 395 l 1,16,-1
 489 375 l 1,17,-1
 305 365 l 1,18,-1
 280 45 l 1,19,-1
 499 45 l 1,20,21
 502 76 502 76 517 110 c 128,-1,22
 532 144 532 144 546 162 c 2,23,-1
 560 180 l 1,24,-1
 590 180 l 1,25,-1
 590 0 l 1,26,-1
 30 0 l 1,27,-1
 30 25 l 1,28,-1
 111 45 l 1,29,-1
 136 365 l 1,30,-1
 59 375 l 1,31,-1
 59 395 l 1,32,-1
 139 395 l 1,33,-1
 147 500 l 2,34,0
 154 600 154 600 221 657.5 c 128,-1,1
EndSplineSet
EndChar

StartChar: dagger
Encoding: 8224 8224 236
Width: 530
Flags: HMW
HStem: -210 21G<265 265> 690 20G<265 265>
LayerCount: 2
Fore
SplineSet
340 610 m 1,0,-1
 290 405 l 1,1,-1
 480 450 l 1,2,-1
 480 325 l 1,3,-1
 290 370 l 1,4,-1
 360 -20 l 1,5,-1
 265 -210 l 1,6,-1
 170 -20 l 1,7,-1
 240 370 l 1,8,-1
 50 325 l 1,9,-1
 50 450 l 1,10,-1
 240 405 l 1,11,-1
 190 610 l 1,12,-1
 265 710 l 1,13,-1
 340 610 l 1,0,-1
EndSplineSet
EndChar

StartChar: daggerdbl
Encoding: 8225 8225 237
Width: 530
Flags: HMW
HStem: -210 21G<265 265> 690 20G<265 265>
LayerCount: 2
Fore
SplineSet
290 95 m 1,0,-1
 340 -110 l 1,1,-1
 265 -210 l 1,2,-1
 190 -110 l 1,3,-1
 240 95 l 1,4,-1
 50 50 l 1,5,-1
 50 175 l 1,6,-1
 240 130 l 1,7,-1
 200 250 l 1,8,-1
 240 370 l 1,9,-1
 50 325 l 1,10,-1
 50 450 l 1,11,-1
 240 405 l 1,12,-1
 190 610 l 1,13,-1
 265 710 l 1,14,-1
 340 610 l 1,15,-1
 290 405 l 1,16,-1
 480 450 l 1,17,-1
 480 325 l 1,18,-1
 290 370 l 1,19,-1
 330 250 l 1,20,-1
 290 130 l 1,21,-1
 480 175 l 1,22,-1
 480 50 l 1,23,-1
 290 95 l 1,0,-1
EndSplineSet
EndChar

StartChar: foundryicon
Encoding: 65537 -1 238
Width: 2405
Flags: HMW
HStem: -10 21G<1167.5 1262.5 2060 2107.5> 0 21G<50 370 50 50 370 690 370 370 700 700 700 860 860 860 860 1020 1410 1695 1410 1410 1730 1730 1730 2050> 680 20G<515 515 850 1170 1170 1170 1215 1215 1410 1695 1695 1695 1760 2045 2045 2045 2055 2375 2375 2375> 690 20G<662.5 757.5>
VStem: 2060 170<112.5 207.5 112.5 330 112.5 330>
LayerCount: 2
Fore
SplineSet
1385 160 m 128,-1,1
 1385 89 1385 89 1335.5 39.5 c 128,-1,2
 1286 -10 1286 -10 1215 -10 c 128,-1,3
 1144 -10 1144 -10 1094.5 39.5 c 128,-1,4
 1045 89 1045 89 1045 160 c 128,-1,5
 1045 231 1045 231 1094.5 280.5 c 128,-1,6
 1144 330 1144 330 1215 330 c 128,-1,7
 1286 330 1286 330 1335.5 280.5 c 128,-1,0
 1385 231 1385 231 1385 160 c 128,-1,1
370 0 m 1,8,-1
 50 0 l 1,9,-1
 50 320 l 1,10,-1
 370 0 l 1,8,-1
2050 0 m 1,11,-1
 1730 0 l 1,12,-1
 1890 320 l 1,13,-1
 2050 0 l 1,11,-1
2230 160 m 128,-1,15
 2230 89 2230 89 2180.5 39.5 c 128,-1,16
 2131 -10 2131 -10 2060 -10 c 1,17,-1
 2060 330 l 1,18,19
 2131 330 2131 330 2180.5 280.5 c 128,-1,14
 2230 231 2230 231 2230 160 c 128,-1,15
1720 320 m 1,20,-1
 1720 25 l 1,21,-1
 1435 320 l 1,22,-1
 1720 320 l 1,20,-1
1410 0 m 1,23,-1
 1410 295 l 1,24,-1
 1695 0 l 1,25,-1
 1410 0 l 1,23,-1
700 320 m 1,26,-1
 860 0 l 1,27,-1
 700 0 l 1,28,-1
 700 320 l 1,26,-1
1020 320 m 1,29,-1
 1020 0 l 1,30,-1
 860 0 l 1,31,-1
 1020 320 l 1,29,-1
370 0 m 1,32,-1
 370 160 l 1,33,-1
 690 0 l 1,34,-1
 370 0 l 1,32,-1
370 320 m 1,35,-1
 690 320 l 1,36,-1
 370 160 l 1,37,-1
 370 320 l 1,35,-1
515 380 m 1,38,-1
 195 380 l 1,39,-1
 515 700 l 1,40,-1
 515 380 l 1,38,-1
880 540 m 128,-1,42
 880 469 880 469 830.5 419.5 c 128,-1,43
 781 370 781 370 710 370 c 128,-1,44
 639 370 639 370 589.5 419.5 c 128,-1,45
 540 469 540 469 540 540 c 128,-1,46
 540 611 540 611 589.5 660.5 c 128,-1,47
 639 710 639 710 710 710 c 128,-1,48
 781 710 781 710 830.5 660.5 c 128,-1,41
 880 611 880 611 880 540 c 128,-1,42
850 700 m 1,49,-1
 1170 700 l 1,50,-1
 1010 380 l 1,51,-1
 850 700 l 1,49,-1
1375 380 m 1,52,-1
 1055 380 l 1,53,-1
 1215 700 l 1,54,-1
 1375 380 l 1,52,-1
1695 700 m 1,55,-1
 1695 405 l 1,56,-1
 1410 700 l 1,57,-1
 1695 700 l 1,55,-1
1385 380 m 1,58,-1
 1385 675 l 1,59,-1
 1670 380 l 1,60,-1
 1385 380 l 1,58,-1
2045 700 m 1,61,-1
 2045 405 l 1,62,-1
 1760 700 l 1,63,-1
 2045 700 l 1,61,-1
1735 380 m 1,64,-1
 1735 675 l 1,65,-1
 2020 380 l 1,66,-1
 1735 380 l 1,64,-1
2055 700 m 1,67,-1
 2375 700 l 1,68,-1
 2215 380 l 1,69,-1
 2055 700 l 1,67,-1
EndSplineSet
EndChar

